<svg xmlns="http://www.w3.org/2000/svg" xmlns:xlink="http://www.w3.org/1999/xlink" width="350" zoomAndPan="magnify" viewBox="0 0 262.5 56.249996" height="75" preserveAspectRatio="xMidYMid meet" version="1.0"><defs><g/><clipPath id="9fb754f7cd"><path d="M 11.511719 12.863281 L 62.582031 12.863281 L 62.582031 42.46875 L 11.511719 42.46875 Z M 11.511719 12.863281 " clip-rule="nonzero"/></clipPath><clipPath id="7191e40db3"><path d="M 26.261719 12.875 C 30.257812 12.875 34.105469 14.621094 36.902344 17.679688 L 36.988281 17.589844 C 38.386719 16.089844 40.027344 14.929688 41.910156 14.109375 C 43.789062 13.289062 45.757812 12.878906 47.808594 12.875 C 55.953125 12.875 62.582031 19.503906 62.582031 27.648438 C 62.582031 35.796875 55.953125 42.425781 47.808594 42.425781 C 46.796875 42.425781 45.800781 42.320312 44.8125 42.109375 C 43.824219 41.894531 42.871094 41.582031 41.949219 41.167969 C 41.027344 40.753906 40.164062 40.246094 39.351562 39.644531 C 38.539062 39.046875 37.796875 38.367188 37.128906 37.609375 C 37.007812 37.773438 36.878906 37.929688 36.734375 38.074219 C 35.351562 39.46875 33.75 40.546875 31.9375 41.300781 C 30.121094 42.054688 28.230469 42.429688 26.261719 42.425781 C 18.117188 42.425781 11.488281 35.796875 11.488281 27.648438 C 11.488281 19.503906 18.113281 12.875 26.261719 12.875 Z M 33.730469 31.25 C 33.449219 30.261719 33.246094 29.289062 33.042969 28.335938 C 32.601562 26.226562 32.253906 24.5625 31.191406 23.304688 C 29.886719 21.761719 28.089844 20.878906 26.261719 20.878906 C 25.984375 20.878906 25.707031 20.894531 25.433594 20.929688 C 25.15625 20.964844 24.886719 21.015625 24.617188 21.082031 C 24.347656 21.148438 24.082031 21.234375 23.824219 21.332031 C 23.566406 21.433594 23.3125 21.546875 23.070312 21.679688 C 22.824219 21.808594 22.589844 21.953125 22.363281 22.113281 C 22.132812 22.273438 21.917969 22.449219 21.710938 22.632812 C 21.507812 22.820312 21.3125 23.019531 21.132812 23.230469 C 20.953125 23.4375 20.785156 23.660156 20.628906 23.890625 C 20.476562 24.121094 20.335938 24.359375 20.210938 24.609375 C 20.085938 24.855469 19.976562 25.113281 19.886719 25.371094 C 19.792969 25.632812 19.714844 25.898438 19.652344 26.171875 C 19.59375 26.441406 19.550781 26.714844 19.523438 26.992188 C 19.496094 27.269531 19.484375 27.542969 19.492188 27.820312 C 19.5 28.097656 19.523438 28.375 19.566406 28.648438 C 19.605469 28.925781 19.664062 29.195312 19.738281 29.460938 C 19.8125 29.730469 19.902344 29.992188 20.007812 30.246094 C 20.117188 30.503906 20.238281 30.753906 20.375 30.996094 C 20.511719 31.234375 20.664062 31.46875 20.828125 31.691406 C 20.992188 31.914062 21.171875 32.125 21.363281 32.324219 C 21.554688 32.527344 21.757812 32.714844 21.972656 32.890625 C 22.1875 33.066406 22.414062 33.226562 22.648438 33.375 C 22.882812 33.523438 23.125 33.65625 23.375 33.777344 C 23.628906 33.894531 23.886719 33.996094 24.148438 34.082031 C 24.410156 34.167969 24.679688 34.238281 24.953125 34.292969 C 25.222656 34.347656 25.5 34.382812 25.777344 34.402344 C 26.050781 34.421875 26.328125 34.425781 26.605469 34.414062 C 26.882812 34.398438 27.160156 34.367188 27.433594 34.320312 C 27.707031 34.269531 27.976562 34.207031 28.242188 34.125 C 28.507812 34.042969 28.765625 33.949219 29.019531 33.835938 C 29.273438 33.722656 29.519531 33.59375 29.753906 33.449219 C 29.992188 33.308594 30.222656 33.148438 30.441406 32.980469 C 30.660156 32.808594 30.867188 32.625 31.0625 32.425781 C 31.796875 31.683594 32.683594 31.292969 33.730469 31.25 Z M 47.808594 34.421875 C 48.085938 34.421875 48.367188 34.402344 48.644531 34.371094 C 48.921875 34.335938 49.195312 34.285156 49.46875 34.214844 C 49.738281 34.144531 50.007812 34.0625 50.265625 33.960938 C 50.527344 33.859375 50.78125 33.742188 51.027344 33.609375 C 51.273438 33.476562 51.511719 33.328125 51.738281 33.164062 C 51.96875 33.003906 52.183594 32.828125 52.390625 32.636719 C 52.597656 32.449219 52.789062 32.246094 52.972656 32.03125 C 53.152344 31.820312 53.320312 31.59375 53.472656 31.359375 C 53.628906 31.125 53.765625 30.882812 53.890625 30.632812 C 54.011719 30.382812 54.121094 30.125 54.210938 29.859375 C 54.300781 29.59375 54.375 29.324219 54.433594 29.050781 C 54.492188 28.777344 54.535156 28.5 54.558594 28.222656 C 54.582031 27.941406 54.585938 27.664062 54.578125 27.382812 C 54.566406 27.105469 54.535156 26.824219 54.492188 26.550781 C 54.445312 26.273438 54.382812 26 54.304688 25.730469 C 54.226562 25.464844 54.128906 25.199219 54.015625 24.945312 C 53.90625 24.6875 53.777344 24.4375 53.636719 24.199219 C 53.492188 23.957031 53.335938 23.726562 53.164062 23.503906 C 52.992188 23.285156 52.808594 23.074219 52.613281 22.875 C 52.414062 22.675781 52.203125 22.492188 51.984375 22.316406 C 51.765625 22.144531 51.535156 21.988281 51.292969 21.84375 C 51.054688 21.699219 50.804688 21.570312 50.550781 21.457031 C 50.292969 21.34375 50.03125 21.246094 49.761719 21.167969 C 49.496094 21.085938 49.222656 21.019531 48.945312 20.972656 C 48.671875 20.925781 48.394531 20.898438 48.113281 20.886719 C 47.832031 20.871094 47.554688 20.878906 47.277344 20.898438 C 46.996094 20.921875 46.71875 20.960938 46.445312 21.015625 C 46.171875 21.074219 45.902344 21.148438 45.636719 21.238281 C 45.371094 21.328125 45.113281 21.433594 44.859375 21.554688 C 44.609375 21.675781 44.363281 21.8125 44.128906 21.964844 C 43.894531 22.117188 43.671875 22.285156 43.457031 22.464844 C 43.242188 22.644531 43.039062 22.835938 42.847656 23.042969 L 42.800781 23.09375 C 42.140625 23.816406 41.324219 24.242188 40.351562 24.371094 C 40.566406 25.179688 40.726562 25.964844 40.886719 26.695312 C 41.203125 28.195312 41.496094 29.613281 42.070312 30.75 C 43.203125 33.015625 45.40625 34.421875 47.808594 34.421875 Z M 47.808594 34.421875 " clip-rule="nonzero"/></clipPath><linearGradient x1="-1.770674" gradientTransform="matrix(-0.106353, 0, 0, -0.106353, 63.623406, 53.154345)" y1="352.991138" x2="501.608643" gradientUnits="userSpaceOnUse" y2="126.701161" id="78bf668e87"><stop stop-opacity="1" stop-color="rgb(36.468506%, 23.919678%, 53.729248%)" offset="0"/><stop stop-opacity="1" stop-color="rgb(36.468506%, 23.919678%, 53.729248%)" offset="0.0625"/><stop stop-opacity="1" stop-color="rgb(36.468506%, 23.919678%, 53.729248%)" offset="0.09375"/><stop stop-opacity="1" stop-color="rgb(36.468506%, 23.919678%, 53.729248%)" offset="0.109375"/><stop stop-opacity="1" stop-color="rgb(37.181091%, 24.345398%, 54.5578%)" offset="0.113281"/><stop stop-opacity="1" stop-color="rgb(37.895203%, 24.772644%, 55.387878%)" offset="0.117188"/><stop stop-opacity="1" stop-color="rgb(38.682556%, 25.242615%, 56.303406%)" offset="0.121094"/><stop stop-opacity="1" stop-color="rgb(39.46991%, 25.714111%, 57.218933%)" offset="0.125"/><stop stop-opacity="1" stop-color="rgb(40.257263%, 26.184082%, 58.13446%)" offset="0.128906"/><stop stop-opacity="1" stop-color="rgb(41.044617%, 26.654053%, 59.049988%)" offset="0.132812"/><stop stop-opacity="1" stop-color="rgb(41.83197%, 27.124023%, 59.965515%)" offset="0.136719"/><stop stop-opacity="1" stop-color="rgb(42.619324%, 27.59552%, 60.881042%)" offset="0.140625"/><stop stop-opacity="1" stop-color="rgb(43.406677%, 28.065491%, 61.79657%)" offset="0.144531"/><stop stop-opacity="1" stop-color="rgb(44.194031%, 28.536987%, 62.712097%)" offset="0.148437"/><stop stop-opacity="1" stop-color="rgb(44.979858%, 29.006958%, 63.627625%)" offset="0.152344"/><stop stop-opacity="1" stop-color="rgb(45.767212%, 29.478455%, 64.543152%)" offset="0.15625"/><stop stop-opacity="1" stop-color="rgb(46.554565%, 29.948425%, 65.458679%)" offset="0.160156"/><stop stop-opacity="1" stop-color="rgb(47.341919%, 30.419922%, 66.374207%)" offset="0.164062"/><stop stop-opacity="1" stop-color="rgb(48.129272%, 30.889893%, 67.289734%)" offset="0.167969"/><stop stop-opacity="1" stop-color="rgb(48.916626%, 31.361389%, 68.205261%)" offset="0.171875"/><stop stop-opacity="1" stop-color="rgb(49.703979%, 31.83136%, 69.120789%)" offset="0.175781"/><stop stop-opacity="1" stop-color="rgb(50.491333%, 32.301331%, 70.036316%)" offset="0.179687"/><stop stop-opacity="1" stop-color="rgb(51.278687%, 32.771301%, 70.951843%)" offset="0.183594"/><stop stop-opacity="1" stop-color="rgb(52.06604%, 33.242798%, 71.867371%)" offset="0.1875"/><stop stop-opacity="1" stop-color="rgb(52.851868%, 33.712769%, 72.782898%)" offset="0.191406"/><stop stop-opacity="1" stop-color="rgb(53.639221%, 34.184265%, 73.698425%)" offset="0.195312"/><stop stop-opacity="1" stop-color="rgb(54.426575%, 34.654236%, 74.613953%)" offset="0.199219"/><stop stop-opacity="1" stop-color="rgb(55.213928%, 35.125732%, 75.52948%)" offset="0.203125"/><stop stop-opacity="1" stop-color="rgb(56.001282%, 35.595703%, 76.445007%)" offset="0.207031"/><stop stop-opacity="1" stop-color="rgb(56.788635%, 36.0672%, 77.360535%)" offset="0.210938"/><stop stop-opacity="1" stop-color="rgb(57.575989%, 36.53717%, 78.276062%)" offset="0.214844"/><stop stop-opacity="1" stop-color="rgb(58.363342%, 37.008667%, 79.191589%)" offset="0.21875"/><stop stop-opacity="1" stop-color="rgb(59.150696%, 37.478638%, 80.107117%)" offset="0.222656"/><stop stop-opacity="1" stop-color="rgb(59.938049%, 37.950134%, 81.022644%)" offset="0.226562"/><stop stop-opacity="1" stop-color="rgb(60.723877%, 38.420105%, 81.938171%)" offset="0.230469"/><stop stop-opacity="1" stop-color="rgb(61.51123%, 38.890076%, 82.853699%)" offset="0.234375"/><stop stop-opacity="1" stop-color="rgb(62.298584%, 39.360046%, 83.7677%)" offset="0.238281"/><stop stop-opacity="1" stop-color="rgb(63.085938%, 39.831543%, 84.683228%)" offset="0.242187"/><stop stop-opacity="1" stop-color="rgb(63.873291%, 40.301514%, 85.598755%)" offset="0.246094"/><stop stop-opacity="1" stop-color="rgb(64.660645%, 40.77301%, 86.514282%)" offset="0.25"/><stop stop-opacity="1" stop-color="rgb(65.447998%, 41.242981%, 87.42981%)" offset="0.253906"/><stop stop-opacity="1" stop-color="rgb(66.235352%, 41.714478%, 88.345337%)" offset="0.257812"/><stop stop-opacity="1" stop-color="rgb(67.022705%, 42.184448%, 89.260864%)" offset="0.261719"/><stop stop-opacity="1" stop-color="rgb(67.810059%, 42.655945%, 90.176392%)" offset="0.265625"/><stop stop-opacity="1" stop-color="rgb(68.595886%, 43.125916%, 91.091919%)" offset="0.269531"/><stop stop-opacity="1" stop-color="rgb(69.38324%, 43.597412%, 92.007446%)" offset="0.273437"/><stop stop-opacity="1" stop-color="rgb(70.170593%, 44.067383%, 92.922974%)" offset="0.277344"/><stop stop-opacity="1" stop-color="rgb(70.957947%, 44.537354%, 93.838501%)" offset="0.28125"/><stop stop-opacity="1" stop-color="rgb(71.7453%, 45.007324%, 94.754028%)" offset="0.285156"/><stop stop-opacity="1" stop-color="rgb(72.532654%, 45.478821%, 95.669556%)" offset="0.289062"/><stop stop-opacity="1" stop-color="rgb(72.540283%, 45.483398%, 95.678711%)" offset="0.296875"/><stop stop-opacity="1" stop-color="rgb(72.549438%, 45.489502%, 95.689392%)" offset="0.3125"/><stop stop-opacity="1" stop-color="rgb(72.549438%, 45.489502%, 95.689392%)" offset="0.375"/><stop stop-opacity="1" stop-color="rgb(72.549438%, 45.489502%, 95.689392%)" offset="0.5"/><stop stop-opacity="1" stop-color="rgb(72.549438%, 45.489502%, 95.689392%)" offset="0.5625"/><stop stop-opacity="1" stop-color="rgb(72.549438%, 45.489502%, 95.689392%)" offset="0.570313"/><stop stop-opacity="1" stop-color="rgb(72.218323%, 45.291138%, 95.304871%)" offset="0.574219"/><stop stop-opacity="1" stop-color="rgb(71.888733%, 45.094299%, 94.921875%)" offset="0.578125"/><stop stop-opacity="1" stop-color="rgb(71.330261%, 44.760132%, 94.273376%)" offset="0.582031"/><stop stop-opacity="1" stop-color="rgb(70.773315%, 44.42749%, 93.624878%)" offset="0.585938"/><stop stop-opacity="1" stop-color="rgb(70.214844%, 44.093323%, 92.976379%)" offset="0.589844"/><stop stop-opacity="1" stop-color="rgb(69.657898%, 43.760681%, 92.327881%)" offset="0.59375"/><stop stop-opacity="1" stop-color="rgb(69.100952%, 43.426514%, 91.679382%)" offset="0.597656"/><stop stop-opacity="1" stop-color="rgb(68.544006%, 43.093872%, 91.030884%)" offset="0.601562"/><stop stop-opacity="1" stop-color="rgb(67.985535%, 42.759705%, 90.382385%)" offset="0.605469"/><stop stop-opacity="1" stop-color="rgb(67.428589%, 42.427063%, 89.733887%)" offset="0.609375"/><stop stop-opacity="1" stop-color="rgb(66.870117%, 42.092896%, 89.085388%)" offset="0.613281"/><stop stop-opacity="1" stop-color="rgb(66.313171%, 41.760254%, 88.43689%)" offset="0.617188"/><stop stop-opacity="1" stop-color="rgb(65.7547%, 41.427612%, 87.788391%)" offset="0.621094"/><stop stop-opacity="1" stop-color="rgb(65.197754%, 41.094971%, 87.139893%)" offset="0.625"/><stop stop-opacity="1" stop-color="rgb(64.639282%, 40.760803%, 86.491394%)" offset="0.628906"/><stop stop-opacity="1" stop-color="rgb(64.082336%, 40.428162%, 85.842896%)" offset="0.632812"/><stop stop-opacity="1" stop-color="rgb(63.523865%, 40.093994%, 85.194397%)" offset="0.636719"/><stop stop-opacity="1" stop-color="rgb(62.966919%, 39.761353%, 84.545898%)" offset="0.640625"/><stop stop-opacity="1" stop-color="rgb(62.408447%, 39.427185%, 83.8974%)" offset="0.644531"/><stop stop-opacity="1" stop-color="rgb(61.851501%, 39.094543%, 83.248901%)" offset="0.648437"/><stop stop-opacity="1" stop-color="rgb(61.294556%, 38.760376%, 82.600403%)" offset="0.652344"/><stop stop-opacity="1" stop-color="rgb(60.73761%, 38.427734%, 81.951904%)" offset="0.65625"/><stop stop-opacity="1" stop-color="rgb(60.179138%, 38.093567%, 81.303406%)" offset="0.660156"/><stop stop-opacity="1" stop-color="rgb(59.622192%, 37.760925%, 80.654907%)" offset="0.664062"/><stop stop-opacity="1" stop-color="rgb(59.063721%, 37.426758%, 80.006409%)" offset="0.667969"/><stop stop-opacity="1" stop-color="rgb(58.506775%, 37.094116%, 79.35791%)" offset="0.671875"/><stop stop-opacity="1" stop-color="rgb(57.948303%, 36.759949%, 78.709412%)" offset="0.675781"/><stop stop-opacity="1" stop-color="rgb(57.391357%, 36.427307%, 78.060913%)" offset="0.679688"/><stop stop-opacity="1" stop-color="rgb(56.832886%, 36.09314%, 77.412415%)" offset="0.683594"/><stop stop-opacity="1" stop-color="rgb(56.27594%, 35.760498%, 76.763916%)" offset="0.6875"/><stop stop-opacity="1" stop-color="rgb(55.717468%, 35.426331%, 76.115417%)" offset="0.691406"/><stop stop-opacity="1" stop-color="rgb(55.160522%, 35.093689%, 75.466919%)" offset="0.695312"/><stop stop-opacity="1" stop-color="rgb(54.602051%, 34.759521%, 74.81842%)" offset="0.699219"/><stop stop-opacity="1" stop-color="rgb(54.045105%, 34.42688%, 74.169922%)" offset="0.703125"/><stop stop-opacity="1" stop-color="rgb(53.488159%, 34.092712%, 73.521423%)" offset="0.707031"/><stop stop-opacity="1" stop-color="rgb(52.931213%, 33.760071%, 72.872925%)" offset="0.710938"/><stop stop-opacity="1" stop-color="rgb(52.372742%, 33.425903%, 72.224426%)" offset="0.714844"/><stop stop-opacity="1" stop-color="rgb(51.815796%, 33.093262%, 71.575928%)" offset="0.71875"/><stop stop-opacity="1" stop-color="rgb(51.257324%, 32.759094%, 70.927429%)" offset="0.722656"/><stop stop-opacity="1" stop-color="rgb(50.700378%, 32.426453%, 70.278931%)" offset="0.726562"/><stop stop-opacity="1" stop-color="rgb(50.141907%, 32.092285%, 69.630432%)" offset="0.730469"/><stop stop-opacity="1" stop-color="rgb(49.584961%, 31.759644%, 68.981934%)" offset="0.734375"/><stop stop-opacity="1" stop-color="rgb(49.026489%, 31.427002%, 68.333435%)" offset="0.738281"/><stop stop-opacity="1" stop-color="rgb(48.469543%, 31.09436%, 67.684937%)" offset="0.742187"/><stop stop-opacity="1" stop-color="rgb(47.911072%, 30.760193%, 67.036438%)" offset="0.746094"/><stop stop-opacity="1" stop-color="rgb(47.354126%, 30.427551%, 66.387939%)" offset="0.75"/><stop stop-opacity="1" stop-color="rgb(46.79718%, 30.093384%, 65.739441%)" offset="0.753906"/><stop stop-opacity="1" stop-color="rgb(46.240234%, 29.760742%, 65.092468%)" offset="0.757812"/><stop stop-opacity="1" stop-color="rgb(45.681763%, 29.426575%, 64.44397%)" offset="0.761719"/><stop stop-opacity="1" stop-color="rgb(45.124817%, 29.093933%, 63.795471%)" offset="0.765625"/><stop stop-opacity="1" stop-color="rgb(44.566345%, 28.759766%, 63.146973%)" offset="0.769531"/><stop stop-opacity="1" stop-color="rgb(44.009399%, 28.427124%, 62.498474%)" offset="0.773438"/><stop stop-opacity="1" stop-color="rgb(43.450928%, 28.092957%, 61.849976%)" offset="0.777344"/><stop stop-opacity="1" stop-color="rgb(42.893982%, 27.760315%, 61.201477%)" offset="0.78125"/><stop stop-opacity="1" stop-color="rgb(42.33551%, 27.426147%, 60.552979%)" offset="0.785156"/><stop stop-opacity="1" stop-color="rgb(41.778564%, 27.093506%, 59.90448%)" offset="0.789062"/><stop stop-opacity="1" stop-color="rgb(41.220093%, 26.759338%, 59.255981%)" offset="0.792969"/><stop stop-opacity="1" stop-color="rgb(40.663147%, 26.426697%, 58.607483%)" offset="0.796875"/><stop stop-opacity="1" stop-color="rgb(40.104675%, 26.092529%, 57.958984%)" offset="0.800781"/><stop stop-opacity="1" stop-color="rgb(39.547729%, 25.759888%, 57.310486%)" offset="0.804688"/><stop stop-opacity="1" stop-color="rgb(38.990784%, 25.42572%, 56.661987%)" offset="0.808594"/><stop stop-opacity="1" stop-color="rgb(38.433838%, 25.093079%, 56.013489%)" offset="0.8125"/><stop stop-opacity="1" stop-color="rgb(37.875366%, 24.758911%, 55.36499%)" offset="0.816406"/><stop stop-opacity="1" stop-color="rgb(37.31842%, 24.42627%, 54.716492%)" offset="0.820312"/><stop stop-opacity="1" stop-color="rgb(36.8927%, 24.172974%, 54.222107%)" offset="0.824219"/><stop stop-opacity="1" stop-color="rgb(36.468506%, 23.919678%, 53.729248%)" offset="0.828125"/><stop stop-opacity="1" stop-color="rgb(36.468506%, 23.919678%, 53.729248%)" offset="0.84375"/><stop stop-opacity="1" stop-color="rgb(36.468506%, 23.919678%, 53.729248%)" offset="0.875"/><stop stop-opacity="1" stop-color="rgb(36.468506%, 23.919678%, 53.729248%)" offset="1"/></linearGradient></defs><g fill="#000000" fill-opacity="1"><g transform="translate(74.334611, 41.077296)"><g><path d="M 8.796875 0.40625 C 7.242188 0.40625 6.085938 0.0546875 5.328125 -0.640625 C 4.566406 -1.347656 4.1875 -2.5625 4.1875 -4.28125 L 4.1875 -19.90625 L 1.265625 -19.90625 L 1.265625 -21.734375 C 1.398438 -21.765625 1.78125 -21.859375 2.40625 -22.015625 C 3.03125 -22.179688 3.445312 -22.332031 3.65625 -22.46875 C 4.09375 -22.707031 4.4375 -23.195312 4.6875 -23.9375 C 4.894531 -24.445312 5.148438 -25.269531 5.453125 -26.40625 C 5.753906 -27.550781 5.929688 -28.234375 5.984375 -28.453125 L 8.390625 -28.453125 L 8.46875 -22.59375 L 15.265625 -22.59375 L 15.265625 -19.90625 L 8.46875 -19.90625 L 8.46875 -7.40625 C 8.46875 -5.863281 8.515625 -4.78125 8.609375 -4.15625 C 8.703125 -3.53125 8.90625 -3.117188 9.21875 -2.921875 C 9.53125 -2.734375 10.066406 -2.640625 10.828125 -2.640625 C 11.554688 -2.640625 12.363281 -2.734375 13.25 -2.921875 C 14.132812 -3.117188 14.816406 -3.328125 15.296875 -3.546875 L 15.921875 -1.703125 C 15.265625 -1.222656 14.207031 -0.75 12.75 -0.28125 C 11.300781 0.175781 9.984375 0.40625 8.796875 0.40625 Z M 8.796875 0.40625 "/></g></g></g><g fill="#000000" fill-opacity="1"><g transform="translate(89.192568, 41.077296)"><g><path d="M 1.828125 -6.109375 C 1.828125 -8.660156 3.101562 -10.535156 5.65625 -11.734375 C 8.207031 -12.941406 11.4375 -13.585938 15.34375 -13.671875 L 15.34375 -14.8125 C 15.34375 -16.09375 15.207031 -17.097656 14.9375 -17.828125 C 14.664062 -18.554688 14.195312 -19.085938 13.53125 -19.421875 C 12.863281 -19.765625 11.921875 -19.9375 10.703125 -19.9375 C 9.316406 -19.9375 8.070312 -19.738281 6.96875 -19.34375 C 5.875 -18.957031 4.785156 -18.476562 3.703125 -17.90625 L 2.6875 -20.03125 C 3.039062 -20.320312 3.691406 -20.710938 4.640625 -21.203125 C 5.585938 -21.691406 6.6875 -22.125 7.9375 -22.5 C 9.1875 -22.882812 10.4375 -23.078125 11.6875 -23.078125 C 13.613281 -23.078125 15.140625 -22.8125 16.265625 -22.28125 C 17.390625 -21.75 18.195312 -20.898438 18.6875 -19.734375 C 19.175781 -18.566406 19.421875 -17.007812 19.421875 -15.0625 L 19.421875 -2 L 21.8125 -2 L 21.8125 -0.203125 C 21.269531 -0.0664062 20.582031 0.0664062 19.75 0.203125 C 18.925781 0.335938 18.203125 0.40625 17.578125 0.40625 C 16.816406 0.40625 16.300781 0.289062 16.03125 0.0625 C 15.757812 -0.164062 15.625 -0.675781 15.625 -1.46875 L 15.625 -2.8125 C 14.8125 -2 13.816406 -1.25 12.640625 -0.5625 C 11.460938 0.113281 10.125 0.453125 8.625 0.453125 C 6.675781 0.453125 5.054688 -0.109375 3.765625 -1.234375 C 2.472656 -2.367188 1.828125 -3.992188 1.828125 -6.109375 Z M 10.375 -2.3125 C 11.082031 -2.3125 11.894531 -2.53125 12.8125 -2.96875 C 13.738281 -3.40625 14.582031 -3.921875 15.34375 -4.515625 L 15.34375 -11.515625 C 12.382812 -11.515625 10.148438 -11.0625 8.640625 -10.15625 C 7.140625 -9.25 6.390625 -8.0625 6.390625 -6.59375 C 6.390625 -5.125 6.75 -4.039062 7.46875 -3.34375 C 8.1875 -2.65625 9.15625 -2.3125 10.375 -2.3125 Z M 10.375 -2.3125 "/></g></g></g><g fill="#000000" fill-opacity="1"><g transform="translate(110.31945, 41.077296)"><g><path d="M 1.34375 -11.15625 C 1.34375 -13.40625 1.78125 -15.4375 2.65625 -17.25 C 3.539062 -19.070312 4.84375 -20.519531 6.5625 -21.59375 C 8.289062 -22.664062 10.363281 -23.203125 12.78125 -23.203125 C 13.945312 -23.203125 14.945312 -23.09375 15.78125 -22.875 C 16.625 -22.65625 17.632812 -22.359375 18.8125 -21.984375 L 18.640625 -15.71875 L 16 -15.71875 L 15.09375 -19.859375 C 14.9375 -20.617188 13.90625 -21 12 -21 C 10.101562 -21 8.601562 -20.234375 7.5 -18.703125 C 6.40625 -17.171875 5.859375 -14.992188 5.859375 -12.171875 C 5.859375 -8.972656 6.472656 -6.535156 7.703125 -4.859375 C 8.941406 -3.191406 10.550781 -2.359375 12.53125 -2.359375 C 13.675781 -2.359375 14.753906 -2.535156 15.765625 -2.890625 C 16.785156 -3.242188 17.660156 -3.664062 18.390625 -4.15625 L 19.171875 -2.53125 C 18.441406 -1.769531 17.363281 -1.082031 15.9375 -0.46875 C 14.507812 0.144531 13.0625 0.453125 11.59375 0.453125 C 9.375 0.453125 7.492188 -0.046875 5.953125 -1.046875 C 4.421875 -2.054688 3.269531 -3.4375 2.5 -5.1875 C 1.726562 -6.9375 1.34375 -8.925781 1.34375 -11.15625 Z M 1.34375 -11.15625 "/></g></g></g><g fill="#000000" fill-opacity="1"><g transform="translate(129.492376, 41.077296)"><g><path d="M 6.640625 -26.65625 C 5.765625 -26.65625 5.109375 -26.898438 4.671875 -27.390625 C 4.242188 -27.878906 4.03125 -28.503906 4.03125 -29.265625 C 4.03125 -30.128906 4.289062 -30.847656 4.8125 -31.421875 C 5.34375 -31.992188 6.070312 -32.28125 7 -32.28125 C 7.925781 -32.28125 8.601562 -32.035156 9.03125 -31.546875 C 9.46875 -31.054688 9.6875 -30.429688 9.6875 -29.671875 C 9.6875 -28.742188 9.421875 -28.007812 8.890625 -27.46875 C 8.359375 -26.925781 7.617188 -26.65625 6.671875 -26.65625 Z M 5 -19.453125 L 1.90625 -20.1875 L 1.90625 -22.34375 L 8.21875 -23.125 L 8.296875 -23.125 L 9.234375 -22.390625 L 9.234375 -2.3125 L 12.5 -2 L 12.5 0 L 1.703125 0 L 1.703125 -2 L 5 -2.359375 Z M 5 -19.453125 "/></g></g></g><g fill="#000000" fill-opacity="1"><g transform="translate(141.337992, 41.077296)"><g><path d="M -0.046875 -22.59375 L 9.40625 -22.59375 L 9.40625 -20.671875 L 6.515625 -20.140625 L 10.625 -8.421875 L 12.328125 -3.25 L 13.796875 -8.265625 L 17.90625 -20.140625 L 15.140625 -20.671875 L 15.140625 -22.59375 L 23.40625 -22.59375 L 23.40625 -20.671875 L 21.28125 -20.140625 L 13.4375 0.328125 L 9.96875 0.328125 L 1.796875 -20.140625 L -0.046875 -20.671875 Z M -0.046875 -22.59375 "/></g></g></g><g fill="#000000" fill-opacity="1"><g transform="translate(162.749822, 41.077296)"><g><path d="M 1.828125 -11.359375 C 1.828125 -13.796875 2.328125 -15.910156 3.328125 -17.703125 C 4.335938 -19.492188 5.660156 -20.859375 7.296875 -21.796875 C 8.941406 -22.734375 10.703125 -23.203125 12.578125 -23.203125 C 15.992188 -23.203125 18.5625 -22.113281 20.28125 -19.9375 C 22.007812 -17.769531 22.875 -14.921875 22.875 -11.390625 C 22.875 -8.921875 22.367188 -6.789062 21.359375 -5 C 20.359375 -3.207031 19.035156 -1.847656 17.390625 -0.921875 C 15.753906 -0.00390625 14 0.453125 12.125 0.453125 C 8.707031 0.453125 6.132812 -0.628906 4.40625 -2.796875 C 2.6875 -4.972656 1.828125 -7.828125 1.828125 -11.359375 Z M 12.375 -1.875 C 14.25 -1.875 15.6875 -2.644531 16.6875 -4.1875 C 17.6875 -5.738281 18.1875 -8.035156 18.1875 -11.078125 C 18.1875 -14.085938 17.722656 -16.472656 16.796875 -18.234375 C 15.878906 -19.992188 14.40625 -20.875 12.375 -20.875 C 10.5 -20.875 9.050781 -20.097656 8.03125 -18.546875 C 7.019531 -17.003906 6.515625 -14.71875 6.515625 -11.6875 C 6.515625 -8.664062 6.988281 -6.273438 7.9375 -4.515625 C 8.882812 -2.753906 10.363281 -1.875 12.375 -1.875 Z M 12.375 -1.875 "/></g></g></g><g fill="#000000" fill-opacity="1"><g transform="translate(185.789949, 41.077296)"><g/></g></g><g fill="#000000" fill-opacity="1"><g transform="translate(193.727672, 41.077296)"><g><path d="M 23.765625 0 C 23.304688 0 22.71875 -0.546875 22 -1.640625 C 21.28125 -2.742188 20.253906 -4.476562 18.921875 -6.84375 C 18.765625 -7.132812 18.3125 -7.9375 17.5625 -9.25 C 16.8125 -10.570312 16.117188 -11.707031 15.484375 -12.65625 C 14.847656 -13.601562 14.285156 -14.347656 13.796875 -14.890625 L 9.6875 -10.25 L 9.6875 -2.40625 L 13.390625 -2 L 13.390625 0 L 1.953125 0 L 1.953125 -2 L 5.328125 -2.40625 L 5.328125 -27.71875 L 2 -28.203125 L 2 -30.25 L 13.0625 -30.25 L 13.0625 -28.203125 L 9.6875 -27.71875 L 9.6875 -13.46875 L 21.65625 -27.71875 L 18.234375 -28.203125 L 18.234375 -30.25 L 28.28125 -30.25 L 28.28125 -28.203125 L 25.15625 -27.71875 L 16.359375 -17.875 C 17.304688 -17.050781 18.316406 -15.863281 19.390625 -14.3125 C 20.460938 -12.769531 21.773438 -10.78125 23.328125 -8.34375 C 24.648438 -6.25 25.617188 -4.757812 26.234375 -3.875 C 26.847656 -3 27.328125 -2.519531 27.671875 -2.4375 L 29.59375 -2 L 29.59375 0 Z M 23.765625 0 "/></g></g></g><g fill="#000000" fill-opacity="1"><g transform="translate(221.571257, 41.077296)"><g><path d="M 5.25 -27.71875 L 1.90625 -28.203125 L 1.90625 -30.25 L 7.40625 -30.25 C 8.332031 -30.25 9.5 -30.300781 10.90625 -30.40625 C 12.207031 -30.507812 13.171875 -30.5625 13.796875 -30.5625 C 17.546875 -30.5625 20.226562 -29.976562 21.84375 -28.8125 C 23.457031 -27.644531 24.265625 -25.9375 24.265625 -23.6875 C 24.265625 -21.757812 23.707031 -20.101562 22.59375 -18.71875 C 21.476562 -17.332031 19.957031 -16.46875 18.03125 -16.125 C 20.632812 -16.175781 22.679688 -15.5625 24.171875 -14.28125 C 25.671875 -13.007812 26.421875 -11.273438 26.421875 -9.078125 C 26.421875 -6.335938 25.445312 -4.097656 23.5 -2.359375 C 21.5625 -0.617188 18.351562 0.25 13.875 0.25 C 12.90625 0.25 11.972656 0.207031 11.078125 0.125 C 8.953125 0.0390625 7.6875 0 7.28125 0 L 1.875 0 L 1.875 -2 L 5.25 -2.40625 Z M 9.5625 -16.890625 C 9.945312 -16.859375 10.722656 -16.84375 11.890625 -16.84375 L 14.125 -16.84375 C 16.019531 -16.84375 17.457031 -17.375 18.4375 -18.4375 C 19.414062 -19.5 19.90625 -21.003906 19.90625 -22.953125 C 19.90625 -24.859375 19.414062 -26.25 18.4375 -27.125 C 17.457031 -28.007812 15.789062 -28.453125 13.4375 -28.453125 C 12.457031 -28.453125 11.453125 -28.394531 10.421875 -28.28125 L 9.5625 -28.203125 Z M 9.5625 -2.28125 C 10.1875 -2.0625 11.597656 -1.953125 13.796875 -1.953125 C 16.535156 -1.953125 18.519531 -2.515625 19.75 -3.640625 C 20.988281 -4.765625 21.609375 -6.382812 21.609375 -8.5 C 21.609375 -10.59375 21.070312 -12.113281 20 -13.0625 C 18.925781 -14.007812 17.195312 -14.484375 14.8125 -14.484375 C 12.050781 -14.484375 10.300781 -14.457031 9.5625 -14.40625 Z M 9.5625 -2.28125 "/></g></g></g><g clip-path="url(#9fb754f7cd)"><g clip-path="url(#7191e40db3)"><path fill="url(#78bf668e87)" d="M 62.582031 42.429688 L 62.582031 12.875 L 11.511719 12.875 L 11.511719 42.429688 Z M 62.582031 42.429688 " fill-rule="nonzero"/></g></g></svg>