<svg xmlns="http://www.w3.org/2000/svg" xmlns:xlink="http://www.w3.org/1999/xlink" width="350" zoomAndPan="magnify" viewBox="0 0 262.5 56.249996" height="75" preserveAspectRatio="xMidYMid meet" version="1.0"><defs><g/><clipPath id="de7ccb07ab"><path d="M 2.277344 7.347656 L 72.589844 7.347656 L 72.589844 48 L 2.277344 48 Z M 2.277344 7.347656 " clip-rule="nonzero"/></clipPath><clipPath id="784f7cfc6f"><path d="M 22.832031 7.503906 C 28.304688 7.503906 33.574219 9.894531 37.410156 14.089844 L 37.527344 13.960938 C 38.476562 12.945312 39.515625 12.035156 40.652344 11.230469 C 41.789062 10.429688 42.992188 9.75 44.269531 9.195312 C 45.542969 8.640625 46.859375 8.21875 48.222656 7.933594 C 49.582031 7.648438 50.960938 7.503906 52.351562 7.503906 C 63.511719 7.503906 72.59375 16.582031 72.59375 27.746094 C 72.59375 38.90625 63.511719 47.988281 52.351562 47.988281 C 50.964844 47.988281 49.597656 47.84375 48.246094 47.554688 C 46.890625 47.265625 45.585938 46.835938 44.324219 46.265625 C 43.0625 45.699219 41.875 45.003906 40.761719 44.179688 C 39.648438 43.359375 38.632812 42.429688 37.71875 41.394531 C 37.554688 41.617188 37.375 41.828125 37.179688 42.023438 C 36.238281 42.972656 35.21875 43.820312 34.109375 44.5625 C 33.003906 45.308594 31.835938 45.9375 30.605469 46.449219 C 29.371094 46.960938 28.101562 47.34375 26.792969 47.605469 C 25.484375 47.863281 24.164062 47.992188 22.832031 47.988281 C 11.667969 47.988281 2.589844 38.90625 2.589844 27.746094 C 2.589844 16.582031 11.667969 7.503906 22.832031 7.503906 Z M 33.0625 32.679688 C 32.675781 31.324219 32.398438 29.992188 32.125 28.683594 C 31.515625 25.796875 31.039062 23.515625 29.582031 21.789062 C 27.796875 19.679688 25.335938 18.46875 22.832031 18.46875 C 22.453125 18.46875 22.074219 18.492188 21.695312 18.539062 C 21.316406 18.585938 20.945312 18.652344 20.574219 18.746094 C 20.207031 18.839844 19.84375 18.953125 19.492188 19.089844 C 19.136719 19.226562 18.789062 19.386719 18.457031 19.566406 C 18.121094 19.742188 17.796875 19.941406 17.488281 20.160156 C 17.175781 20.382812 16.878906 20.617188 16.597656 20.875 C 16.316406 21.128906 16.050781 21.402344 15.804688 21.6875 C 15.554688 21.976562 15.324219 22.277344 15.113281 22.59375 C 14.902344 22.910156 14.710938 23.238281 14.542969 23.578125 C 14.371094 23.917969 14.222656 24.269531 14.09375 24.625 C 13.964844 24.984375 13.859375 25.347656 13.777344 25.71875 C 13.695312 26.089844 13.632812 26.464844 13.597656 26.84375 C 13.558594 27.222656 13.546875 27.601562 13.554688 27.980469 C 13.566406 28.363281 13.597656 28.738281 13.65625 29.117188 C 13.710938 29.492188 13.789062 29.863281 13.890625 30.230469 C 13.992188 30.59375 14.117188 30.953125 14.261719 31.304688 C 14.410156 31.65625 14.578125 31.996094 14.765625 32.328125 C 14.953125 32.660156 15.160156 32.976562 15.386719 33.28125 C 15.613281 33.585938 15.859375 33.875 16.121094 34.152344 C 16.382812 34.425781 16.660156 34.683594 16.957031 34.925781 C 17.25 35.167969 17.558594 35.386719 17.878906 35.589844 C 18.199219 35.792969 18.535156 35.976562 18.878906 36.136719 C 19.222656 36.300781 19.574219 36.441406 19.933594 36.558594 C 20.296875 36.679688 20.664062 36.773438 21.035156 36.847656 C 21.410156 36.921875 21.785156 36.972656 22.164062 37 C 22.542969 37.027344 22.921875 37.03125 23.304688 37.011719 C 23.683594 36.992188 24.058594 36.949219 24.433594 36.882812 C 24.808594 36.816406 25.179688 36.730469 25.542969 36.617188 C 25.90625 36.507812 26.261719 36.375 26.609375 36.21875 C 26.957031 36.066406 27.292969 35.890625 27.617188 35.691406 C 27.941406 35.496094 28.253906 35.28125 28.554688 35.046875 C 28.855469 34.8125 29.136719 34.558594 29.40625 34.289062 C 30.414062 33.273438 31.632812 32.734375 33.0625 32.679688 Z M 52.351562 37.023438 C 52.734375 37.023438 53.117188 37 53.496094 36.953125 C 53.875 36.90625 54.253906 36.835938 54.625 36.742188 C 54.996094 36.648438 55.363281 36.53125 55.71875 36.390625 C 56.078125 36.25 56.425781 36.089844 56.761719 35.910156 C 57.097656 35.726562 57.425781 35.523438 57.738281 35.300781 C 58.050781 35.078125 58.347656 34.835938 58.628906 34.578125 C 58.910156 34.320312 59.175781 34.042969 59.425781 33.75 C 59.671875 33.457031 59.902344 33.152344 60.113281 32.832031 C 60.324219 32.507812 60.511719 32.175781 60.683594 31.832031 C 60.851562 31.488281 60.996094 31.132812 61.121094 30.773438 C 61.246094 30.410156 61.351562 30.039062 61.429688 29.664062 C 61.507812 29.289062 61.566406 28.910156 61.597656 28.527344 C 61.628906 28.148438 61.636719 27.765625 61.625 27.378906 C 61.609375 26.996094 61.570312 26.617188 61.507812 26.238281 C 61.445312 25.859375 61.359375 25.484375 61.25 25.117188 C 61.140625 24.75 61.011719 24.390625 60.859375 24.039062 C 60.703125 23.6875 60.53125 23.347656 60.335938 23.015625 C 60.140625 22.6875 59.925781 22.371094 59.6875 22.066406 C 59.453125 21.761719 59.203125 21.476562 58.929688 21.203125 C 58.660156 20.929688 58.375 20.675781 58.074219 20.441406 C 57.769531 20.203125 57.453125 19.988281 57.125 19.789062 C 56.796875 19.59375 56.457031 19.417969 56.105469 19.261719 C 55.753906 19.105469 55.398438 18.972656 55.03125 18.863281 C 54.660156 18.75 54.289062 18.664062 53.910156 18.601562 C 53.53125 18.535156 53.152344 18.496094 52.769531 18.476562 C 52.386719 18.460938 52.003906 18.464844 51.621094 18.496094 C 51.238281 18.527344 50.859375 18.582031 50.484375 18.660156 C 50.109375 18.734375 49.738281 18.835938 49.375 18.957031 C 49.011719 19.082031 48.65625 19.226562 48.3125 19.394531 C 47.96875 19.5625 47.632812 19.75 47.3125 19.957031 C 46.988281 20.164062 46.679688 20.394531 46.386719 20.640625 C 46.09375 20.886719 45.816406 21.152344 45.554688 21.433594 L 45.488281 21.503906 C 44.585938 22.496094 43.46875 23.078125 42.136719 23.253906 C 42.429688 24.363281 42.648438 25.4375 42.867188 26.4375 C 43.300781 28.492188 43.703125 30.433594 44.488281 31.996094 C 46.042969 35.09375 49.058594 37.023438 52.351562 37.023438 Z M 52.351562 37.023438 " clip-rule="nonzero"/></clipPath><linearGradient x1="-1.770675" gradientTransform="matrix(-0.145712, 0, 0, -0.145712, 74.018703, 62.68882)" y1="352.991138" x2="501.788232" gradientUnits="userSpaceOnUse" y2="126.620429" id="8712dc3bb9"><stop stop-opacity="1" stop-color="rgb(36.468506%, 23.919678%, 53.729248%)" offset="0"/><stop stop-opacity="1" stop-color="rgb(36.468506%, 23.919678%, 53.729248%)" offset="0.0625"/><stop stop-opacity="1" stop-color="rgb(36.468506%, 23.919678%, 53.729248%)" offset="0.09375"/><stop stop-opacity="1" stop-color="rgb(36.468506%, 23.919678%, 53.729248%)" offset="0.109375"/><stop stop-opacity="1" stop-color="rgb(37.185669%, 24.34845%, 54.563904%)" offset="0.113281"/><stop stop-opacity="1" stop-color="rgb(37.904358%, 24.777222%, 55.39856%)" offset="0.117187"/><stop stop-opacity="1" stop-color="rgb(38.691711%, 25.247192%, 56.314087%)" offset="0.121094"/><stop stop-opacity="1" stop-color="rgb(39.479065%, 25.718689%, 57.229614%)" offset="0.125"/><stop stop-opacity="1" stop-color="rgb(40.266418%, 26.18866%, 58.145142%)" offset="0.128906"/><stop stop-opacity="1" stop-color="rgb(41.053772%, 26.660156%, 59.062195%)" offset="0.132812"/><stop stop-opacity="1" stop-color="rgb(41.841125%, 27.130127%, 59.977722%)" offset="0.136719"/><stop stop-opacity="1" stop-color="rgb(42.628479%, 27.601624%, 60.89325%)" offset="0.140625"/><stop stop-opacity="1" stop-color="rgb(43.415833%, 28.071594%, 61.808777%)" offset="0.144531"/><stop stop-opacity="1" stop-color="rgb(44.204712%, 28.543091%, 62.724304%)" offset="0.148437"/><stop stop-opacity="1" stop-color="rgb(44.992065%, 29.013062%, 63.639832%)" offset="0.152344"/><stop stop-opacity="1" stop-color="rgb(45.779419%, 29.484558%, 64.556885%)" offset="0.15625"/><stop stop-opacity="1" stop-color="rgb(46.566772%, 29.954529%, 65.472412%)" offset="0.160156"/><stop stop-opacity="1" stop-color="rgb(47.354126%, 30.426025%, 66.387939%)" offset="0.164062"/><stop stop-opacity="1" stop-color="rgb(48.141479%, 30.895996%, 67.303467%)" offset="0.167969"/><stop stop-opacity="1" stop-color="rgb(48.928833%, 31.367493%, 68.218994%)" offset="0.171875"/><stop stop-opacity="1" stop-color="rgb(49.716187%, 31.838989%, 69.134521%)" offset="0.175781"/><stop stop-opacity="1" stop-color="rgb(50.50354%, 32.310486%, 70.051575%)" offset="0.179688"/><stop stop-opacity="1" stop-color="rgb(51.290894%, 32.780457%, 70.967102%)" offset="0.183594"/><stop stop-opacity="1" stop-color="rgb(52.078247%, 33.251953%, 71.882629%)" offset="0.1875"/><stop stop-opacity="1" stop-color="rgb(52.865601%, 33.721924%, 72.798157%)" offset="0.191406"/><stop stop-opacity="1" stop-color="rgb(53.65448%, 34.19342%, 73.71521%)" offset="0.195312"/><stop stop-opacity="1" stop-color="rgb(54.441833%, 34.663391%, 74.630737%)" offset="0.199219"/><stop stop-opacity="1" stop-color="rgb(55.229187%, 35.134888%, 75.546265%)" offset="0.203125"/><stop stop-opacity="1" stop-color="rgb(56.016541%, 35.604858%, 76.461792%)" offset="0.207031"/><stop stop-opacity="1" stop-color="rgb(56.803894%, 36.076355%, 77.377319%)" offset="0.210938"/><stop stop-opacity="1" stop-color="rgb(57.591248%, 36.546326%, 78.292847%)" offset="0.214844"/><stop stop-opacity="1" stop-color="rgb(58.378601%, 37.017822%, 79.2099%)" offset="0.21875"/><stop stop-opacity="1" stop-color="rgb(59.165955%, 37.487793%, 80.125427%)" offset="0.222656"/><stop stop-opacity="1" stop-color="rgb(59.953308%, 37.95929%, 81.040955%)" offset="0.226562"/><stop stop-opacity="1" stop-color="rgb(60.740662%, 38.42926%, 81.956482%)" offset="0.230469"/><stop stop-opacity="1" stop-color="rgb(61.528015%, 38.900757%, 82.872009%)" offset="0.234375"/><stop stop-opacity="1" stop-color="rgb(62.315369%, 39.370728%, 83.787537%)" offset="0.238281"/><stop stop-opacity="1" stop-color="rgb(63.104248%, 39.842224%, 84.70459%)" offset="0.242187"/><stop stop-opacity="1" stop-color="rgb(63.891602%, 40.312195%, 85.620117%)" offset="0.246094"/><stop stop-opacity="1" stop-color="rgb(64.678955%, 40.783691%, 86.535645%)" offset="0.25"/><stop stop-opacity="1" stop-color="rgb(65.466309%, 41.253662%, 87.451172%)" offset="0.253906"/><stop stop-opacity="1" stop-color="rgb(66.253662%, 41.725159%, 88.366699%)" offset="0.257812"/><stop stop-opacity="1" stop-color="rgb(67.041016%, 42.195129%, 89.282227%)" offset="0.261719"/><stop stop-opacity="1" stop-color="rgb(67.828369%, 42.666626%, 90.19928%)" offset="0.265625"/><stop stop-opacity="1" stop-color="rgb(68.615723%, 43.136597%, 91.114807%)" offset="0.269531"/><stop stop-opacity="1" stop-color="rgb(69.403076%, 43.608093%, 92.030334%)" offset="0.273438"/><stop stop-opacity="1" stop-color="rgb(70.19043%, 44.078064%, 92.945862%)" offset="0.277344"/><stop stop-opacity="1" stop-color="rgb(70.977783%, 44.549561%, 93.862915%)" offset="0.28125"/><stop stop-opacity="1" stop-color="rgb(71.763611%, 45.019531%, 94.773865%)" offset="0.285156"/><stop stop-opacity="1" stop-color="rgb(72.550964%, 45.489502%, 95.684814%)" offset="0.289063"/><stop stop-opacity="1" stop-color="rgb(72.927856%, 45.440674%, 94.767761%)" offset="0.292969"/><stop stop-opacity="1" stop-color="rgb(73.306274%, 45.391846%, 93.852234%)" offset="0.296875"/><stop stop-opacity="1" stop-color="rgb(73.683167%, 45.343018%, 92.935181%)" offset="0.300781"/><stop stop-opacity="1" stop-color="rgb(74.060059%, 45.294189%, 92.019653%)" offset="0.304688"/><stop stop-opacity="1" stop-color="rgb(74.436951%, 45.245361%, 91.1026%)" offset="0.308594"/><stop stop-opacity="1" stop-color="rgb(74.813843%, 45.198059%, 90.187073%)" offset="0.3125"/><stop stop-opacity="1" stop-color="rgb(75.190735%, 45.149231%, 89.27002%)" offset="0.316406"/><stop stop-opacity="1" stop-color="rgb(75.569153%, 45.100403%, 88.354492%)" offset="0.320312"/><stop stop-opacity="1" stop-color="rgb(75.946045%, 45.051575%, 87.437439%)" offset="0.324219"/><stop stop-opacity="1" stop-color="rgb(76.322937%, 45.004272%, 86.521912%)" offset="0.328125"/><stop stop-opacity="1" stop-color="rgb(76.699829%, 44.955444%, 85.606384%)" offset="0.332031"/><stop stop-opacity="1" stop-color="rgb(77.078247%, 44.906616%, 84.690857%)" offset="0.335937"/><stop stop-opacity="1" stop-color="rgb(77.455139%, 44.857788%, 83.773804%)" offset="0.339844"/><stop stop-opacity="1" stop-color="rgb(77.832031%, 44.810486%, 82.858276%)" offset="0.34375"/><stop stop-opacity="1" stop-color="rgb(78.208923%, 44.761658%, 81.941223%)" offset="0.347656"/><stop stop-opacity="1" stop-color="rgb(78.587341%, 44.71283%, 81.025696%)" offset="0.351563"/><stop stop-opacity="1" stop-color="rgb(78.964233%, 44.664001%, 80.108643%)" offset="0.355469"/><stop stop-opacity="1" stop-color="rgb(79.341125%, 44.615173%, 79.193115%)" offset="0.359375"/><stop stop-opacity="1" stop-color="rgb(79.718018%, 44.566345%, 78.276062%)" offset="0.363281"/><stop stop-opacity="1" stop-color="rgb(80.09491%, 44.519043%, 77.360535%)" offset="0.367188"/><stop stop-opacity="1" stop-color="rgb(80.471802%, 44.470215%, 76.443481%)" offset="0.371094"/><stop stop-opacity="1" stop-color="rgb(80.85022%, 44.421387%, 75.527954%)" offset="0.375"/><stop stop-opacity="1" stop-color="rgb(81.227112%, 44.372559%, 74.610901%)" offset="0.378906"/><stop stop-opacity="1" stop-color="rgb(81.604004%, 44.325256%, 73.695374%)" offset="0.382812"/><stop stop-opacity="1" stop-color="rgb(81.980896%, 44.276428%, 72.77832%)" offset="0.386719"/><stop stop-opacity="1" stop-color="rgb(82.359314%, 44.2276%, 71.862793%)" offset="0.390625"/><stop stop-opacity="1" stop-color="rgb(82.736206%, 44.178772%, 70.947266%)" offset="0.394531"/><stop stop-opacity="1" stop-color="rgb(83.113098%, 44.13147%, 70.031738%)" offset="0.398438"/><stop stop-opacity="1" stop-color="rgb(83.48999%, 44.082642%, 69.114685%)" offset="0.402344"/><stop stop-opacity="1" stop-color="rgb(83.868408%, 44.033813%, 68.199158%)" offset="0.40625"/><stop stop-opacity="1" stop-color="rgb(84.2453%, 43.984985%, 67.282104%)" offset="0.410156"/><stop stop-opacity="1" stop-color="rgb(84.622192%, 43.936157%, 66.366577%)" offset="0.414063"/><stop stop-opacity="1" stop-color="rgb(84.999084%, 43.887329%, 65.449524%)" offset="0.417969"/><stop stop-opacity="1" stop-color="rgb(85.377502%, 43.840027%, 64.533997%)" offset="0.421875"/><stop stop-opacity="1" stop-color="rgb(85.754395%, 43.791199%, 63.616943%)" offset="0.425781"/><stop stop-opacity="1" stop-color="rgb(86.131287%, 43.742371%, 62.701416%)" offset="0.429688"/><stop stop-opacity="1" stop-color="rgb(86.508179%, 43.693542%, 61.784363%)" offset="0.433594"/><stop stop-opacity="1" stop-color="rgb(86.885071%, 43.64624%, 60.868835%)" offset="0.4375"/><stop stop-opacity="1" stop-color="rgb(87.261963%, 43.597412%, 59.951782%)" offset="0.441406"/><stop stop-opacity="1" stop-color="rgb(87.640381%, 43.548584%, 59.036255%)" offset="0.445312"/><stop stop-opacity="1" stop-color="rgb(88.017273%, 43.499756%, 58.120728%)" offset="0.449219"/><stop stop-opacity="1" stop-color="rgb(88.394165%, 43.450928%, 57.2052%)" offset="0.453125"/><stop stop-opacity="1" stop-color="rgb(88.771057%, 43.4021%, 56.288147%)" offset="0.457031"/><stop stop-opacity="1" stop-color="rgb(89.149475%, 43.354797%, 55.37262%)" offset="0.460938"/><stop stop-opacity="1" stop-color="rgb(89.526367%, 43.305969%, 54.455566%)" offset="0.464844"/><stop stop-opacity="1" stop-color="rgb(89.903259%, 43.257141%, 53.540039%)" offset="0.46875"/><stop stop-opacity="1" stop-color="rgb(90.280151%, 43.208313%, 52.622986%)" offset="0.472656"/><stop stop-opacity="1" stop-color="rgb(90.658569%, 43.161011%, 51.707458%)" offset="0.476562"/><stop stop-opacity="1" stop-color="rgb(91.035461%, 43.112183%, 50.790405%)" offset="0.480469"/><stop stop-opacity="1" stop-color="rgb(91.412354%, 43.063354%, 49.874878%)" offset="0.484375"/><stop stop-opacity="1" stop-color="rgb(91.789246%, 43.014526%, 48.957825%)" offset="0.488281"/><stop stop-opacity="1" stop-color="rgb(92.166138%, 42.967224%, 48.042297%)" offset="0.492187"/><stop stop-opacity="1" stop-color="rgb(92.54303%, 42.918396%, 47.125244%)" offset="0.496094"/><stop stop-opacity="1" stop-color="rgb(92.921448%, 42.869568%, 46.209717%)" offset="0.5"/><stop stop-opacity="1" stop-color="rgb(93.29834%, 42.82074%, 45.292664%)" offset="0.503906"/><stop stop-opacity="1" stop-color="rgb(93.675232%, 42.771912%, 44.377136%)" offset="0.507812"/><stop stop-opacity="1" stop-color="rgb(94.052124%, 42.723083%, 43.461609%)" offset="0.511719"/><stop stop-opacity="1" stop-color="rgb(94.430542%, 42.675781%, 42.546082%)" offset="0.515625"/><stop stop-opacity="1" stop-color="rgb(94.807434%, 42.626953%, 41.629028%)" offset="0.519531"/><stop stop-opacity="1" stop-color="rgb(95.184326%, 42.578125%, 40.713501%)" offset="0.523438"/><stop stop-opacity="1" stop-color="rgb(95.561218%, 42.529297%, 39.796448%)" offset="0.527344"/><stop stop-opacity="1" stop-color="rgb(95.939636%, 42.481995%, 38.88092%)" offset="0.53125"/><stop stop-opacity="1" stop-color="rgb(96.316528%, 42.433167%, 37.963867%)" offset="0.535156"/><stop stop-opacity="1" stop-color="rgb(96.69342%, 42.384338%, 37.04834%)" offset="0.539062"/><stop stop-opacity="1" stop-color="rgb(97.070312%, 42.33551%, 36.131287%)" offset="0.542969"/><stop stop-opacity="1" stop-color="rgb(97.447205%, 42.286682%, 35.215759%)" offset="0.546875"/><stop stop-opacity="1" stop-color="rgb(97.824097%, 42.237854%, 34.298706%)" offset="0.550781"/><stop stop-opacity="1" stop-color="rgb(98.202515%, 42.190552%, 33.383179%)" offset="0.554688"/><stop stop-opacity="1" stop-color="rgb(98.579407%, 42.141724%, 32.466125%)" offset="0.558594"/><stop stop-opacity="1" stop-color="rgb(98.956299%, 42.092896%, 31.550598%)" offset="0.5625"/><stop stop-opacity="1" stop-color="rgb(99.333191%, 42.044067%, 30.633545%)" offset="0.566406"/><stop stop-opacity="1" stop-color="rgb(99.711609%, 41.996765%, 29.718018%)" offset="0.570312"/><stop stop-opacity="1" stop-color="rgb(99.435425%, 41.775513%, 29.240417%)" offset="0.574219"/><stop stop-opacity="1" stop-color="rgb(99.159241%, 41.55426%, 28.764343%)" offset="0.578125"/><stop stop-opacity="1" stop-color="rgb(98.480225%, 41.226196%, 28.55835%)" offset="0.582031"/><stop stop-opacity="1" stop-color="rgb(97.801208%, 40.899658%, 28.352356%)" offset="0.585937"/><stop stop-opacity="1" stop-color="rgb(97.122192%, 40.571594%, 28.146362%)" offset="0.589844"/><stop stop-opacity="1" stop-color="rgb(96.443176%, 40.245056%, 27.940369%)" offset="0.59375"/><stop stop-opacity="1" stop-color="rgb(95.76416%, 39.916992%, 27.734375%)" offset="0.597656"/><stop stop-opacity="1" stop-color="rgb(95.085144%, 39.588928%, 27.528381%)" offset="0.601562"/><stop stop-opacity="1" stop-color="rgb(94.406128%, 39.260864%, 27.322388%)" offset="0.605469"/><stop stop-opacity="1" stop-color="rgb(93.727112%, 38.934326%, 27.116394%)" offset="0.609375"/><stop stop-opacity="1" stop-color="rgb(93.048096%, 38.606262%, 26.908875%)" offset="0.613281"/><stop stop-opacity="1" stop-color="rgb(92.36908%, 38.279724%, 26.702881%)" offset="0.617187"/><stop stop-opacity="1" stop-color="rgb(91.690063%, 37.95166%, 26.496887%)" offset="0.621094"/><stop stop-opacity="1" stop-color="rgb(91.011047%, 37.625122%, 26.290894%)" offset="0.625"/><stop stop-opacity="1" stop-color="rgb(90.332031%, 37.297058%, 26.0849%)" offset="0.628906"/><stop stop-opacity="1" stop-color="rgb(89.653015%, 36.97052%, 25.878906%)" offset="0.632813"/><stop stop-opacity="1" stop-color="rgb(88.973999%, 36.642456%, 25.672913%)" offset="0.636719"/><stop stop-opacity="1" stop-color="rgb(88.294983%, 36.315918%, 25.466919%)" offset="0.640625"/><stop stop-opacity="1" stop-color="rgb(87.615967%, 35.987854%, 25.260925%)" offset="0.644531"/><stop stop-opacity="1" stop-color="rgb(86.936951%, 35.65979%, 25.054932%)" offset="0.648438"/><stop stop-opacity="1" stop-color="rgb(86.257935%, 35.331726%, 24.848938%)" offset="0.652344"/><stop stop-opacity="1" stop-color="rgb(85.578918%, 35.005188%, 24.642944%)" offset="0.65625"/><stop stop-opacity="1" stop-color="rgb(84.899902%, 34.677124%, 24.436951%)" offset="0.660156"/><stop stop-opacity="1" stop-color="rgb(84.220886%, 34.350586%, 24.230957%)" offset="0.664062"/><stop stop-opacity="1" stop-color="rgb(83.54187%, 34.022522%, 24.024963%)" offset="0.667969"/><stop stop-opacity="1" stop-color="rgb(82.862854%, 33.695984%, 23.81897%)" offset="0.671875"/><stop stop-opacity="1" stop-color="rgb(82.183838%, 33.36792%, 23.612976%)" offset="0.675781"/><stop stop-opacity="1" stop-color="rgb(81.504822%, 33.041382%, 23.406982%)" offset="0.679688"/><stop stop-opacity="1" stop-color="rgb(80.825806%, 32.713318%, 23.199463%)" offset="0.683594"/><stop stop-opacity="1" stop-color="rgb(80.148315%, 32.385254%, 22.993469%)" offset="0.6875"/><stop stop-opacity="1" stop-color="rgb(79.469299%, 32.05719%, 22.787476%)" offset="0.691406"/><stop stop-opacity="1" stop-color="rgb(78.790283%, 31.730652%, 22.581482%)" offset="0.695312"/><stop stop-opacity="1" stop-color="rgb(78.111267%, 31.402588%, 22.375488%)" offset="0.699219"/><stop stop-opacity="1" stop-color="rgb(77.432251%, 31.07605%, 22.169495%)" offset="0.703125"/><stop stop-opacity="1" stop-color="rgb(76.753235%, 30.747986%, 21.963501%)" offset="0.707031"/><stop stop-opacity="1" stop-color="rgb(76.074219%, 30.421448%, 21.757507%)" offset="0.710938"/><stop stop-opacity="1" stop-color="rgb(75.395203%, 30.093384%, 21.551514%)" offset="0.714844"/><stop stop-opacity="1" stop-color="rgb(74.716187%, 29.766846%, 21.34552%)" offset="0.71875"/><stop stop-opacity="1" stop-color="rgb(74.03717%, 29.438782%, 21.139526%)" offset="0.722656"/><stop stop-opacity="1" stop-color="rgb(73.358154%, 29.112244%, 20.933533%)" offset="0.726562"/><stop stop-opacity="1" stop-color="rgb(72.679138%, 28.78418%, 20.727539%)" offset="0.730469"/><stop stop-opacity="1" stop-color="rgb(72.000122%, 28.456116%, 20.521545%)" offset="0.734375"/><stop stop-opacity="1" stop-color="rgb(71.321106%, 28.128052%, 20.315552%)" offset="0.738281"/><stop stop-opacity="1" stop-color="rgb(70.64209%, 27.801514%, 20.109558%)" offset="0.742187"/><stop stop-opacity="1" stop-color="rgb(69.963074%, 27.47345%, 19.903564%)" offset="0.746094"/><stop stop-opacity="1" stop-color="rgb(69.284058%, 27.146912%, 19.697571%)" offset="0.75"/><stop stop-opacity="1" stop-color="rgb(68.605042%, 26.818848%, 19.490051%)" offset="0.753906"/><stop stop-opacity="1" stop-color="rgb(67.926025%, 26.49231%, 19.284058%)" offset="0.757813"/><stop stop-opacity="1" stop-color="rgb(67.247009%, 26.164246%, 19.078064%)" offset="0.761719"/><stop stop-opacity="1" stop-color="rgb(66.567993%, 25.837708%, 18.87207%)" offset="0.765625"/><stop stop-opacity="1" stop-color="rgb(65.888977%, 25.509644%, 18.666077%)" offset="0.769531"/><stop stop-opacity="1" stop-color="rgb(65.209961%, 25.18158%, 18.460083%)" offset="0.773438"/><stop stop-opacity="1" stop-color="rgb(64.530945%, 24.853516%, 18.254089%)" offset="0.777344"/><stop stop-opacity="1" stop-color="rgb(63.851929%, 24.526978%, 18.048096%)" offset="0.78125"/><stop stop-opacity="1" stop-color="rgb(63.172913%, 24.198914%, 17.842102%)" offset="0.785156"/><stop stop-opacity="1" stop-color="rgb(62.493896%, 23.872375%, 17.636108%)" offset="0.789063"/><stop stop-opacity="1" stop-color="rgb(61.81488%, 23.544312%, 17.430115%)" offset="0.792969"/><stop stop-opacity="1" stop-color="rgb(61.135864%, 23.217773%, 17.224121%)" offset="0.796875"/><stop stop-opacity="1" stop-color="rgb(60.456848%, 22.889709%, 17.018127%)" offset="0.800781"/><stop stop-opacity="1" stop-color="rgb(59.777832%, 22.563171%, 16.812134%)" offset="0.804688"/><stop stop-opacity="1" stop-color="rgb(59.098816%, 22.235107%, 16.60614%)" offset="0.808594"/><stop stop-opacity="1" stop-color="rgb(58.4198%, 21.908569%, 16.400146%)" offset="0.8125"/><stop stop-opacity="1" stop-color="rgb(57.740784%, 21.580505%, 16.192627%)" offset="0.816406"/><stop stop-opacity="1" stop-color="rgb(57.061768%, 21.252441%, 15.986633%)" offset="0.820312"/><stop stop-opacity="1" stop-color="rgb(56.570435%, 21.01593%, 15.837097%)" offset="0.824219"/><stop stop-opacity="1" stop-color="rgb(56.079102%, 20.779419%, 15.689087%)" offset="0.828125"/><stop stop-opacity="1" stop-color="rgb(56.079102%, 20.779419%, 15.689087%)" offset="0.84375"/><stop stop-opacity="1" stop-color="rgb(56.079102%, 20.779419%, 15.689087%)" offset="0.875"/><stop stop-opacity="1" stop-color="rgb(56.079102%, 20.779419%, 15.689087%)" offset="1"/></linearGradient></defs><g clip-path="url(#de7ccb07ab)"><g clip-path="url(#784f7cfc6f)"><path fill="url(#8712dc3bb9)" d="M 72.589844 47.992188 L 72.589844 7.503906 L 2.589844 7.503906 L 2.589844 47.992188 Z M 72.589844 47.992188 " fill-rule="nonzero"/></g></g><g fill="#000000" fill-opacity="1"><g transform="translate(89.597907, 37.376639)"><g><path d="M 15.390625 0 L 11.234375 0 C 10.617188 0 9.988281 -0.0546875 9.34375 -0.171875 C 8.707031 -0.285156 8.097656 -0.492188 7.515625 -0.796875 C 6.929688 -1.097656 6.410156 -1.535156 5.953125 -2.109375 C 5.492188 -2.691406 5.128906 -3.441406 4.859375 -4.359375 C 4.585938 -5.285156 4.453125 -6.421875 4.453125 -7.765625 L 4.453125 -16.296875 L 0.21875 -16.296875 L 0.21875 -20.4375 L 4.453125 -20.4375 L 4.453125 -26.40625 L 9.265625 -26.453125 L 9.265625 -20.4375 L 15.390625 -20.4375 L 15.390625 -16.296875 L 9.265625 -16.296875 L 9.265625 -7.546875 C 9.265625 -6.597656 9.398438 -5.863281 9.671875 -5.34375 C 9.953125 -4.832031 10.320312 -4.476562 10.78125 -4.28125 C 11.238281 -4.09375 11.71875 -4 12.21875 -4 L 15.390625 -4 Z M 15.390625 0 "/></g></g></g><g fill="#000000" fill-opacity="1"><g transform="translate(104.345809, 37.376639)"><g><path d="M 10.984375 0.609375 C 9.609375 0.609375 8.332031 0.332031 7.15625 -0.21875 C 5.988281 -0.769531 4.96875 -1.539062 4.09375 -2.53125 C 3.226562 -3.53125 2.554688 -4.6875 2.078125 -6 C 1.609375 -7.3125 1.375 -8.71875 1.375 -10.21875 C 1.375 -11.71875 1.613281 -13.117188 2.09375 -14.421875 C 2.582031 -15.722656 3.257812 -16.867188 4.125 -17.859375 C 4.988281 -18.859375 6.003906 -19.640625 7.171875 -20.203125 C 8.335938 -20.765625 9.601562 -21.046875 10.96875 -21.046875 C 12.632812 -21.046875 14.117188 -20.679688 15.421875 -19.953125 C 16.722656 -19.234375 17.695312 -18.238281 18.34375 -16.96875 L 18.34375 -20.4375 L 22.921875 -20.4375 L 22.921875 0 L 18.34375 0 L 18.34375 -3.4375 C 17.675781 -2.164062 16.695312 -1.171875 15.40625 -0.453125 C 14.113281 0.253906 12.640625 0.609375 10.984375 0.609375 Z M 12.140625 -3.828125 C 12.972656 -3.828125 13.753906 -3.988281 14.484375 -4.3125 C 15.210938 -4.644531 15.851562 -5.097656 16.40625 -5.671875 C 16.957031 -6.242188 17.382812 -6.914062 17.6875 -7.6875 C 17.988281 -8.46875 18.140625 -9.3125 18.140625 -10.21875 C 18.140625 -11.101562 17.984375 -11.929688 17.671875 -12.703125 C 17.367188 -13.484375 16.941406 -14.164062 16.390625 -14.75 C 15.847656 -15.332031 15.210938 -15.785156 14.484375 -16.109375 C 13.753906 -16.429688 12.972656 -16.59375 12.140625 -16.59375 C 11.046875 -16.59375 10.039062 -16.328125 9.125 -15.796875 C 8.21875 -15.265625 7.492188 -14.519531 6.953125 -13.5625 C 6.410156 -12.613281 6.140625 -11.5 6.140625 -10.21875 C 6.140625 -8.894531 6.414062 -7.753906 6.96875 -6.796875 C 7.519531 -5.835938 8.25 -5.101562 9.15625 -4.59375 C 10.070312 -4.082031 11.066406 -3.828125 12.140625 -3.828125 Z M 12.140625 -3.828125 "/></g></g></g><g fill="#000000" fill-opacity="1"><g transform="translate(128.376073, 37.376639)"><g><path d="M 11.921875 0.609375 C 10.398438 0.609375 8.992188 0.328125 7.703125 -0.234375 C 6.421875 -0.796875 5.304688 -1.570312 4.359375 -2.5625 C 3.410156 -3.550781 2.675781 -4.703125 2.15625 -6.015625 C 1.632812 -7.328125 1.375 -8.726562 1.375 -10.21875 C 1.375 -11.695312 1.632812 -13.085938 2.15625 -14.390625 C 2.675781 -15.703125 3.410156 -16.859375 4.359375 -17.859375 C 5.304688 -18.859375 6.421875 -19.640625 7.703125 -20.203125 C 8.992188 -20.765625 10.398438 -21.046875 11.921875 -21.046875 C 13.679688 -21.046875 15.253906 -20.703125 16.640625 -20.015625 C 18.023438 -19.335938 19.1875 -18.410156 20.125 -17.234375 C 21.0625 -16.054688 21.71875 -14.71875 22.09375 -13.21875 L 17.1875 -13.21875 C 16.738281 -14.351562 16.039062 -15.195312 15.09375 -15.75 C 14.15625 -16.300781 13.101562 -16.578125 11.9375 -16.578125 C 11.195312 -16.578125 10.484375 -16.429688 9.796875 -16.140625 C 9.109375 -15.859375 8.488281 -15.445312 7.9375 -14.90625 C 7.382812 -14.363281 6.945312 -13.695312 6.625 -12.90625 C 6.300781 -12.113281 6.140625 -11.21875 6.140625 -10.21875 C 6.140625 -9.207031 6.300781 -8.304688 6.625 -7.515625 C 6.945312 -6.734375 7.382812 -6.066406 7.9375 -5.515625 C 8.488281 -4.960938 9.109375 -4.539062 9.796875 -4.25 C 10.492188 -3.96875 11.207031 -3.828125 11.9375 -3.828125 C 13.101562 -3.828125 14.15625 -4.113281 15.09375 -4.6875 C 16.039062 -5.269531 16.738281 -6.195312 17.1875 -7.46875 L 22.078125 -7.46875 C 21.734375 -5.894531 21.085938 -4.5 20.140625 -3.28125 C 19.203125 -2.0625 18.035156 -1.109375 16.640625 -0.421875 C 15.242188 0.265625 13.671875 0.609375 11.921875 0.609375 Z M 11.921875 0.609375 "/></g></g></g><g fill="#000000" fill-opacity="1"><g transform="translate(149.822382, 37.376639)"><g><path d="M 5.1875 -23.609375 C 4.257812 -23.609375 3.53125 -23.875 3 -24.40625 C 2.476562 -24.945312 2.21875 -25.601562 2.21875 -26.375 C 2.21875 -27.113281 2.476562 -27.753906 3 -28.296875 C 3.53125 -28.835938 4.265625 -29.109375 5.203125 -29.109375 C 6.171875 -29.109375 6.914062 -28.835938 7.4375 -28.296875 C 7.96875 -27.753906 8.234375 -27.113281 8.234375 -26.375 C 8.234375 -25.601562 7.96875 -24.945312 7.4375 -24.40625 C 6.914062 -23.875 6.164062 -23.609375 5.1875 -23.609375 Z M 7.625 0 L 2.828125 0 L 2.828125 -20.4375 L 7.625 -20.4375 Z M 7.625 0 "/></g></g></g><g fill="#000000" fill-opacity="1"><g transform="translate(158.54768, 37.376639)"><g><path d="M 12.8125 0 L 8.34375 0 L 0.203125 -20.4375 L 5.3125 -20.4375 L 10.0625 -8.09375 L 10.59375 -5.9375 L 11.109375 -8.0625 L 15.859375 -20.4375 L 21 -20.4375 Z M 12.8125 0 "/></g></g></g><g fill="#000000" fill-opacity="1"><g transform="translate(178.026207, 37.376639)"><g><path d="M 12.109375 0.609375 C 10.554688 0.609375 9.125 0.332031 7.8125 -0.21875 C 6.5 -0.769531 5.363281 -1.539062 4.40625 -2.53125 C 3.445312 -3.53125 2.703125 -4.6875 2.171875 -6 C 1.640625 -7.3125 1.375 -8.71875 1.375 -10.21875 C 1.375 -11.71875 1.640625 -13.117188 2.171875 -14.421875 C 2.703125 -15.722656 3.445312 -16.867188 4.40625 -17.859375 C 5.363281 -18.859375 6.5 -19.640625 7.8125 -20.203125 C 9.125 -20.765625 10.5625 -21.046875 12.125 -21.046875 C 13.695312 -21.046875 15.140625 -20.765625 16.453125 -20.203125 C 17.765625 -19.640625 18.90625 -18.859375 19.875 -17.859375 C 20.84375 -16.867188 21.59375 -15.722656 22.125 -14.421875 C 22.65625 -13.117188 22.921875 -11.71875 22.921875 -10.21875 C 22.921875 -8.707031 22.65625 -7.296875 22.125 -5.984375 C 21.59375 -4.679688 20.84375 -3.53125 19.875 -2.53125 C 18.90625 -1.539062 17.757812 -0.769531 16.4375 -0.21875 C 15.125 0.332031 13.679688 0.609375 12.109375 0.609375 Z M 12.140625 -3.859375 C 13.296875 -3.859375 14.320312 -4.128906 15.21875 -4.671875 C 16.125 -5.222656 16.835938 -5.976562 17.359375 -6.9375 C 17.878906 -7.894531 18.140625 -8.988281 18.140625 -10.21875 C 18.140625 -11.445312 17.878906 -12.539062 17.359375 -13.5 C 16.835938 -14.46875 16.125 -15.222656 15.21875 -15.765625 C 14.320312 -16.316406 13.296875 -16.59375 12.140625 -16.59375 C 11.003906 -16.59375 9.984375 -16.316406 9.078125 -15.765625 C 8.171875 -15.222656 7.453125 -14.46875 6.921875 -13.5 C 6.398438 -12.539062 6.140625 -11.445312 6.140625 -10.21875 C 6.140625 -8.988281 6.398438 -7.894531 6.921875 -6.9375 C 7.453125 -5.976562 8.171875 -5.222656 9.078125 -4.671875 C 9.984375 -4.128906 11.003906 -3.859375 12.140625 -3.859375 Z M 12.140625 -3.859375 "/></g></g></g><g fill="#000000" fill-opacity="1"><g transform="translate(200.605481, 37.376639)"><g/></g></g><g fill="#000000" fill-opacity="1"><g transform="translate(208.816902, 37.376639)"><g><path d="M 25.8125 0 L 23.3125 0 L 20.390625 -6.84375 L 5.75 -6.84375 L 2.828125 0 L 0.34375 0 L 11.90625 -27.03125 L 14.234375 -27.03125 Z M 12.984375 -23.765625 L 6.625 -8.890625 L 19.515625 -8.890625 L 13.15625 -23.765625 L 13.078125 -24.0625 L 13.0625 -24.0625 Z M 12.984375 -23.765625 "/></g></g></g><g fill="#000000" fill-opacity="1"><g transform="translate(233.244697, 37.376639)"><g><path d="M 6.40625 0 L 4.046875 0 L 4.046875 -27.03125 L 6.40625 -27.03125 Z M 6.40625 0 "/></g></g></g></svg>