<svg xmlns="http://www.w3.org/2000/svg" xmlns:xlink="http://www.w3.org/1999/xlink" width="350" zoomAndPan="magnify" viewBox="0 0 262.5 56.249996" height="75" preserveAspectRatio="xMidYMid meet" version="1.0"><defs><g/><clipPath id="7d93762cf1"><path d="M 22.574219 7.347656 L 92.886719 7.347656 L 92.886719 48 L 22.574219 48 Z M 22.574219 7.347656 " clip-rule="nonzero"/></clipPath><clipPath id="f999a6af0c"><path d="M 43.128906 7.503906 C 48.601562 7.503906 53.871094 9.894531 57.707031 14.089844 L 57.824219 13.960938 C 58.773438 12.945312 59.8125 12.035156 60.949219 11.230469 C 62.085938 10.429688 63.289062 9.75 64.566406 9.195312 C 65.839844 8.640625 67.15625 8.21875 68.519531 7.933594 C 69.878906 7.648438 71.257812 7.503906 72.648438 7.503906 C 83.808594 7.503906 92.890625 16.582031 92.890625 27.746094 C 92.890625 38.90625 83.808594 47.988281 72.648438 47.988281 C 71.261719 47.988281 69.894531 47.84375 68.542969 47.554688 C 67.191406 47.265625 65.882812 46.835938 64.621094 46.265625 C 63.359375 45.699219 62.171875 45.003906 61.058594 44.179688 C 59.945312 43.359375 58.929688 42.429688 58.015625 41.394531 C 57.851562 41.617188 57.671875 41.828125 57.476562 42.023438 C 56.535156 42.972656 55.515625 43.820312 54.40625 44.5625 C 53.300781 45.308594 52.132812 45.9375 50.902344 46.449219 C 49.667969 46.960938 48.398438 47.34375 47.089844 47.605469 C 45.78125 47.863281 44.460938 47.992188 43.128906 47.988281 C 31.96875 47.988281 22.886719 38.90625 22.886719 27.746094 C 22.886719 16.582031 31.964844 7.503906 43.128906 7.503906 Z M 53.359375 32.679688 C 52.972656 31.324219 52.695312 29.992188 52.421875 28.683594 C 51.8125 25.796875 51.335938 23.515625 49.878906 21.789062 C 48.097656 19.679688 45.632812 18.46875 43.128906 18.46875 C 42.75 18.46875 42.371094 18.492188 41.992188 18.539062 C 41.613281 18.585938 41.242188 18.652344 40.871094 18.746094 C 40.503906 18.839844 40.140625 18.953125 39.789062 19.089844 C 39.433594 19.226562 39.089844 19.386719 38.753906 19.566406 C 38.417969 19.742188 38.09375 19.941406 37.785156 20.160156 C 37.472656 20.382812 37.175781 20.617188 36.894531 20.875 C 36.613281 21.128906 36.347656 21.402344 36.101562 21.6875 C 35.851562 21.976562 35.621094 22.277344 35.410156 22.59375 C 35.199219 22.910156 35.007812 23.238281 34.839844 23.578125 C 34.667969 23.917969 34.519531 24.269531 34.390625 24.625 C 34.261719 24.984375 34.15625 25.347656 34.074219 25.71875 C 33.992188 26.089844 33.929688 26.464844 33.894531 26.84375 C 33.859375 27.222656 33.84375 27.601562 33.855469 27.980469 C 33.863281 28.363281 33.894531 28.738281 33.953125 29.117188 C 34.007812 29.492188 34.085938 29.863281 34.1875 30.230469 C 34.289062 30.59375 34.414062 30.953125 34.5625 31.304688 C 34.707031 31.65625 34.875 31.996094 35.0625 32.328125 C 35.25 32.660156 35.457031 32.976562 35.683594 33.28125 C 35.910156 33.585938 36.15625 33.875 36.417969 34.152344 C 36.679688 34.425781 36.957031 34.683594 37.253906 34.925781 C 37.546875 35.167969 37.855469 35.386719 38.175781 35.589844 C 38.496094 35.792969 38.832031 35.976562 39.175781 36.136719 C 39.519531 36.300781 39.871094 36.441406 40.230469 36.558594 C 40.59375 36.679688 40.960938 36.773438 41.332031 36.847656 C 41.707031 36.921875 42.082031 36.972656 42.460938 37 C 42.839844 37.027344 43.21875 37.03125 43.601562 37.011719 C 43.980469 36.992188 44.355469 36.949219 44.730469 36.882812 C 45.105469 36.816406 45.476562 36.730469 45.839844 36.617188 C 46.203125 36.507812 46.558594 36.375 46.90625 36.21875 C 47.253906 36.066406 47.589844 35.890625 47.914062 35.691406 C 48.238281 35.496094 48.550781 35.28125 48.851562 35.046875 C 49.152344 34.8125 49.433594 34.558594 49.703125 34.289062 C 50.710938 33.273438 51.929688 32.734375 53.359375 32.679688 Z M 72.648438 37.023438 C 73.03125 37.023438 73.414062 37 73.792969 36.953125 C 74.175781 36.90625 74.550781 36.835938 74.921875 36.742188 C 75.292969 36.648438 75.660156 36.53125 76.015625 36.390625 C 76.375 36.25 76.722656 36.089844 77.058594 35.910156 C 77.394531 35.726562 77.722656 35.523438 78.035156 35.300781 C 78.347656 35.078125 78.644531 34.835938 78.925781 34.578125 C 79.207031 34.320312 79.472656 34.042969 79.722656 33.75 C 79.96875 33.457031 80.199219 33.152344 80.410156 32.832031 C 80.621094 32.507812 80.808594 32.175781 80.980469 31.832031 C 81.148438 31.488281 81.292969 31.132812 81.421875 30.773438 C 81.546875 30.410156 81.648438 30.039062 81.726562 29.664062 C 81.804688 29.289062 81.863281 28.910156 81.894531 28.527344 C 81.925781 28.148438 81.933594 27.765625 81.921875 27.378906 C 81.90625 26.996094 81.867188 26.617188 81.804688 26.238281 C 81.742188 25.859375 81.65625 25.484375 81.546875 25.117188 C 81.4375 24.75 81.308594 24.390625 81.15625 24.039062 C 81 23.6875 80.828125 23.347656 80.632812 23.015625 C 80.4375 22.6875 80.222656 22.371094 79.984375 22.066406 C 79.75 21.761719 79.5 21.476562 79.226562 21.203125 C 78.957031 20.929688 78.671875 20.675781 78.371094 20.441406 C 78.066406 20.203125 77.753906 19.988281 77.421875 19.789062 C 77.09375 19.59375 76.753906 19.417969 76.402344 19.261719 C 76.054688 19.105469 75.695312 18.972656 75.328125 18.863281 C 74.960938 18.75 74.585938 18.664062 74.207031 18.601562 C 73.832031 18.535156 73.449219 18.496094 73.066406 18.476562 C 72.683594 18.460938 72.300781 18.464844 71.917969 18.496094 C 71.535156 18.527344 71.15625 18.582031 70.78125 18.660156 C 70.40625 18.734375 70.035156 18.835938 69.671875 18.957031 C 69.308594 19.082031 68.953125 19.226562 68.609375 19.394531 C 68.265625 19.5625 67.929688 19.75 67.609375 19.957031 C 67.285156 20.164062 66.976562 20.394531 66.683594 20.640625 C 66.390625 20.886719 66.113281 21.152344 65.851562 21.433594 L 65.785156 21.503906 C 64.882812 22.496094 63.765625 23.078125 62.433594 23.253906 C 62.726562 24.363281 62.945312 25.4375 63.164062 26.4375 C 63.597656 28.492188 64 30.433594 64.789062 31.996094 C 66.339844 35.09375 69.355469 37.023438 72.648438 37.023438 Z M 72.648438 37.023438 " clip-rule="nonzero"/></clipPath><linearGradient x1="-1.770676" gradientTransform="matrix(-0.145712, 0, 0, -0.145712, 94.315739, 62.68882)" y1="352.991138" x2="501.788229" gradientUnits="userSpaceOnUse" y2="126.62043" id="d02c1f0d3d"><stop stop-opacity="1" stop-color="rgb(36.468506%, 23.919678%, 53.729248%)" offset="0"/><stop stop-opacity="1" stop-color="rgb(36.468506%, 23.919678%, 53.729248%)" offset="0.0625"/><stop stop-opacity="1" stop-color="rgb(36.468506%, 23.919678%, 53.729248%)" offset="0.09375"/><stop stop-opacity="1" stop-color="rgb(36.468506%, 23.919678%, 53.729248%)" offset="0.109375"/><stop stop-opacity="1" stop-color="rgb(37.185669%, 24.34845%, 54.563904%)" offset="0.113281"/><stop stop-opacity="1" stop-color="rgb(37.904358%, 24.777222%, 55.39856%)" offset="0.117188"/><stop stop-opacity="1" stop-color="rgb(38.691711%, 25.247192%, 56.314087%)" offset="0.121094"/><stop stop-opacity="1" stop-color="rgb(39.479065%, 25.718689%, 57.229614%)" offset="0.125"/><stop stop-opacity="1" stop-color="rgb(40.266418%, 26.18866%, 58.145142%)" offset="0.128906"/><stop stop-opacity="1" stop-color="rgb(41.053772%, 26.660156%, 59.062195%)" offset="0.132813"/><stop stop-opacity="1" stop-color="rgb(41.841125%, 27.130127%, 59.977722%)" offset="0.136719"/><stop stop-opacity="1" stop-color="rgb(42.628479%, 27.601624%, 60.89325%)" offset="0.140625"/><stop stop-opacity="1" stop-color="rgb(43.415833%, 28.071594%, 61.808777%)" offset="0.144531"/><stop stop-opacity="1" stop-color="rgb(44.204712%, 28.543091%, 62.724304%)" offset="0.148438"/><stop stop-opacity="1" stop-color="rgb(44.992065%, 29.013062%, 63.639832%)" offset="0.152344"/><stop stop-opacity="1" stop-color="rgb(45.779419%, 29.484558%, 64.556885%)" offset="0.15625"/><stop stop-opacity="1" stop-color="rgb(46.566772%, 29.954529%, 65.472412%)" offset="0.160156"/><stop stop-opacity="1" stop-color="rgb(47.354126%, 30.426025%, 66.387939%)" offset="0.164063"/><stop stop-opacity="1" stop-color="rgb(48.141479%, 30.895996%, 67.303467%)" offset="0.167969"/><stop stop-opacity="1" stop-color="rgb(48.928833%, 31.367493%, 68.218994%)" offset="0.171875"/><stop stop-opacity="1" stop-color="rgb(49.716187%, 31.838989%, 69.134521%)" offset="0.175781"/><stop stop-opacity="1" stop-color="rgb(50.50354%, 32.310486%, 70.051575%)" offset="0.179688"/><stop stop-opacity="1" stop-color="rgb(51.290894%, 32.780457%, 70.967102%)" offset="0.183594"/><stop stop-opacity="1" stop-color="rgb(52.078247%, 33.251953%, 71.882629%)" offset="0.1875"/><stop stop-opacity="1" stop-color="rgb(52.865601%, 33.721924%, 72.798157%)" offset="0.191406"/><stop stop-opacity="1" stop-color="rgb(53.65448%, 34.19342%, 73.71521%)" offset="0.195312"/><stop stop-opacity="1" stop-color="rgb(54.441833%, 34.663391%, 74.630737%)" offset="0.199219"/><stop stop-opacity="1" stop-color="rgb(55.229187%, 35.134888%, 75.546265%)" offset="0.203125"/><stop stop-opacity="1" stop-color="rgb(56.016541%, 35.604858%, 76.461792%)" offset="0.207031"/><stop stop-opacity="1" stop-color="rgb(56.803894%, 36.076355%, 77.377319%)" offset="0.210938"/><stop stop-opacity="1" stop-color="rgb(57.591248%, 36.546326%, 78.292847%)" offset="0.214844"/><stop stop-opacity="1" stop-color="rgb(58.378601%, 37.017822%, 79.2099%)" offset="0.21875"/><stop stop-opacity="1" stop-color="rgb(59.165955%, 37.487793%, 80.125427%)" offset="0.222656"/><stop stop-opacity="1" stop-color="rgb(59.953308%, 37.95929%, 81.040955%)" offset="0.226563"/><stop stop-opacity="1" stop-color="rgb(60.740662%, 38.42926%, 81.956482%)" offset="0.230469"/><stop stop-opacity="1" stop-color="rgb(61.528015%, 38.900757%, 82.872009%)" offset="0.234375"/><stop stop-opacity="1" stop-color="rgb(62.315369%, 39.370728%, 83.787537%)" offset="0.238281"/><stop stop-opacity="1" stop-color="rgb(63.104248%, 39.842224%, 84.70459%)" offset="0.242188"/><stop stop-opacity="1" stop-color="rgb(63.891602%, 40.312195%, 85.620117%)" offset="0.246094"/><stop stop-opacity="1" stop-color="rgb(64.678955%, 40.783691%, 86.535645%)" offset="0.25"/><stop stop-opacity="1" stop-color="rgb(65.466309%, 41.253662%, 87.451172%)" offset="0.253906"/><stop stop-opacity="1" stop-color="rgb(66.253662%, 41.725159%, 88.366699%)" offset="0.257813"/><stop stop-opacity="1" stop-color="rgb(67.041016%, 42.195129%, 89.282227%)" offset="0.261719"/><stop stop-opacity="1" stop-color="rgb(67.828369%, 42.666626%, 90.19928%)" offset="0.265625"/><stop stop-opacity="1" stop-color="rgb(68.615723%, 43.136597%, 91.114807%)" offset="0.269531"/><stop stop-opacity="1" stop-color="rgb(69.403076%, 43.608093%, 92.030334%)" offset="0.273438"/><stop stop-opacity="1" stop-color="rgb(70.19043%, 44.078064%, 92.945862%)" offset="0.277344"/><stop stop-opacity="1" stop-color="rgb(70.977783%, 44.549561%, 93.862915%)" offset="0.28125"/><stop stop-opacity="1" stop-color="rgb(71.763611%, 45.019531%, 94.773865%)" offset="0.285156"/><stop stop-opacity="1" stop-color="rgb(72.550964%, 45.489502%, 95.684814%)" offset="0.289062"/><stop stop-opacity="1" stop-color="rgb(72.927856%, 45.440674%, 94.767761%)" offset="0.292969"/><stop stop-opacity="1" stop-color="rgb(73.306274%, 45.391846%, 93.852234%)" offset="0.296875"/><stop stop-opacity="1" stop-color="rgb(73.683167%, 45.343018%, 92.935181%)" offset="0.300781"/><stop stop-opacity="1" stop-color="rgb(74.060059%, 45.294189%, 92.019653%)" offset="0.304688"/><stop stop-opacity="1" stop-color="rgb(74.436951%, 45.245361%, 91.1026%)" offset="0.308594"/><stop stop-opacity="1" stop-color="rgb(74.813843%, 45.198059%, 90.187073%)" offset="0.3125"/><stop stop-opacity="1" stop-color="rgb(75.190735%, 45.149231%, 89.27002%)" offset="0.316406"/><stop stop-opacity="1" stop-color="rgb(75.569153%, 45.100403%, 88.354492%)" offset="0.320313"/><stop stop-opacity="1" stop-color="rgb(75.946045%, 45.051575%, 87.437439%)" offset="0.324219"/><stop stop-opacity="1" stop-color="rgb(76.322937%, 45.004272%, 86.521912%)" offset="0.328125"/><stop stop-opacity="1" stop-color="rgb(76.699829%, 44.955444%, 85.606384%)" offset="0.332031"/><stop stop-opacity="1" stop-color="rgb(77.078247%, 44.906616%, 84.690857%)" offset="0.335938"/><stop stop-opacity="1" stop-color="rgb(77.455139%, 44.857788%, 83.773804%)" offset="0.339844"/><stop stop-opacity="1" stop-color="rgb(77.832031%, 44.810486%, 82.858276%)" offset="0.34375"/><stop stop-opacity="1" stop-color="rgb(78.208923%, 44.761658%, 81.941223%)" offset="0.347656"/><stop stop-opacity="1" stop-color="rgb(78.587341%, 44.71283%, 81.025696%)" offset="0.351562"/><stop stop-opacity="1" stop-color="rgb(78.964233%, 44.664001%, 80.108643%)" offset="0.355469"/><stop stop-opacity="1" stop-color="rgb(79.341125%, 44.615173%, 79.193115%)" offset="0.359375"/><stop stop-opacity="1" stop-color="rgb(79.718018%, 44.566345%, 78.276062%)" offset="0.363281"/><stop stop-opacity="1" stop-color="rgb(80.09491%, 44.519043%, 77.360535%)" offset="0.367188"/><stop stop-opacity="1" stop-color="rgb(80.471802%, 44.470215%, 76.443481%)" offset="0.371094"/><stop stop-opacity="1" stop-color="rgb(80.85022%, 44.421387%, 75.527954%)" offset="0.375"/><stop stop-opacity="1" stop-color="rgb(81.227112%, 44.372559%, 74.610901%)" offset="0.378906"/><stop stop-opacity="1" stop-color="rgb(81.604004%, 44.325256%, 73.695374%)" offset="0.382812"/><stop stop-opacity="1" stop-color="rgb(81.980896%, 44.276428%, 72.77832%)" offset="0.386719"/><stop stop-opacity="1" stop-color="rgb(82.359314%, 44.2276%, 71.862793%)" offset="0.390625"/><stop stop-opacity="1" stop-color="rgb(82.736206%, 44.178772%, 70.947266%)" offset="0.394531"/><stop stop-opacity="1" stop-color="rgb(83.113098%, 44.13147%, 70.031738%)" offset="0.398438"/><stop stop-opacity="1" stop-color="rgb(83.48999%, 44.082642%, 69.114685%)" offset="0.402344"/><stop stop-opacity="1" stop-color="rgb(83.868408%, 44.033813%, 68.199158%)" offset="0.40625"/><stop stop-opacity="1" stop-color="rgb(84.2453%, 43.984985%, 67.282104%)" offset="0.410156"/><stop stop-opacity="1" stop-color="rgb(84.622192%, 43.936157%, 66.366577%)" offset="0.414063"/><stop stop-opacity="1" stop-color="rgb(84.999084%, 43.887329%, 65.449524%)" offset="0.417969"/><stop stop-opacity="1" stop-color="rgb(85.377502%, 43.840027%, 64.533997%)" offset="0.421875"/><stop stop-opacity="1" stop-color="rgb(85.754395%, 43.791199%, 63.616943%)" offset="0.425781"/><stop stop-opacity="1" stop-color="rgb(86.131287%, 43.742371%, 62.701416%)" offset="0.429688"/><stop stop-opacity="1" stop-color="rgb(86.508179%, 43.693542%, 61.784363%)" offset="0.433594"/><stop stop-opacity="1" stop-color="rgb(86.885071%, 43.64624%, 60.868835%)" offset="0.4375"/><stop stop-opacity="1" stop-color="rgb(87.261963%, 43.597412%, 59.951782%)" offset="0.441406"/><stop stop-opacity="1" stop-color="rgb(87.640381%, 43.548584%, 59.036255%)" offset="0.445312"/><stop stop-opacity="1" stop-color="rgb(88.017273%, 43.499756%, 58.120728%)" offset="0.449219"/><stop stop-opacity="1" stop-color="rgb(88.394165%, 43.450928%, 57.2052%)" offset="0.453125"/><stop stop-opacity="1" stop-color="rgb(88.771057%, 43.4021%, 56.288147%)" offset="0.457031"/><stop stop-opacity="1" stop-color="rgb(89.149475%, 43.354797%, 55.37262%)" offset="0.460938"/><stop stop-opacity="1" stop-color="rgb(89.526367%, 43.305969%, 54.455566%)" offset="0.464844"/><stop stop-opacity="1" stop-color="rgb(89.903259%, 43.257141%, 53.540039%)" offset="0.46875"/><stop stop-opacity="1" stop-color="rgb(90.280151%, 43.208313%, 52.622986%)" offset="0.472656"/><stop stop-opacity="1" stop-color="rgb(90.658569%, 43.161011%, 51.707458%)" offset="0.476562"/><stop stop-opacity="1" stop-color="rgb(91.035461%, 43.112183%, 50.790405%)" offset="0.480469"/><stop stop-opacity="1" stop-color="rgb(91.412354%, 43.063354%, 49.874878%)" offset="0.484375"/><stop stop-opacity="1" stop-color="rgb(91.789246%, 43.014526%, 48.957825%)" offset="0.488281"/><stop stop-opacity="1" stop-color="rgb(92.166138%, 42.967224%, 48.042297%)" offset="0.492188"/><stop stop-opacity="1" stop-color="rgb(92.54303%, 42.918396%, 47.125244%)" offset="0.496094"/><stop stop-opacity="1" stop-color="rgb(92.921448%, 42.869568%, 46.209717%)" offset="0.5"/><stop stop-opacity="1" stop-color="rgb(93.29834%, 42.82074%, 45.292664%)" offset="0.503906"/><stop stop-opacity="1" stop-color="rgb(93.675232%, 42.771912%, 44.377136%)" offset="0.507813"/><stop stop-opacity="1" stop-color="rgb(94.052124%, 42.723083%, 43.461609%)" offset="0.511719"/><stop stop-opacity="1" stop-color="rgb(94.430542%, 42.675781%, 42.546082%)" offset="0.515625"/><stop stop-opacity="1" stop-color="rgb(94.807434%, 42.626953%, 41.629028%)" offset="0.519531"/><stop stop-opacity="1" stop-color="rgb(95.184326%, 42.578125%, 40.713501%)" offset="0.523438"/><stop stop-opacity="1" stop-color="rgb(95.561218%, 42.529297%, 39.796448%)" offset="0.527344"/><stop stop-opacity="1" stop-color="rgb(95.939636%, 42.481995%, 38.88092%)" offset="0.53125"/><stop stop-opacity="1" stop-color="rgb(96.316528%, 42.433167%, 37.963867%)" offset="0.535156"/><stop stop-opacity="1" stop-color="rgb(96.69342%, 42.384338%, 37.04834%)" offset="0.539062"/><stop stop-opacity="1" stop-color="rgb(97.070312%, 42.33551%, 36.131287%)" offset="0.542969"/><stop stop-opacity="1" stop-color="rgb(97.447205%, 42.286682%, 35.215759%)" offset="0.546875"/><stop stop-opacity="1" stop-color="rgb(97.824097%, 42.237854%, 34.298706%)" offset="0.550781"/><stop stop-opacity="1" stop-color="rgb(98.202515%, 42.190552%, 33.383179%)" offset="0.554688"/><stop stop-opacity="1" stop-color="rgb(98.579407%, 42.141724%, 32.466125%)" offset="0.558594"/><stop stop-opacity="1" stop-color="rgb(98.956299%, 42.092896%, 31.550598%)" offset="0.5625"/><stop stop-opacity="1" stop-color="rgb(99.333191%, 42.044067%, 30.633545%)" offset="0.566406"/><stop stop-opacity="1" stop-color="rgb(99.711609%, 41.996765%, 29.718018%)" offset="0.570312"/><stop stop-opacity="1" stop-color="rgb(99.435425%, 41.775513%, 29.240417%)" offset="0.574219"/><stop stop-opacity="1" stop-color="rgb(99.159241%, 41.55426%, 28.764343%)" offset="0.578125"/><stop stop-opacity="1" stop-color="rgb(98.480225%, 41.226196%, 28.55835%)" offset="0.582031"/><stop stop-opacity="1" stop-color="rgb(97.801208%, 40.899658%, 28.352356%)" offset="0.585938"/><stop stop-opacity="1" stop-color="rgb(97.122192%, 40.571594%, 28.146362%)" offset="0.589844"/><stop stop-opacity="1" stop-color="rgb(96.443176%, 40.245056%, 27.940369%)" offset="0.59375"/><stop stop-opacity="1" stop-color="rgb(95.76416%, 39.916992%, 27.734375%)" offset="0.597656"/><stop stop-opacity="1" stop-color="rgb(95.085144%, 39.588928%, 27.528381%)" offset="0.601562"/><stop stop-opacity="1" stop-color="rgb(94.406128%, 39.260864%, 27.322388%)" offset="0.605469"/><stop stop-opacity="1" stop-color="rgb(93.727112%, 38.934326%, 27.116394%)" offset="0.609375"/><stop stop-opacity="1" stop-color="rgb(93.048096%, 38.606262%, 26.908875%)" offset="0.613281"/><stop stop-opacity="1" stop-color="rgb(92.36908%, 38.279724%, 26.702881%)" offset="0.617188"/><stop stop-opacity="1" stop-color="rgb(91.690063%, 37.95166%, 26.496887%)" offset="0.621094"/><stop stop-opacity="1" stop-color="rgb(91.011047%, 37.625122%, 26.290894%)" offset="0.625"/><stop stop-opacity="1" stop-color="rgb(90.332031%, 37.297058%, 26.0849%)" offset="0.628906"/><stop stop-opacity="1" stop-color="rgb(89.653015%, 36.97052%, 25.878906%)" offset="0.632812"/><stop stop-opacity="1" stop-color="rgb(88.973999%, 36.642456%, 25.672913%)" offset="0.636719"/><stop stop-opacity="1" stop-color="rgb(88.294983%, 36.315918%, 25.466919%)" offset="0.640625"/><stop stop-opacity="1" stop-color="rgb(87.615967%, 35.987854%, 25.260925%)" offset="0.644531"/><stop stop-opacity="1" stop-color="rgb(86.936951%, 35.65979%, 25.054932%)" offset="0.648438"/><stop stop-opacity="1" stop-color="rgb(86.257935%, 35.331726%, 24.848938%)" offset="0.652344"/><stop stop-opacity="1" stop-color="rgb(85.578918%, 35.005188%, 24.642944%)" offset="0.65625"/><stop stop-opacity="1" stop-color="rgb(84.899902%, 34.677124%, 24.436951%)" offset="0.660156"/><stop stop-opacity="1" stop-color="rgb(84.220886%, 34.350586%, 24.230957%)" offset="0.664062"/><stop stop-opacity="1" stop-color="rgb(83.54187%, 34.022522%, 24.024963%)" offset="0.667969"/><stop stop-opacity="1" stop-color="rgb(82.862854%, 33.695984%, 23.81897%)" offset="0.671875"/><stop stop-opacity="1" stop-color="rgb(82.183838%, 33.36792%, 23.612976%)" offset="0.675781"/><stop stop-opacity="1" stop-color="rgb(81.504822%, 33.041382%, 23.406982%)" offset="0.679688"/><stop stop-opacity="1" stop-color="rgb(80.825806%, 32.713318%, 23.199463%)" offset="0.683594"/><stop stop-opacity="1" stop-color="rgb(80.148315%, 32.385254%, 22.993469%)" offset="0.6875"/><stop stop-opacity="1" stop-color="rgb(79.469299%, 32.05719%, 22.787476%)" offset="0.691406"/><stop stop-opacity="1" stop-color="rgb(78.790283%, 31.730652%, 22.581482%)" offset="0.695313"/><stop stop-opacity="1" stop-color="rgb(78.111267%, 31.402588%, 22.375488%)" offset="0.699219"/><stop stop-opacity="1" stop-color="rgb(77.432251%, 31.07605%, 22.169495%)" offset="0.703125"/><stop stop-opacity="1" stop-color="rgb(76.753235%, 30.747986%, 21.963501%)" offset="0.707031"/><stop stop-opacity="1" stop-color="rgb(76.074219%, 30.421448%, 21.757507%)" offset="0.710938"/><stop stop-opacity="1" stop-color="rgb(75.395203%, 30.093384%, 21.551514%)" offset="0.714844"/><stop stop-opacity="1" stop-color="rgb(74.716187%, 29.766846%, 21.34552%)" offset="0.71875"/><stop stop-opacity="1" stop-color="rgb(74.03717%, 29.438782%, 21.139526%)" offset="0.722656"/><stop stop-opacity="1" stop-color="rgb(73.358154%, 29.112244%, 20.933533%)" offset="0.726562"/><stop stop-opacity="1" stop-color="rgb(72.679138%, 28.78418%, 20.727539%)" offset="0.730469"/><stop stop-opacity="1" stop-color="rgb(72.000122%, 28.456116%, 20.521545%)" offset="0.734375"/><stop stop-opacity="1" stop-color="rgb(71.321106%, 28.128052%, 20.315552%)" offset="0.738281"/><stop stop-opacity="1" stop-color="rgb(70.64209%, 27.801514%, 20.109558%)" offset="0.742188"/><stop stop-opacity="1" stop-color="rgb(69.963074%, 27.47345%, 19.903564%)" offset="0.746094"/><stop stop-opacity="1" stop-color="rgb(69.284058%, 27.146912%, 19.697571%)" offset="0.75"/><stop stop-opacity="1" stop-color="rgb(68.605042%, 26.818848%, 19.490051%)" offset="0.753906"/><stop stop-opacity="1" stop-color="rgb(67.926025%, 26.49231%, 19.284058%)" offset="0.757812"/><stop stop-opacity="1" stop-color="rgb(67.247009%, 26.164246%, 19.078064%)" offset="0.761719"/><stop stop-opacity="1" stop-color="rgb(66.567993%, 25.837708%, 18.87207%)" offset="0.765625"/><stop stop-opacity="1" stop-color="rgb(65.888977%, 25.509644%, 18.666077%)" offset="0.769531"/><stop stop-opacity="1" stop-color="rgb(65.209961%, 25.18158%, 18.460083%)" offset="0.773438"/><stop stop-opacity="1" stop-color="rgb(64.530945%, 24.853516%, 18.254089%)" offset="0.777344"/><stop stop-opacity="1" stop-color="rgb(63.851929%, 24.526978%, 18.048096%)" offset="0.78125"/><stop stop-opacity="1" stop-color="rgb(63.172913%, 24.198914%, 17.842102%)" offset="0.785156"/><stop stop-opacity="1" stop-color="rgb(62.493896%, 23.872375%, 17.636108%)" offset="0.789062"/><stop stop-opacity="1" stop-color="rgb(61.81488%, 23.544312%, 17.430115%)" offset="0.792969"/><stop stop-opacity="1" stop-color="rgb(61.135864%, 23.217773%, 17.224121%)" offset="0.796875"/><stop stop-opacity="1" stop-color="rgb(60.456848%, 22.889709%, 17.018127%)" offset="0.800781"/><stop stop-opacity="1" stop-color="rgb(59.777832%, 22.563171%, 16.812134%)" offset="0.804688"/><stop stop-opacity="1" stop-color="rgb(59.098816%, 22.235107%, 16.60614%)" offset="0.808594"/><stop stop-opacity="1" stop-color="rgb(58.4198%, 21.908569%, 16.400146%)" offset="0.8125"/><stop stop-opacity="1" stop-color="rgb(57.740784%, 21.580505%, 16.192627%)" offset="0.816406"/><stop stop-opacity="1" stop-color="rgb(57.061768%, 21.252441%, 15.986633%)" offset="0.820312"/><stop stop-opacity="1" stop-color="rgb(56.570435%, 21.01593%, 15.837097%)" offset="0.824219"/><stop stop-opacity="1" stop-color="rgb(56.079102%, 20.779419%, 15.689087%)" offset="0.828125"/><stop stop-opacity="1" stop-color="rgb(56.079102%, 20.779419%, 15.689087%)" offset="0.84375"/><stop stop-opacity="1" stop-color="rgb(56.079102%, 20.779419%, 15.689087%)" offset="0.875"/><stop stop-opacity="1" stop-color="rgb(56.079102%, 20.779419%, 15.689087%)" offset="1"/></linearGradient><clipPath id="3c2ac9a06b"><rect x="0" width="130" y="0" height="43"/></clipPath></defs><g clip-path="url(#7d93762cf1)"><g clip-path="url(#f999a6af0c)"><path fill="url(#d02c1f0d3d)" d="M 92.886719 47.992188 L 92.886719 7.503906 L 22.886719 7.503906 L 22.886719 47.992188 Z M 92.886719 47.992188 " fill-rule="nonzero"/></g></g><g transform="matrix(1, 0, 0, 1, 109, 5)"><g clip-path="url(#3c2ac9a06b)"><g fill="#000000" fill-opacity="1"><g transform="translate(0.894943, 34.573398)"><g><path d="M 17.625 0 L 12.859375 0 C 12.160156 0 11.441406 -0.0625 10.703125 -0.1875 C 9.972656 -0.320312 9.273438 -0.5625 8.609375 -0.90625 C 7.941406 -1.257812 7.34375 -1.765625 6.8125 -2.421875 C 6.289062 -3.085938 5.875 -3.945312 5.5625 -5 C 5.25 -6.050781 5.09375 -7.351562 5.09375 -8.90625 L 5.09375 -18.671875 L 0.25 -18.671875 L 0.25 -23.40625 L 5.09375 -23.40625 L 5.09375 -30.25 L 10.609375 -30.296875 L 10.609375 -23.40625 L 17.625 -23.40625 L 17.625 -18.671875 L 10.609375 -18.671875 L 10.609375 -8.65625 C 10.609375 -7.5625 10.765625 -6.71875 11.078125 -6.125 C 11.398438 -5.53125 11.820312 -5.125 12.34375 -4.90625 C 12.875 -4.6875 13.425781 -4.578125 14 -4.578125 L 17.625 -4.578125 Z M 17.625 0 "/></g></g></g><g fill="#000000" fill-opacity="1"><g transform="translate(17.785767, 34.573398)"><g><path d="M 12.59375 0.703125 C 11.007812 0.703125 9.546875 0.382812 8.203125 -0.25 C 6.859375 -0.882812 5.6875 -1.769531 4.6875 -2.90625 C 3.695312 -4.050781 2.929688 -5.375 2.390625 -6.875 C 1.847656 -8.375 1.578125 -9.984375 1.578125 -11.703125 C 1.578125 -13.421875 1.851562 -15.023438 2.40625 -16.515625 C 2.957031 -18.015625 3.726562 -19.332031 4.71875 -20.46875 C 5.71875 -21.601562 6.882812 -22.492188 8.21875 -23.140625 C 9.550781 -23.785156 11 -24.109375 12.5625 -24.109375 C 14.476562 -24.109375 16.175781 -23.691406 17.65625 -22.859375 C 19.144531 -22.035156 20.265625 -20.894531 21.015625 -19.4375 L 21.015625 -23.40625 L 26.25 -23.40625 L 26.25 0 L 21.015625 0 L 21.015625 -3.9375 C 20.253906 -2.476562 19.132812 -1.335938 17.65625 -0.515625 C 16.175781 0.296875 14.488281 0.703125 12.59375 0.703125 Z M 13.90625 -4.390625 C 14.863281 -4.390625 15.757812 -4.578125 16.59375 -4.953125 C 17.425781 -5.328125 18.15625 -5.84375 18.78125 -6.5 C 19.414062 -7.15625 19.90625 -7.925781 20.25 -8.8125 C 20.601562 -9.707031 20.78125 -10.671875 20.78125 -11.703125 C 20.78125 -12.722656 20.601562 -13.675781 20.25 -14.5625 C 19.894531 -15.445312 19.40625 -16.222656 18.78125 -16.890625 C 18.15625 -17.554688 17.425781 -18.078125 16.59375 -18.453125 C 15.757812 -18.828125 14.863281 -19.015625 13.90625 -19.015625 C 12.644531 -19.015625 11.492188 -18.707031 10.453125 -18.09375 C 9.421875 -17.488281 8.59375 -16.640625 7.96875 -15.546875 C 7.34375 -14.453125 7.03125 -13.171875 7.03125 -11.703125 C 7.03125 -10.179688 7.34375 -8.875 7.96875 -7.78125 C 8.601562 -6.6875 9.441406 -5.847656 10.484375 -5.265625 C 11.535156 -4.679688 12.675781 -4.390625 13.90625 -4.390625 Z M 13.90625 -4.390625 "/></g></g></g><g fill="#000000" fill-opacity="1"><g transform="translate(45.307845, 34.573398)"><g><path d="M 13.65625 0.703125 C 11.914062 0.703125 10.304688 0.378906 8.828125 -0.265625 C 7.359375 -0.910156 6.082031 -1.800781 5 -2.9375 C 3.914062 -4.070312 3.070312 -5.390625 2.46875 -6.890625 C 1.875 -8.398438 1.578125 -10.003906 1.578125 -11.703125 C 1.578125 -13.398438 1.875 -14.992188 2.46875 -16.484375 C 3.070312 -17.984375 3.914062 -19.304688 5 -20.453125 C 6.082031 -21.597656 7.359375 -22.492188 8.828125 -23.140625 C 10.304688 -23.785156 11.914062 -24.109375 13.65625 -24.109375 C 15.675781 -24.109375 17.476562 -23.71875 19.0625 -22.9375 C 20.65625 -22.15625 21.984375 -21.085938 23.046875 -19.734375 C 24.117188 -18.390625 24.875 -16.859375 25.3125 -15.140625 L 19.6875 -15.140625 C 19.175781 -16.441406 18.378906 -17.40625 17.296875 -18.03125 C 16.222656 -18.664062 15.019531 -18.984375 13.6875 -18.984375 C 12.832031 -18.984375 12.007812 -18.820312 11.21875 -18.5 C 10.4375 -18.175781 9.726562 -17.703125 9.09375 -17.078125 C 8.46875 -16.453125 7.96875 -15.6875 7.59375 -14.78125 C 7.21875 -13.882812 7.03125 -12.859375 7.03125 -11.703125 C 7.03125 -10.546875 7.21875 -9.515625 7.59375 -8.609375 C 7.96875 -7.710938 8.46875 -6.945312 9.09375 -6.3125 C 9.726562 -5.6875 10.441406 -5.207031 11.234375 -4.875 C 12.035156 -4.550781 12.851562 -4.390625 13.6875 -4.390625 C 15.019531 -4.390625 16.222656 -4.71875 17.296875 -5.375 C 18.378906 -6.039062 19.175781 -7.101562 19.6875 -8.5625 L 25.296875 -8.5625 C 24.898438 -6.75 24.160156 -5.144531 23.078125 -3.75 C 22.003906 -2.351562 20.664062 -1.257812 19.0625 -0.46875 C 17.46875 0.3125 15.664062 0.703125 13.65625 0.703125 Z M 13.65625 0.703125 "/></g></g></g><g fill="#000000" fill-opacity="1"><g transform="translate(69.870474, 34.573398)"><g><path d="M 5.9375 -27.046875 C 4.875 -27.046875 4.039062 -27.351562 3.4375 -27.96875 C 2.84375 -28.582031 2.546875 -29.328125 2.546875 -30.203125 C 2.546875 -31.054688 2.84375 -31.796875 3.4375 -32.421875 C 4.039062 -33.046875 4.882812 -33.359375 5.96875 -33.359375 C 7.070312 -33.359375 7.921875 -33.046875 8.515625 -32.421875 C 9.117188 -31.796875 9.421875 -31.054688 9.421875 -30.203125 C 9.421875 -29.328125 9.117188 -28.582031 8.515625 -27.96875 C 7.921875 -27.351562 7.0625 -27.046875 5.9375 -27.046875 Z M 8.75 0 L 3.234375 0 L 3.234375 -23.40625 L 8.75 -23.40625 Z M 8.75 0 "/></g></g></g><g fill="#000000" fill-opacity="1"><g transform="translate(79.863512, 34.573398)"><g><path d="M 14.6875 0 L 9.5625 0 L 0.234375 -23.40625 L 6.078125 -23.40625 L 11.515625 -9.265625 L 12.140625 -6.8125 L 12.71875 -9.25 L 18.171875 -23.40625 L 24.0625 -23.40625 Z M 14.6875 0 "/></g></g></g><g fill="#000000" fill-opacity="1"><g transform="translate(102.172403, 34.573398)"><g><path d="M 13.859375 0.703125 C 12.085938 0.703125 10.445312 0.382812 8.9375 -0.25 C 7.4375 -0.882812 6.132812 -1.769531 5.03125 -2.90625 C 3.9375 -4.050781 3.085938 -5.375 2.484375 -6.875 C 1.878906 -8.375 1.578125 -9.984375 1.578125 -11.703125 C 1.578125 -13.421875 1.878906 -15.023438 2.484375 -16.515625 C 3.085938 -18.015625 3.9375 -19.332031 5.03125 -20.46875 C 6.132812 -21.601562 7.4375 -22.492188 8.9375 -23.140625 C 10.445312 -23.785156 12.097656 -24.109375 13.890625 -24.109375 C 15.691406 -24.109375 17.34375 -23.785156 18.84375 -23.140625 C 20.351562 -22.492188 21.660156 -21.601562 22.765625 -20.46875 C 23.867188 -19.332031 24.722656 -18.015625 25.328125 -16.515625 C 25.941406 -15.023438 26.25 -13.421875 26.25 -11.703125 C 26.25 -9.972656 25.941406 -8.359375 25.328125 -6.859375 C 24.722656 -5.367188 23.867188 -4.050781 22.765625 -2.90625 C 21.660156 -1.769531 20.351562 -0.882812 18.84375 -0.25 C 17.332031 0.382812 15.671875 0.703125 13.859375 0.703125 Z M 13.90625 -4.421875 C 15.226562 -4.421875 16.40625 -4.734375 17.4375 -5.359375 C 18.46875 -5.992188 19.28125 -6.851562 19.875 -7.9375 C 20.476562 -9.03125 20.78125 -10.285156 20.78125 -11.703125 C 20.78125 -13.109375 20.476562 -14.363281 19.875 -15.46875 C 19.28125 -16.570312 18.46875 -17.4375 17.4375 -18.0625 C 16.40625 -18.695312 15.226562 -19.015625 13.90625 -19.015625 C 12.601562 -19.015625 11.429688 -18.695312 10.390625 -18.0625 C 9.347656 -17.4375 8.523438 -16.570312 7.921875 -15.46875 C 7.328125 -14.363281 7.03125 -13.109375 7.03125 -11.703125 C 7.03125 -10.285156 7.328125 -9.03125 7.921875 -7.9375 C 8.523438 -6.851562 9.347656 -5.992188 10.390625 -5.359375 C 11.429688 -4.734375 12.601562 -4.421875 13.90625 -4.421875 Z M 13.90625 -4.421875 "/></g></g></g></g></g></svg>