<svg xmlns="http://www.w3.org/2000/svg" xmlns:xlink="http://www.w3.org/1999/xlink" width="350" zoomAndPan="magnify" viewBox="0 0 262.5 56.249996" height="75" preserveAspectRatio="xMidYMid meet" version="1.0"><defs><g/><clipPath id="c32109f250"><path d="M 27.796875 11.410156 L 85.527344 11.410156 L 85.527344 44.71875 L 27.796875 44.71875 Z M 27.796875 11.410156 " clip-rule="nonzero"/></clipPath><clipPath id="095efcd492"><path d="M 44.429688 11.230469 C 48.953125 11.230469 53.304688 13.203125 56.472656 16.667969 L 56.566406 16.5625 C 57.351562 15.722656 58.210938 14.972656 59.148438 14.308594 C 60.085938 13.644531 61.082031 13.085938 62.136719 12.625 C 63.1875 12.167969 64.277344 11.820312 65.402344 11.585938 C 66.523438 11.351562 67.660156 11.230469 68.808594 11.230469 C 78.027344 11.230469 85.527344 18.730469 85.527344 27.945312 C 85.527344 37.164062 78.027344 44.664062 68.808594 44.664062 C 67.667969 44.664062 66.535156 44.546875 65.417969 44.304688 C 64.300781 44.066406 63.222656 43.710938 62.179688 43.242188 C 61.140625 42.773438 60.160156 42.199219 59.238281 41.519531 C 58.320312 40.84375 57.480469 40.074219 56.726562 39.21875 C 56.589844 39.402344 56.441406 39.578125 56.28125 39.742188 C 54.714844 41.320312 52.90625 42.539062 50.851562 43.394531 C 48.796875 44.246094 46.65625 44.671875 44.429688 44.664062 C 35.214844 44.664062 27.714844 37.164062 27.714844 27.945312 C 27.714844 18.730469 35.210938 11.230469 44.429688 11.230469 Z M 52.878906 32.023438 C 52.5625 30.902344 52.332031 29.804688 52.105469 28.722656 C 51.605469 26.335938 51.210938 24.453125 50.007812 23.027344 C 48.535156 21.285156 46.5 20.285156 44.429688 20.285156 C 44.117188 20.285156 43.804688 20.304688 43.492188 20.34375 C 43.179688 20.382812 42.871094 20.4375 42.566406 20.515625 C 42.265625 20.589844 41.964844 20.6875 41.671875 20.800781 C 41.378906 20.914062 41.09375 21.042969 40.816406 21.191406 C 40.539062 21.339844 40.273438 21.503906 40.015625 21.683594 C 39.761719 21.863281 39.515625 22.0625 39.28125 22.273438 C 39.050781 22.484375 38.832031 22.707031 38.625 22.945312 C 38.421875 23.183594 38.230469 23.433594 38.058594 23.695312 C 37.882812 23.953125 37.726562 24.226562 37.585938 24.507812 C 37.445312 24.785156 37.320312 25.074219 37.214844 25.371094 C 37.109375 25.667969 37.023438 25.96875 36.953125 26.273438 C 36.886719 26.582031 36.835938 26.890625 36.804688 27.203125 C 36.773438 27.515625 36.761719 27.828125 36.769531 28.140625 C 36.777344 28.457031 36.804688 28.769531 36.851562 29.078125 C 36.898438 29.390625 36.964844 29.695312 37.046875 30 C 37.132812 30.300781 37.234375 30.597656 37.355469 30.886719 C 37.476562 31.175781 37.613281 31.457031 37.769531 31.730469 C 37.921875 32.003906 38.09375 32.265625 38.28125 32.519531 C 38.46875 32.769531 38.671875 33.011719 38.886719 33.238281 C 39.105469 33.464844 39.335938 33.679688 39.578125 33.875 C 39.820312 34.074219 40.074219 34.257812 40.339844 34.425781 C 40.605469 34.59375 40.882812 34.746094 41.164062 34.878906 C 41.449219 35.011719 41.742188 35.128906 42.039062 35.226562 C 42.335938 35.324219 42.640625 35.402344 42.949219 35.464844 C 43.257812 35.523438 43.566406 35.566406 43.878906 35.589844 C 44.195312 35.613281 44.507812 35.617188 44.820312 35.597656 C 45.132812 35.582031 45.445312 35.546875 45.753906 35.492188 C 46.0625 35.441406 46.367188 35.367188 46.667969 35.273438 C 46.96875 35.183594 47.261719 35.074219 47.550781 34.945312 C 47.835938 34.816406 48.113281 34.671875 48.382812 34.511719 C 48.652344 34.347656 48.910156 34.171875 49.15625 33.976562 C 49.40625 33.785156 49.640625 33.574219 49.859375 33.351562 C 50.691406 32.511719 51.699219 32.070312 52.878906 32.023438 Z M 68.808594 35.609375 C 69.125 35.609375 69.441406 35.589844 69.757812 35.550781 C 70.070312 35.511719 70.382812 35.453125 70.6875 35.375 C 70.996094 35.296875 71.296875 35.203125 71.59375 35.085938 C 71.886719 34.972656 72.175781 34.839844 72.453125 34.6875 C 72.730469 34.539062 73 34.371094 73.257812 34.1875 C 73.515625 34.003906 73.761719 33.804688 73.996094 33.589844 C 74.230469 33.375 74.449219 33.148438 74.652344 32.90625 C 74.859375 32.664062 75.046875 32.410156 75.222656 32.148438 C 75.394531 31.882812 75.550781 31.605469 75.691406 31.324219 C 75.832031 31.039062 75.953125 30.746094 76.054688 30.445312 C 76.160156 30.148438 76.242188 29.84375 76.308594 29.53125 C 76.375 29.222656 76.421875 28.910156 76.445312 28.59375 C 76.472656 28.277344 76.480469 27.960938 76.46875 27.644531 C 76.457031 27.328125 76.421875 27.015625 76.371094 26.703125 C 76.320312 26.390625 76.25 26.082031 76.160156 25.777344 C 76.070312 25.472656 75.960938 25.175781 75.835938 24.886719 C 75.710938 24.597656 75.566406 24.3125 75.402344 24.042969 C 75.242188 23.769531 75.066406 23.507812 74.871094 23.257812 C 74.675781 23.007812 74.46875 22.769531 74.246094 22.542969 C 74.023438 22.320312 73.785156 22.109375 73.535156 21.914062 C 73.285156 21.71875 73.027344 21.539062 72.753906 21.378906 C 72.484375 21.214844 72.203125 21.070312 71.910156 20.941406 C 71.621094 20.8125 71.324219 20.703125 71.023438 20.609375 C 70.71875 20.519531 70.410156 20.445312 70.097656 20.394531 C 69.785156 20.339844 69.472656 20.308594 69.15625 20.292969 C 68.839844 20.277344 68.523438 20.285156 68.207031 20.308594 C 67.890625 20.335938 67.578125 20.378906 67.269531 20.441406 C 66.957031 20.507812 66.652344 20.589844 66.351562 20.691406 C 66.050781 20.792969 65.761719 20.914062 65.476562 21.050781 C 65.191406 21.1875 64.914062 21.34375 64.648438 21.515625 C 64.382812 21.6875 64.128906 21.875 63.886719 22.078125 C 63.644531 22.28125 63.414062 22.5 63.199219 22.734375 L 63.144531 22.792969 C 62.394531 23.613281 61.472656 24.09375 60.375 24.238281 C 60.617188 25.152344 60.796875 26.042969 60.976562 26.867188 C 61.335938 28.566406 61.667969 30.167969 62.320312 31.457031 C 63.601562 34.015625 66.09375 35.609375 68.808594 35.609375 Z M 68.808594 35.609375 " clip-rule="nonzero"/></clipPath><linearGradient x1="-1.205945" gradientTransform="matrix(-0.12034, 0, 0, -0.12034, 86.705253, 56.805887)" y1="352.737268" x2="501.229961" gradientUnits="userSpaceOnUse" y2="126.871395" id="c43b67f682"><stop stop-opacity="1" stop-color="rgb(36.468506%, 23.919678%, 53.729248%)" offset="0"/><stop stop-opacity="1" stop-color="rgb(36.468506%, 23.919678%, 53.729248%)" offset="0.0625"/><stop stop-opacity="1" stop-color="rgb(36.468506%, 23.919678%, 53.729248%)" offset="0.09375"/><stop stop-opacity="1" stop-color="rgb(36.486816%, 23.930359%, 53.75061%)" offset="0.109375"/><stop stop-opacity="1" stop-color="rgb(37.29248%, 24.411011%, 54.685974%)" offset="0.113281"/><stop stop-opacity="1" stop-color="rgb(38.078308%, 24.880981%, 55.599976%)" offset="0.117188"/><stop stop-opacity="1" stop-color="rgb(38.86261%, 25.350952%, 56.513977%)" offset="0.121094"/><stop stop-opacity="1" stop-color="rgb(39.648438%, 25.820923%, 57.427979%)" offset="0.125"/><stop stop-opacity="1" stop-color="rgb(40.434265%, 26.289368%, 58.340454%)" offset="0.128906"/><stop stop-opacity="1" stop-color="rgb(41.220093%, 26.759338%, 59.254456%)" offset="0.132812"/><stop stop-opacity="1" stop-color="rgb(42.00592%, 27.229309%, 60.168457%)" offset="0.136719"/><stop stop-opacity="1" stop-color="rgb(42.791748%, 27.69928%, 61.082458%)" offset="0.140625"/><stop stop-opacity="1" stop-color="rgb(43.577576%, 28.16925%, 61.99646%)" offset="0.144531"/><stop stop-opacity="1" stop-color="rgb(44.363403%, 28.639221%, 62.910461%)" offset="0.148438"/><stop stop-opacity="1" stop-color="rgb(45.149231%, 29.107666%, 63.822937%)" offset="0.152344"/><stop stop-opacity="1" stop-color="rgb(45.935059%, 29.577637%, 64.736938%)" offset="0.15625"/><stop stop-opacity="1" stop-color="rgb(46.720886%, 30.047607%, 65.65094%)" offset="0.160156"/><stop stop-opacity="1" stop-color="rgb(47.506714%, 30.517578%, 66.564941%)" offset="0.164062"/><stop stop-opacity="1" stop-color="rgb(48.292542%, 30.987549%, 67.478943%)" offset="0.167969"/><stop stop-opacity="1" stop-color="rgb(49.078369%, 31.45752%, 68.392944%)" offset="0.171875"/><stop stop-opacity="1" stop-color="rgb(49.862671%, 31.925964%, 69.306946%)" offset="0.175781"/><stop stop-opacity="1" stop-color="rgb(50.648499%, 32.395935%, 70.220947%)" offset="0.179688"/><stop stop-opacity="1" stop-color="rgb(51.434326%, 32.865906%, 71.133423%)" offset="0.183594"/><stop stop-opacity="1" stop-color="rgb(52.220154%, 33.335876%, 72.047424%)" offset="0.1875"/><stop stop-opacity="1" stop-color="rgb(53.005981%, 33.805847%, 72.961426%)" offset="0.191406"/><stop stop-opacity="1" stop-color="rgb(53.791809%, 34.275818%, 73.875427%)" offset="0.195312"/><stop stop-opacity="1" stop-color="rgb(54.577637%, 34.744263%, 74.789429%)" offset="0.199219"/><stop stop-opacity="1" stop-color="rgb(55.363464%, 35.214233%, 75.70343%)" offset="0.203125"/><stop stop-opacity="1" stop-color="rgb(56.149292%, 35.684204%, 76.615906%)" offset="0.207031"/><stop stop-opacity="1" stop-color="rgb(56.93512%, 36.154175%, 77.529907%)" offset="0.210938"/><stop stop-opacity="1" stop-color="rgb(57.720947%, 36.624146%, 78.443909%)" offset="0.214844"/><stop stop-opacity="1" stop-color="rgb(58.506775%, 37.094116%, 79.35791%)" offset="0.21875"/><stop stop-opacity="1" stop-color="rgb(59.292603%, 37.564087%, 80.271912%)" offset="0.222656"/><stop stop-opacity="1" stop-color="rgb(60.07843%, 38.034058%, 81.185913%)" offset="0.226562"/><stop stop-opacity="1" stop-color="rgb(60.864258%, 38.502502%, 82.098389%)" offset="0.230469"/><stop stop-opacity="1" stop-color="rgb(61.650085%, 38.972473%, 83.01239%)" offset="0.234375"/><stop stop-opacity="1" stop-color="rgb(62.434387%, 39.442444%, 83.926392%)" offset="0.238281"/><stop stop-opacity="1" stop-color="rgb(63.220215%, 39.912415%, 84.840393%)" offset="0.242188"/><stop stop-opacity="1" stop-color="rgb(64.006042%, 40.382385%, 85.754395%)" offset="0.246094"/><stop stop-opacity="1" stop-color="rgb(64.79187%, 40.852356%, 86.668396%)" offset="0.25"/><stop stop-opacity="1" stop-color="rgb(65.577698%, 41.320801%, 87.580872%)" offset="0.253906"/><stop stop-opacity="1" stop-color="rgb(66.363525%, 41.790771%, 88.494873%)" offset="0.257812"/><stop stop-opacity="1" stop-color="rgb(67.149353%, 42.260742%, 89.408875%)" offset="0.261719"/><stop stop-opacity="1" stop-color="rgb(67.935181%, 42.730713%, 90.322876%)" offset="0.265625"/><stop stop-opacity="1" stop-color="rgb(68.721008%, 43.200684%, 91.236877%)" offset="0.269531"/><stop stop-opacity="1" stop-color="rgb(69.506836%, 43.670654%, 92.150879%)" offset="0.273438"/><stop stop-opacity="1" stop-color="rgb(70.292664%, 44.139099%, 93.06488%)" offset="0.277344"/><stop stop-opacity="1" stop-color="rgb(71.078491%, 44.60907%, 93.978882%)" offset="0.28125"/><stop stop-opacity="1" stop-color="rgb(71.836853%, 45.045471%, 94.775391%)" offset="0.285156"/><stop stop-opacity="1" stop-color="rgb(72.596741%, 45.483398%, 95.573425%)" offset="0.289063"/><stop stop-opacity="1" stop-color="rgb(72.973633%, 45.43457%, 94.657898%)" offset="0.292969"/><stop stop-opacity="1" stop-color="rgb(73.350525%, 45.385742%, 93.743896%)" offset="0.296875"/><stop stop-opacity="1" stop-color="rgb(73.725891%, 45.336914%, 92.829895%)" offset="0.300781"/><stop stop-opacity="1" stop-color="rgb(74.102783%, 45.289612%, 91.915894%)" offset="0.304688"/><stop stop-opacity="1" stop-color="rgb(74.478149%, 45.240784%, 91.001892%)" offset="0.308594"/><stop stop-opacity="1" stop-color="rgb(74.855042%, 45.191956%, 90.087891%)" offset="0.3125"/><stop stop-opacity="1" stop-color="rgb(75.231934%, 45.143127%, 89.173889%)" offset="0.316406"/><stop stop-opacity="1" stop-color="rgb(75.608826%, 45.095825%, 88.259888%)" offset="0.320313"/><stop stop-opacity="1" stop-color="rgb(75.984192%, 45.046997%, 87.345886%)" offset="0.324219"/><stop stop-opacity="1" stop-color="rgb(76.361084%, 44.999695%, 86.431885%)" offset="0.328125"/><stop stop-opacity="1" stop-color="rgb(76.73645%, 44.950867%, 85.516357%)" offset="0.332031"/><stop stop-opacity="1" stop-color="rgb(77.113342%, 44.902039%, 84.602356%)" offset="0.335937"/><stop stop-opacity="1" stop-color="rgb(77.490234%, 44.85321%, 83.688354%)" offset="0.339844"/><stop stop-opacity="1" stop-color="rgb(77.867126%, 44.805908%, 82.774353%)" offset="0.34375"/><stop stop-opacity="1" stop-color="rgb(78.242493%, 44.75708%, 81.860352%)" offset="0.347656"/><stop stop-opacity="1" stop-color="rgb(78.619385%, 44.708252%, 80.94635%)" offset="0.351562"/><stop stop-opacity="1" stop-color="rgb(78.994751%, 44.659424%, 80.032349%)" offset="0.355469"/><stop stop-opacity="1" stop-color="rgb(79.371643%, 44.612122%, 79.118347%)" offset="0.359375"/><stop stop-opacity="1" stop-color="rgb(79.748535%, 44.563293%, 78.204346%)" offset="0.363281"/><stop stop-opacity="1" stop-color="rgb(80.125427%, 44.514465%, 77.290344%)" offset="0.367187"/><stop stop-opacity="1" stop-color="rgb(80.500793%, 44.465637%, 76.374817%)" offset="0.371094"/><stop stop-opacity="1" stop-color="rgb(80.877686%, 44.418335%, 75.460815%)" offset="0.375"/><stop stop-opacity="1" stop-color="rgb(81.253052%, 44.369507%, 74.546814%)" offset="0.378906"/><stop stop-opacity="1" stop-color="rgb(81.629944%, 44.320679%, 73.632812%)" offset="0.382812"/><stop stop-opacity="1" stop-color="rgb(82.006836%, 44.271851%, 72.718811%)" offset="0.386719"/><stop stop-opacity="1" stop-color="rgb(82.383728%, 44.224548%, 71.80481%)" offset="0.390625"/><stop stop-opacity="1" stop-color="rgb(82.759094%, 44.17572%, 70.890808%)" offset="0.394531"/><stop stop-opacity="1" stop-color="rgb(83.135986%, 44.128418%, 69.976807%)" offset="0.398437"/><stop stop-opacity="1" stop-color="rgb(83.511353%, 44.07959%, 69.062805%)" offset="0.402344"/><stop stop-opacity="1" stop-color="rgb(83.888245%, 44.030762%, 68.148804%)" offset="0.40625"/><stop stop-opacity="1" stop-color="rgb(84.265137%, 43.981934%, 67.233276%)" offset="0.410156"/><stop stop-opacity="1" stop-color="rgb(84.642029%, 43.934631%, 66.319275%)" offset="0.414062"/><stop stop-opacity="1" stop-color="rgb(85.017395%, 43.885803%, 65.405273%)" offset="0.417969"/><stop stop-opacity="1" stop-color="rgb(85.394287%, 43.836975%, 64.491272%)" offset="0.421875"/><stop stop-opacity="1" stop-color="rgb(85.769653%, 43.788147%, 63.577271%)" offset="0.425781"/><stop stop-opacity="1" stop-color="rgb(86.146545%, 43.740845%, 62.663269%)" offset="0.429688"/><stop stop-opacity="1" stop-color="rgb(86.523438%, 43.692017%, 61.749268%)" offset="0.433594"/><stop stop-opacity="1" stop-color="rgb(86.90033%, 43.643188%, 60.835266%)" offset="0.4375"/><stop stop-opacity="1" stop-color="rgb(87.275696%, 43.59436%, 59.921265%)" offset="0.441406"/><stop stop-opacity="1" stop-color="rgb(87.652588%, 43.547058%, 59.007263%)" offset="0.445312"/><stop stop-opacity="1" stop-color="rgb(88.027954%, 43.49823%, 58.091736%)" offset="0.449219"/><stop stop-opacity="1" stop-color="rgb(88.404846%, 43.450928%, 57.177734%)" offset="0.453125"/><stop stop-opacity="1" stop-color="rgb(88.781738%, 43.4021%, 56.263733%)" offset="0.457031"/><stop stop-opacity="1" stop-color="rgb(89.15863%, 43.353271%, 55.349731%)" offset="0.460938"/><stop stop-opacity="1" stop-color="rgb(89.533997%, 43.304443%, 54.43573%)" offset="0.464844"/><stop stop-opacity="1" stop-color="rgb(89.910889%, 43.257141%, 53.521729%)" offset="0.46875"/><stop stop-opacity="1" stop-color="rgb(90.286255%, 43.208313%, 52.607727%)" offset="0.472656"/><stop stop-opacity="1" stop-color="rgb(90.663147%, 43.159485%, 51.693726%)" offset="0.476563"/><stop stop-opacity="1" stop-color="rgb(91.040039%, 43.110657%, 50.779724%)" offset="0.480469"/><stop stop-opacity="1" stop-color="rgb(91.416931%, 43.063354%, 49.865723%)" offset="0.484375"/><stop stop-opacity="1" stop-color="rgb(91.792297%, 43.014526%, 48.950195%)" offset="0.488281"/><stop stop-opacity="1" stop-color="rgb(92.169189%, 42.965698%, 48.036194%)" offset="0.492188"/><stop stop-opacity="1" stop-color="rgb(92.544556%, 42.91687%, 47.122192%)" offset="0.496094"/><stop stop-opacity="1" stop-color="rgb(92.921448%, 42.869568%, 46.208191%)" offset="0.5"/><stop stop-opacity="1" stop-color="rgb(93.29834%, 42.82074%, 45.294189%)" offset="0.503906"/><stop stop-opacity="1" stop-color="rgb(93.675232%, 42.771912%, 44.380188%)" offset="0.507812"/><stop stop-opacity="1" stop-color="rgb(94.050598%, 42.723083%, 43.466187%)" offset="0.511719"/><stop stop-opacity="1" stop-color="rgb(94.42749%, 42.675781%, 42.552185%)" offset="0.515625"/><stop stop-opacity="1" stop-color="rgb(94.802856%, 42.626953%, 41.638184%)" offset="0.519531"/><stop stop-opacity="1" stop-color="rgb(95.179749%, 42.579651%, 40.724182%)" offset="0.523438"/><stop stop-opacity="1" stop-color="rgb(95.556641%, 42.530823%, 39.810181%)" offset="0.527344"/><stop stop-opacity="1" stop-color="rgb(95.933533%, 42.481995%, 38.896179%)" offset="0.53125"/><stop stop-opacity="1" stop-color="rgb(96.308899%, 42.433167%, 37.980652%)" offset="0.535156"/><stop stop-opacity="1" stop-color="rgb(96.685791%, 42.385864%, 37.06665%)" offset="0.539062"/><stop stop-opacity="1" stop-color="rgb(97.061157%, 42.337036%, 36.152649%)" offset="0.542969"/><stop stop-opacity="1" stop-color="rgb(97.438049%, 42.288208%, 35.238647%)" offset="0.546875"/><stop stop-opacity="1" stop-color="rgb(97.814941%, 42.23938%, 34.324646%)" offset="0.550781"/><stop stop-opacity="1" stop-color="rgb(98.191833%, 42.192078%, 33.410645%)" offset="0.554687"/><stop stop-opacity="1" stop-color="rgb(98.5672%, 42.14325%, 32.496643%)" offset="0.558594"/><stop stop-opacity="1" stop-color="rgb(98.944092%, 42.094421%, 31.582642%)" offset="0.5625"/><stop stop-opacity="1" stop-color="rgb(99.319458%, 42.045593%, 30.66864%)" offset="0.566406"/><stop stop-opacity="1" stop-color="rgb(99.69635%, 41.998291%, 29.754639%)" offset="0.570312"/><stop stop-opacity="1" stop-color="rgb(99.441528%, 41.783142%, 29.263306%)" offset="0.574219"/><stop stop-opacity="1" stop-color="rgb(99.188232%, 41.567993%, 28.773499%)" offset="0.578125"/><stop stop-opacity="1" stop-color="rgb(98.510742%, 41.241455%, 28.567505%)" offset="0.582031"/><stop stop-opacity="1" stop-color="rgb(97.833252%, 40.914917%, 28.361511%)" offset="0.585938"/><stop stop-opacity="1" stop-color="rgb(97.155762%, 40.588379%, 28.155518%)" offset="0.589844"/><stop stop-opacity="1" stop-color="rgb(96.478271%, 40.261841%, 27.95105%)" offset="0.59375"/><stop stop-opacity="1" stop-color="rgb(95.800781%, 39.935303%, 27.745056%)" offset="0.597656"/><stop stop-opacity="1" stop-color="rgb(95.123291%, 39.608765%, 27.539062%)" offset="0.601563"/><stop stop-opacity="1" stop-color="rgb(94.445801%, 39.280701%, 27.333069%)" offset="0.605469"/><stop stop-opacity="1" stop-color="rgb(93.768311%, 38.954163%, 27.128601%)" offset="0.609375"/><stop stop-opacity="1" stop-color="rgb(93.09082%, 38.627625%, 26.922607%)" offset="0.613281"/><stop stop-opacity="1" stop-color="rgb(92.41333%, 38.301086%, 26.716614%)" offset="0.617188"/><stop stop-opacity="1" stop-color="rgb(91.73584%, 37.974548%, 26.51062%)" offset="0.621094"/><stop stop-opacity="1" stop-color="rgb(91.05835%, 37.64801%, 26.306152%)" offset="0.625"/><stop stop-opacity="1" stop-color="rgb(90.380859%, 37.321472%, 26.100159%)" offset="0.628906"/><stop stop-opacity="1" stop-color="rgb(89.703369%, 36.994934%, 25.894165%)" offset="0.632812"/><stop stop-opacity="1" stop-color="rgb(89.025879%, 36.66687%, 25.688171%)" offset="0.636719"/><stop stop-opacity="1" stop-color="rgb(88.348389%, 36.340332%, 25.483704%)" offset="0.640625"/><stop stop-opacity="1" stop-color="rgb(87.670898%, 36.013794%, 25.27771%)" offset="0.644531"/><stop stop-opacity="1" stop-color="rgb(86.993408%, 35.687256%, 25.071716%)" offset="0.648438"/><stop stop-opacity="1" stop-color="rgb(86.315918%, 35.360718%, 24.865723%)" offset="0.652344"/><stop stop-opacity="1" stop-color="rgb(85.638428%, 35.03418%, 24.661255%)" offset="0.65625"/><stop stop-opacity="1" stop-color="rgb(84.960938%, 34.707642%, 24.455261%)" offset="0.660156"/><stop stop-opacity="1" stop-color="rgb(84.283447%, 34.381104%, 24.249268%)" offset="0.664062"/><stop stop-opacity="1" stop-color="rgb(83.605957%, 34.054565%, 24.043274%)" offset="0.667969"/><stop stop-opacity="1" stop-color="rgb(82.928467%, 33.728027%, 23.838806%)" offset="0.671875"/><stop stop-opacity="1" stop-color="rgb(82.250977%, 33.399963%, 23.632812%)" offset="0.675781"/><stop stop-opacity="1" stop-color="rgb(81.573486%, 33.073425%, 23.426819%)" offset="0.679688"/><stop stop-opacity="1" stop-color="rgb(80.895996%, 32.746887%, 23.220825%)" offset="0.683594"/><stop stop-opacity="1" stop-color="rgb(80.218506%, 32.420349%, 23.016357%)" offset="0.6875"/><stop stop-opacity="1" stop-color="rgb(79.541016%, 32.093811%, 22.810364%)" offset="0.691406"/><stop stop-opacity="1" stop-color="rgb(78.863525%, 31.767273%, 22.60437%)" offset="0.695313"/><stop stop-opacity="1" stop-color="rgb(78.186035%, 31.440735%, 22.398376%)" offset="0.699219"/><stop stop-opacity="1" stop-color="rgb(77.508545%, 31.114197%, 22.193909%)" offset="0.703125"/><stop stop-opacity="1" stop-color="rgb(76.831055%, 30.786133%, 21.987915%)" offset="0.707031"/><stop stop-opacity="1" stop-color="rgb(76.153564%, 30.459595%, 21.781921%)" offset="0.710938"/><stop stop-opacity="1" stop-color="rgb(75.476074%, 30.133057%, 21.575928%)" offset="0.714844"/><stop stop-opacity="1" stop-color="rgb(74.798584%, 29.806519%, 21.37146%)" offset="0.71875"/><stop stop-opacity="1" stop-color="rgb(74.121094%, 29.47998%, 21.165466%)" offset="0.722656"/><stop stop-opacity="1" stop-color="rgb(73.443604%, 29.153442%, 20.959473%)" offset="0.726563"/><stop stop-opacity="1" stop-color="rgb(72.766113%, 28.826904%, 20.753479%)" offset="0.730469"/><stop stop-opacity="1" stop-color="rgb(72.088623%, 28.500366%, 20.549011%)" offset="0.734375"/><stop stop-opacity="1" stop-color="rgb(71.411133%, 28.172302%, 20.343018%)" offset="0.738281"/><stop stop-opacity="1" stop-color="rgb(70.733643%, 27.845764%, 20.137024%)" offset="0.742188"/><stop stop-opacity="1" stop-color="rgb(70.056152%, 27.519226%, 19.93103%)" offset="0.746094"/><stop stop-opacity="1" stop-color="rgb(69.378662%, 27.192688%, 19.726562%)" offset="0.75"/><stop stop-opacity="1" stop-color="rgb(68.701172%, 26.86615%, 19.520569%)" offset="0.753906"/><stop stop-opacity="1" stop-color="rgb(68.023682%, 26.539612%, 19.314575%)" offset="0.757813"/><stop stop-opacity="1" stop-color="rgb(67.346191%, 26.213074%, 19.108582%)" offset="0.761719"/><stop stop-opacity="1" stop-color="rgb(66.668701%, 25.886536%, 18.904114%)" offset="0.765625"/><stop stop-opacity="1" stop-color="rgb(65.991211%, 25.559998%, 18.69812%)" offset="0.769531"/><stop stop-opacity="1" stop-color="rgb(65.313721%, 25.233459%, 18.492126%)" offset="0.773438"/><stop stop-opacity="1" stop-color="rgb(64.63623%, 24.905396%, 18.286133%)" offset="0.777344"/><stop stop-opacity="1" stop-color="rgb(63.95874%, 24.578857%, 18.081665%)" offset="0.78125"/><stop stop-opacity="1" stop-color="rgb(63.28125%, 24.252319%, 17.875671%)" offset="0.785156"/><stop stop-opacity="1" stop-color="rgb(62.60376%, 23.925781%, 17.669678%)" offset="0.789063"/><stop stop-opacity="1" stop-color="rgb(61.92627%, 23.599243%, 17.463684%)" offset="0.792969"/><stop stop-opacity="1" stop-color="rgb(61.248779%, 23.272705%, 17.25769%)" offset="0.796875"/><stop stop-opacity="1" stop-color="rgb(60.571289%, 22.946167%, 17.051697%)" offset="0.800781"/><stop stop-opacity="1" stop-color="rgb(59.893799%, 22.619629%, 16.847229%)" offset="0.804688"/><stop stop-opacity="1" stop-color="rgb(59.216309%, 22.291565%, 16.641235%)" offset="0.808594"/><stop stop-opacity="1" stop-color="rgb(58.538818%, 21.965027%, 16.435242%)" offset="0.8125"/><stop stop-opacity="1" stop-color="rgb(57.861328%, 21.638489%, 16.229248%)" offset="0.816406"/><stop stop-opacity="1" stop-color="rgb(57.183838%, 21.311951%, 16.02478%)" offset="0.820312"/><stop stop-opacity="1" stop-color="rgb(56.63147%, 21.044922%, 15.856934%)" offset="0.824219"/><stop stop-opacity="1" stop-color="rgb(56.079102%, 20.779419%, 15.689087%)" offset="0.828125"/><stop stop-opacity="1" stop-color="rgb(56.079102%, 20.779419%, 15.689087%)" offset="0.84375"/><stop stop-opacity="1" stop-color="rgb(56.079102%, 20.779419%, 15.689087%)" offset="0.875"/><stop stop-opacity="1" stop-color="rgb(56.079102%, 20.779419%, 15.689087%)" offset="1"/></linearGradient></defs><g clip-path="url(#c32109f250)"><g clip-path="url(#095efcd492)"><path fill="url(#c43b67f682)" d="M 85.527344 44.671875 L 85.527344 11.410156 L 27.796875 11.410156 L 27.796875 44.671875 Z M 85.527344 44.671875 " fill-rule="nonzero"/></g></g><g fill="#000000" fill-opacity="1"><g transform="translate(105.067738, 43.494563)"><g><path d="M 10.078125 0.46875 C 8.296875 0.46875 6.96875 0.0664062 6.09375 -0.734375 C 5.226562 -1.546875 4.796875 -2.929688 4.796875 -4.890625 L 4.796875 -22.796875 L 1.453125 -22.796875 L 1.453125 -24.890625 C 1.597656 -24.921875 2.03125 -25.03125 2.75 -25.21875 C 3.46875 -25.40625 3.953125 -25.578125 4.203125 -25.734375 C 4.691406 -26.015625 5.078125 -26.578125 5.359375 -27.421875 C 5.609375 -28.003906 5.90625 -28.945312 6.25 -30.25 C 6.59375 -31.5625 6.796875 -32.34375 6.859375 -32.59375 L 9.609375 -32.59375 L 9.703125 -25.875 L 17.484375 -25.875 L 17.484375 -22.796875 L 9.703125 -22.796875 L 9.703125 -8.484375 C 9.703125 -6.710938 9.753906 -5.46875 9.859375 -4.75 C 9.972656 -4.039062 10.207031 -3.578125 10.5625 -3.359375 C 10.914062 -3.140625 11.53125 -3.03125 12.40625 -3.03125 C 13.238281 -3.03125 14.160156 -3.140625 15.171875 -3.359375 C 16.179688 -3.578125 16.96875 -3.8125 17.53125 -4.0625 L 18.234375 -1.953125 C 17.484375 -1.398438 16.273438 -0.859375 14.609375 -0.328125 C 12.953125 0.203125 11.441406 0.46875 10.078125 0.46875 Z M 10.078125 0.46875 "/></g></g></g><g fill="#000000" fill-opacity="1"><g transform="translate(122.086867, 43.494563)"><g><path d="M 2.09375 -7 C 2.09375 -9.914062 3.550781 -12.066406 6.46875 -13.453125 C 9.394531 -14.835938 13.097656 -15.578125 17.578125 -15.671875 L 17.578125 -16.96875 C 17.578125 -18.425781 17.421875 -19.578125 17.109375 -20.421875 C 16.796875 -21.265625 16.257812 -21.878906 15.5 -22.265625 C 14.738281 -22.648438 13.660156 -22.84375 12.265625 -22.84375 C 10.679688 -22.84375 9.257812 -22.617188 8 -22.171875 C 6.738281 -21.722656 5.488281 -21.171875 4.25 -20.515625 L 3.078125 -22.9375 C 3.484375 -23.28125 4.226562 -23.726562 5.3125 -24.28125 C 6.40625 -24.84375 7.664062 -25.34375 9.09375 -25.78125 C 10.519531 -26.21875 11.945312 -26.4375 13.375 -26.4375 C 15.582031 -26.4375 17.332031 -26.132812 18.625 -25.53125 C 19.914062 -24.925781 20.835938 -23.953125 21.390625 -22.609375 C 21.953125 -21.273438 22.234375 -19.488281 22.234375 -17.25 L 22.234375 -2.28125 L 24.984375 -2.28125 L 24.984375 -0.234375 C 24.367188 -0.078125 23.585938 0.078125 22.640625 0.234375 C 21.691406 0.390625 20.859375 0.46875 20.140625 0.46875 C 19.273438 0.46875 18.6875 0.332031 18.375 0.0625 C 18.0625 -0.195312 17.90625 -0.773438 17.90625 -1.671875 L 17.90625 -3.21875 C 16.96875 -2.28125 15.820312 -1.421875 14.46875 -0.640625 C 13.125 0.128906 11.597656 0.515625 9.890625 0.515625 C 7.648438 0.515625 5.789062 -0.128906 4.3125 -1.421875 C 2.832031 -2.710938 2.09375 -4.570312 2.09375 -7 Z M 11.890625 -2.65625 C 12.703125 -2.65625 13.632812 -2.90625 14.6875 -3.40625 C 15.738281 -3.90625 16.703125 -4.492188 17.578125 -5.171875 L 17.578125 -13.1875 C 14.191406 -13.1875 11.632812 -12.664062 9.90625 -11.625 C 8.175781 -10.59375 7.3125 -9.234375 7.3125 -7.546875 C 7.3125 -5.867188 7.722656 -4.632812 8.546875 -3.84375 C 9.378906 -3.050781 10.492188 -2.65625 11.890625 -2.65625 Z M 11.890625 -2.65625 "/></g></g></g><g fill="#000000" fill-opacity="1"><g transform="translate(146.286748, 43.494563)"><g><path d="M 1.53125 -12.78125 C 1.53125 -15.351562 2.035156 -17.679688 3.046875 -19.765625 C 4.054688 -21.847656 5.546875 -23.503906 7.515625 -24.734375 C 9.492188 -25.960938 11.867188 -26.578125 14.640625 -26.578125 C 15.972656 -26.578125 17.117188 -26.453125 18.078125 -26.203125 C 19.046875 -25.953125 20.203125 -25.609375 21.546875 -25.171875 L 21.359375 -18 L 18.328125 -18 L 17.296875 -22.75 C 17.109375 -23.625 15.925781 -24.0625 13.75 -24.0625 C 11.570312 -24.0625 9.851562 -23.179688 8.59375 -21.421875 C 7.34375 -19.671875 6.71875 -17.175781 6.71875 -13.9375 C 6.71875 -10.269531 7.421875 -7.476562 8.828125 -5.5625 C 10.242188 -3.65625 12.085938 -2.703125 14.359375 -2.703125 C 15.660156 -2.703125 16.894531 -2.90625 18.0625 -3.3125 C 19.226562 -3.71875 20.234375 -4.195312 21.078125 -4.75 L 21.953125 -2.890625 C 21.117188 -2.015625 19.882812 -1.226562 18.25 -0.53125 C 16.625 0.164062 14.96875 0.515625 13.28125 0.515625 C 10.738281 0.515625 8.585938 -0.0546875 6.828125 -1.203125 C 5.078125 -2.359375 3.753906 -3.9375 2.859375 -5.9375 C 1.972656 -7.945312 1.53125 -10.226562 1.53125 -12.78125 Z M 1.53125 -12.78125 "/></g></g></g><g fill="#000000" fill-opacity="1"><g transform="translate(168.248469, 43.494563)"><g><path d="M 7.59375 -30.546875 C 6.601562 -30.546875 5.859375 -30.820312 5.359375 -31.375 C 4.859375 -31.9375 4.609375 -32.648438 4.609375 -33.515625 C 4.609375 -34.515625 4.910156 -35.335938 5.515625 -35.984375 C 6.128906 -36.640625 6.960938 -36.96875 8.015625 -36.96875 C 9.078125 -36.96875 9.851562 -36.6875 10.34375 -36.125 C 10.84375 -35.570312 11.09375 -34.859375 11.09375 -33.984375 C 11.09375 -32.929688 10.789062 -32.09375 10.1875 -31.46875 C 9.582031 -30.851562 8.734375 -30.546875 7.640625 -30.546875 Z M 5.734375 -22.28125 L 2.1875 -23.125 L 2.1875 -25.59375 L 9.421875 -26.484375 L 9.515625 -26.484375 L 10.578125 -25.640625 L 10.578125 -2.65625 L 14.3125 -2.28125 L 14.3125 0 L 1.953125 0 L 1.953125 -2.28125 L 5.734375 -2.703125 Z M 5.734375 -22.28125 "/></g></g></g><g fill="#000000" fill-opacity="1"><g transform="translate(181.817102, 43.494563)"><g><path d="M -0.046875 -25.875 L 10.765625 -25.875 L 10.765625 -23.6875 L 7.453125 -23.078125 L 12.171875 -9.65625 L 14.125 -3.734375 L 15.8125 -9.46875 L 20.515625 -23.078125 L 17.34375 -23.6875 L 17.34375 -25.875 L 26.8125 -25.875 L 26.8125 -23.6875 L 24.390625 -23.078125 L 15.390625 0.375 L 11.421875 0.375 L 2.046875 -23.078125 L -0.046875 -23.6875 Z M -0.046875 -25.875 "/></g></g></g><g fill="#000000" fill-opacity="1"><g transform="translate(206.343377, 43.494563)"><g><path d="M 2.09375 -13.015625 C 2.09375 -15.804688 2.664062 -18.226562 3.8125 -20.28125 C 4.96875 -22.332031 6.484375 -23.894531 8.359375 -24.96875 C 10.242188 -26.039062 12.257812 -26.578125 14.40625 -26.578125 C 18.320312 -26.578125 21.265625 -25.332031 23.234375 -22.84375 C 25.210938 -20.351562 26.203125 -17.09375 26.203125 -13.0625 C 26.203125 -10.226562 25.625 -7.785156 24.46875 -5.734375 C 23.320312 -3.679688 21.804688 -2.125 19.921875 -1.0625 C 18.046875 -0.0078125 16.035156 0.515625 13.890625 0.515625 C 9.972656 0.515625 7.023438 -0.726562 5.046875 -3.21875 C 3.078125 -5.707031 2.09375 -8.972656 2.09375 -13.015625 Z M 14.171875 -2.140625 C 16.316406 -2.140625 17.960938 -3.023438 19.109375 -4.796875 C 20.265625 -6.566406 20.84375 -9.195312 20.84375 -12.6875 C 20.84375 -16.132812 20.3125 -18.867188 19.25 -20.890625 C 18.195312 -22.910156 16.503906 -23.921875 14.171875 -23.921875 C 12.023438 -23.921875 10.367188 -23.035156 9.203125 -21.265625 C 8.035156 -19.492188 7.453125 -16.863281 7.453125 -13.375 C 7.453125 -9.925781 7.992188 -7.191406 9.078125 -5.171875 C 10.171875 -3.148438 11.867188 -2.140625 14.171875 -2.140625 Z M 14.171875 -2.140625 "/></g></g></g></svg>