<svg xmlns="http://www.w3.org/2000/svg" xmlns:xlink="http://www.w3.org/1999/xlink" width="350" zoomAndPan="magnify" viewBox="0 0 262.5 56.249996" height="75" preserveAspectRatio="xMidYMid meet" version="1.0"><defs><g/><clipPath id="c284e31f46"><path d="M 17.433594 12.960938 L 68.503906 12.960938 L 68.503906 42.566406 L 17.433594 42.566406 Z M 17.433594 12.960938 " clip-rule="nonzero"/></clipPath><clipPath id="2eff25414a"><path d="M 32.183594 12.96875 C 36.179688 12.96875 40.023438 14.714844 42.824219 17.777344 L 42.910156 17.683594 C 44.308594 16.183594 45.949219 15.023438 47.828125 14.203125 C 49.710938 13.382812 51.675781 12.972656 53.730469 12.96875 C 61.875 12.96875 68.503906 19.597656 68.503906 27.746094 C 68.503906 35.890625 61.875 42.519531 53.730469 42.519531 C 52.71875 42.519531 51.71875 42.414062 50.734375 42.203125 C 49.746094 41.992188 48.792969 41.675781 47.871094 41.261719 C 46.949219 40.847656 46.082031 40.339844 45.269531 39.742188 C 44.457031 39.140625 43.71875 38.460938 43.050781 37.707031 C 42.929688 37.871094 42.796875 38.023438 42.65625 38.167969 C 41.273438 39.566406 39.671875 40.640625 37.855469 41.394531 C 36.039062 42.148438 34.148438 42.523438 32.183594 42.519531 C 24.035156 42.519531 17.410156 35.890625 17.410156 27.746094 C 17.410156 19.597656 24.035156 12.96875 32.183594 12.96875 Z M 39.652344 31.347656 C 39.367188 30.355469 39.164062 29.382812 38.964844 28.429688 C 38.523438 26.320312 38.175781 24.65625 37.109375 23.398438 C 35.808594 21.855469 34.011719 20.972656 32.183594 20.972656 C 31.90625 20.972656 31.628906 20.988281 31.355469 21.023438 C 31.078125 21.058594 30.804688 21.109375 30.539062 21.175781 C 30.269531 21.242188 30.003906 21.328125 29.746094 21.425781 C 29.484375 21.527344 29.234375 21.640625 28.988281 21.773438 C 28.746094 21.902344 28.507812 22.050781 28.28125 22.210938 C 28.054688 22.371094 27.839844 22.542969 27.632812 22.730469 C 27.429688 22.914062 27.234375 23.113281 27.054688 23.324219 C 26.871094 23.535156 26.703125 23.753906 26.550781 23.984375 C 26.398438 24.214844 26.257812 24.457031 26.132812 24.703125 C 26.007812 24.953125 25.898438 25.207031 25.804688 25.46875 C 25.710938 25.730469 25.636719 25.996094 25.574219 26.265625 C 25.515625 26.535156 25.472656 26.808594 25.445312 27.085938 C 25.417969 27.363281 25.40625 27.640625 25.414062 27.917969 C 25.421875 28.195312 25.445312 28.46875 25.484375 28.746094 C 25.527344 29.019531 25.585938 29.289062 25.660156 29.558594 C 25.734375 29.824219 25.824219 30.085938 25.929688 30.34375 C 26.035156 30.597656 26.160156 30.847656 26.296875 31.089844 C 26.433594 31.332031 26.582031 31.5625 26.75 31.785156 C 26.914062 32.007812 27.09375 32.21875 27.285156 32.421875 C 27.476562 32.621094 27.679688 32.808594 27.894531 32.984375 C 28.109375 33.160156 28.335938 33.324219 28.570312 33.46875 C 28.804688 33.617188 29.046875 33.75 29.296875 33.871094 C 29.546875 33.988281 29.804688 34.089844 30.070312 34.175781 C 30.332031 34.265625 30.601562 34.335938 30.875 34.386719 C 31.144531 34.441406 31.421875 34.476562 31.695312 34.5 C 31.972656 34.519531 32.25 34.519531 32.527344 34.507812 C 32.804688 34.492188 33.082031 34.460938 33.355469 34.414062 C 33.625 34.367188 33.894531 34.300781 34.160156 34.21875 C 34.425781 34.140625 34.6875 34.042969 34.941406 33.929688 C 35.195312 33.816406 35.4375 33.6875 35.675781 33.546875 C 35.914062 33.402344 36.140625 33.246094 36.359375 33.074219 C 36.578125 32.902344 36.785156 32.71875 36.980469 32.523438 C 37.71875 31.777344 38.605469 31.386719 39.652344 31.347656 Z M 53.730469 34.515625 C 54.007812 34.515625 54.289062 34.5 54.566406 34.464844 C 54.84375 34.429688 55.117188 34.378906 55.390625 34.308594 C 55.660156 34.242188 55.925781 34.15625 56.1875 34.054688 C 56.449219 33.953125 56.703125 33.835938 56.949219 33.703125 C 57.195312 33.570312 57.433594 33.421875 57.660156 33.257812 C 57.886719 33.097656 58.105469 32.921875 58.3125 32.730469 C 58.519531 32.542969 58.710938 32.339844 58.894531 32.128906 C 59.074219 31.914062 59.242188 31.691406 59.394531 31.457031 C 59.546875 31.222656 59.6875 30.980469 59.808594 30.726562 C 59.933594 30.476562 60.039062 30.21875 60.132812 29.953125 C 60.222656 29.6875 60.296875 29.417969 60.355469 29.144531 C 60.414062 28.871094 60.453125 28.59375 60.476562 28.316406 C 60.5 28.039062 60.507812 27.757812 60.496094 27.476562 C 60.484375 27.199219 60.457031 26.921875 60.414062 26.644531 C 60.367188 26.367188 60.304688 26.09375 60.226562 25.828125 C 60.144531 25.558594 60.050781 25.296875 59.9375 25.039062 C 59.828125 24.78125 59.699219 24.535156 59.558594 24.292969 C 59.414062 24.050781 59.257812 23.820312 59.085938 23.597656 C 58.914062 23.378906 58.730469 23.167969 58.53125 22.96875 C 58.335938 22.769531 58.125 22.585938 57.90625 22.414062 C 57.683594 22.238281 57.453125 22.082031 57.214844 21.9375 C 56.976562 21.792969 56.726562 21.664062 56.46875 21.550781 C 56.214844 21.4375 55.953125 21.339844 55.683594 21.261719 C 55.417969 21.179688 55.144531 21.117188 54.867188 21.070312 C 54.59375 21.023438 54.3125 20.992188 54.035156 20.980469 C 53.753906 20.96875 53.476562 20.972656 53.195312 20.992188 C 52.917969 21.015625 52.640625 21.054688 52.367188 21.113281 C 52.09375 21.167969 51.824219 21.242188 51.558594 21.332031 C 51.292969 21.421875 51.035156 21.527344 50.78125 21.648438 C 50.53125 21.769531 50.285156 21.90625 50.050781 22.058594 C 49.816406 22.210938 49.589844 22.378906 49.375 22.558594 C 49.164062 22.738281 48.960938 22.929688 48.769531 23.136719 L 48.71875 23.1875 C 48.0625 23.914062 47.246094 24.339844 46.273438 24.464844 C 46.488281 25.273438 46.648438 26.0625 46.804688 26.789062 C 47.125 28.289062 47.417969 29.707031 47.992188 30.84375 C 49.125 33.109375 51.328125 34.515625 53.730469 34.515625 Z M 53.730469 34.515625 " clip-rule="nonzero"/></clipPath><linearGradient x1="-1.770704" gradientTransform="matrix(-0.106353, 0, 0, -0.106353, 69.544455, 53.248974)" y1="352.991151" x2="501.608613" gradientUnits="userSpaceOnUse" y2="126.701175" id="d277c578e5"><stop stop-opacity="1" stop-color="rgb(56.079102%, 20.779419%, 15.689087%)" offset="0"/><stop stop-opacity="1" stop-color="rgb(56.079102%, 20.779419%, 15.689087%)" offset="0.0625"/><stop stop-opacity="1" stop-color="rgb(56.079102%, 20.779419%, 15.689087%)" offset="0.09375"/><stop stop-opacity="1" stop-color="rgb(56.079102%, 20.779419%, 15.689087%)" offset="0.109375"/><stop stop-opacity="1" stop-color="rgb(56.947327%, 21.19751%, 15.953064%)" offset="0.113281"/><stop stop-opacity="1" stop-color="rgb(57.815552%, 21.617126%, 16.217041%)" offset="0.117188"/><stop stop-opacity="1" stop-color="rgb(58.773804%, 22.077942%, 16.506958%)" offset="0.121094"/><stop stop-opacity="1" stop-color="rgb(59.732056%, 22.540283%, 16.798401%)" offset="0.125"/><stop stop-opacity="1" stop-color="rgb(60.690308%, 23.002625%, 17.088318%)" offset="0.128906"/><stop stop-opacity="1" stop-color="rgb(61.64856%, 23.464966%, 17.379761%)" offset="0.132813"/><stop stop-opacity="1" stop-color="rgb(62.606812%, 23.927307%, 17.669678%)" offset="0.136719"/><stop stop-opacity="1" stop-color="rgb(63.565063%, 24.389648%, 17.961121%)" offset="0.140625"/><stop stop-opacity="1" stop-color="rgb(64.523315%, 24.85199%, 18.251038%)" offset="0.144531"/><stop stop-opacity="1" stop-color="rgb(65.481567%, 25.314331%, 18.54248%)" offset="0.148438"/><stop stop-opacity="1" stop-color="rgb(66.439819%, 25.775146%, 18.833923%)" offset="0.152344"/><stop stop-opacity="1" stop-color="rgb(67.398071%, 26.237488%, 19.125366%)" offset="0.15625"/><stop stop-opacity="1" stop-color="rgb(68.356323%, 26.699829%, 19.415283%)" offset="0.160156"/><stop stop-opacity="1" stop-color="rgb(69.314575%, 27.16217%, 19.706726%)" offset="0.164063"/><stop stop-opacity="1" stop-color="rgb(70.272827%, 27.624512%, 19.996643%)" offset="0.167969"/><stop stop-opacity="1" stop-color="rgb(71.231079%, 28.086853%, 20.288086%)" offset="0.171875"/><stop stop-opacity="1" stop-color="rgb(72.189331%, 28.547668%, 20.578003%)" offset="0.175781"/><stop stop-opacity="1" stop-color="rgb(73.147583%, 29.01001%, 20.869446%)" offset="0.179688"/><stop stop-opacity="1" stop-color="rgb(74.105835%, 29.472351%, 21.159363%)" offset="0.183594"/><stop stop-opacity="1" stop-color="rgb(75.064087%, 29.934692%, 21.450806%)" offset="0.1875"/><stop stop-opacity="1" stop-color="rgb(76.022339%, 30.397034%, 21.742249%)" offset="0.191406"/><stop stop-opacity="1" stop-color="rgb(76.980591%, 30.859375%, 22.033691%)" offset="0.195313"/><stop stop-opacity="1" stop-color="rgb(77.938843%, 31.32019%, 22.323608%)" offset="0.199219"/><stop stop-opacity="1" stop-color="rgb(78.897095%, 31.782532%, 22.615051%)" offset="0.203125"/><stop stop-opacity="1" stop-color="rgb(79.855347%, 32.244873%, 22.904968%)" offset="0.207031"/><stop stop-opacity="1" stop-color="rgb(80.813599%, 32.707214%, 23.196411%)" offset="0.210938"/><stop stop-opacity="1" stop-color="rgb(81.771851%, 33.169556%, 23.486328%)" offset="0.214844"/><stop stop-opacity="1" stop-color="rgb(82.730103%, 33.631897%, 23.777771%)" offset="0.21875"/><stop stop-opacity="1" stop-color="rgb(83.688354%, 34.092712%, 24.067688%)" offset="0.222656"/><stop stop-opacity="1" stop-color="rgb(84.646606%, 34.555054%, 24.359131%)" offset="0.226563"/><stop stop-opacity="1" stop-color="rgb(85.604858%, 35.017395%, 24.650574%)" offset="0.230469"/><stop stop-opacity="1" stop-color="rgb(86.56311%, 35.479736%, 24.942017%)" offset="0.234375"/><stop stop-opacity="1" stop-color="rgb(87.521362%, 35.942078%, 25.231934%)" offset="0.238281"/><stop stop-opacity="1" stop-color="rgb(88.479614%, 36.404419%, 25.523376%)" offset="0.242188"/><stop stop-opacity="1" stop-color="rgb(89.437866%, 36.86676%, 25.813293%)" offset="0.246094"/><stop stop-opacity="1" stop-color="rgb(90.396118%, 37.329102%, 26.104736%)" offset="0.25"/><stop stop-opacity="1" stop-color="rgb(91.35437%, 37.789917%, 26.394653%)" offset="0.253906"/><stop stop-opacity="1" stop-color="rgb(92.312622%, 38.252258%, 26.686096%)" offset="0.257812"/><stop stop-opacity="1" stop-color="rgb(93.270874%, 38.7146%, 26.976013%)" offset="0.261719"/><stop stop-opacity="1" stop-color="rgb(94.229126%, 39.176941%, 27.267456%)" offset="0.265625"/><stop stop-opacity="1" stop-color="rgb(95.187378%, 39.639282%, 27.558899%)" offset="0.269531"/><stop stop-opacity="1" stop-color="rgb(96.14563%, 40.101624%, 27.850342%)" offset="0.273438"/><stop stop-opacity="1" stop-color="rgb(97.103882%, 40.562439%, 28.140259%)" offset="0.277344"/><stop stop-opacity="1" stop-color="rgb(98.062134%, 41.02478%, 28.431702%)" offset="0.28125"/><stop stop-opacity="1" stop-color="rgb(99.020386%, 41.487122%, 28.721619%)" offset="0.285156"/><stop stop-opacity="1" stop-color="rgb(99.978638%, 41.949463%, 29.013062%)" offset="0.289062"/><stop stop-opacity="1" stop-color="rgb(99.989319%, 41.954041%, 29.016113%)" offset="0.296875"/><stop stop-opacity="1" stop-color="rgb(100%, 41.958618%, 29.019165%)" offset="0.3125"/><stop stop-opacity="1" stop-color="rgb(100%, 41.958618%, 29.019165%)" offset="0.375"/><stop stop-opacity="1" stop-color="rgb(100%, 41.958618%, 29.019165%)" offset="0.5"/><stop stop-opacity="1" stop-color="rgb(100%, 41.958618%, 29.019165%)" offset="0.5625"/><stop stop-opacity="1" stop-color="rgb(100%, 41.958618%, 29.019165%)" offset="0.570312"/><stop stop-opacity="1" stop-color="rgb(99.597168%, 41.764832%, 28.897095%)" offset="0.574219"/><stop stop-opacity="1" stop-color="rgb(99.195862%, 41.571045%, 28.775024%)" offset="0.578125"/><stop stop-opacity="1" stop-color="rgb(98.516846%, 41.242981%, 28.569031%)" offset="0.582031"/><stop stop-opacity="1" stop-color="rgb(97.83783%, 40.916443%, 28.363037%)" offset="0.585938"/><stop stop-opacity="1" stop-color="rgb(97.158813%, 40.588379%, 28.157043%)" offset="0.589844"/><stop stop-opacity="1" stop-color="rgb(96.479797%, 40.261841%, 27.95105%)" offset="0.59375"/><stop stop-opacity="1" stop-color="rgb(95.800781%, 39.933777%, 27.745056%)" offset="0.597656"/><stop stop-opacity="1" stop-color="rgb(95.123291%, 39.607239%, 27.539062%)" offset="0.601563"/><stop stop-opacity="1" stop-color="rgb(94.444275%, 39.279175%, 27.333069%)" offset="0.605469"/><stop stop-opacity="1" stop-color="rgb(93.765259%, 38.952637%, 27.127075%)" offset="0.609375"/><stop stop-opacity="1" stop-color="rgb(93.086243%, 38.624573%, 26.921082%)" offset="0.613281"/><stop stop-opacity="1" stop-color="rgb(92.407227%, 38.298035%, 26.715088%)" offset="0.617188"/><stop stop-opacity="1" stop-color="rgb(91.72821%, 37.969971%, 26.509094%)" offset="0.621094"/><stop stop-opacity="1" stop-color="rgb(91.05072%, 37.643433%, 26.303101%)" offset="0.625"/><stop stop-opacity="1" stop-color="rgb(90.371704%, 37.315369%, 26.097107%)" offset="0.628906"/><stop stop-opacity="1" stop-color="rgb(89.692688%, 36.988831%, 25.891113%)" offset="0.632812"/><stop stop-opacity="1" stop-color="rgb(89.013672%, 36.660767%, 25.68512%)" offset="0.636719"/><stop stop-opacity="1" stop-color="rgb(88.334656%, 36.334229%, 25.479126%)" offset="0.640625"/><stop stop-opacity="1" stop-color="rgb(87.65564%, 36.006165%, 25.273132%)" offset="0.644531"/><stop stop-opacity="1" stop-color="rgb(86.978149%, 35.679626%, 25.067139%)" offset="0.648437"/><stop stop-opacity="1" stop-color="rgb(86.299133%, 35.351562%, 24.861145%)" offset="0.652344"/><stop stop-opacity="1" stop-color="rgb(85.620117%, 35.025024%, 24.655151%)" offset="0.65625"/><stop stop-opacity="1" stop-color="rgb(84.941101%, 34.69696%, 24.449158%)" offset="0.660156"/><stop stop-opacity="1" stop-color="rgb(84.262085%, 34.370422%, 24.243164%)" offset="0.664062"/><stop stop-opacity="1" stop-color="rgb(83.583069%, 34.042358%, 24.03717%)" offset="0.667969"/><stop stop-opacity="1" stop-color="rgb(82.905579%, 33.71582%, 23.831177%)" offset="0.671875"/><stop stop-opacity="1" stop-color="rgb(82.226562%, 33.387756%, 23.625183%)" offset="0.675781"/><stop stop-opacity="1" stop-color="rgb(81.547546%, 33.061218%, 23.419189%)" offset="0.679688"/><stop stop-opacity="1" stop-color="rgb(80.86853%, 32.733154%, 23.213196%)" offset="0.683594"/><stop stop-opacity="1" stop-color="rgb(80.189514%, 32.406616%, 23.007202%)" offset="0.6875"/><stop stop-opacity="1" stop-color="rgb(79.510498%, 32.078552%, 22.801208%)" offset="0.691406"/><stop stop-opacity="1" stop-color="rgb(78.833008%, 31.752014%, 22.595215%)" offset="0.695312"/><stop stop-opacity="1" stop-color="rgb(78.153992%, 31.42395%, 22.389221%)" offset="0.699219"/><stop stop-opacity="1" stop-color="rgb(77.474976%, 31.097412%, 22.183228%)" offset="0.703125"/><stop stop-opacity="1" stop-color="rgb(76.795959%, 30.769348%, 21.977234%)" offset="0.707031"/><stop stop-opacity="1" stop-color="rgb(76.116943%, 30.44281%, 21.77124%)" offset="0.710938"/><stop stop-opacity="1" stop-color="rgb(75.437927%, 30.114746%, 21.565247%)" offset="0.714844"/><stop stop-opacity="1" stop-color="rgb(74.760437%, 29.788208%, 21.359253%)" offset="0.71875"/><stop stop-opacity="1" stop-color="rgb(74.081421%, 29.460144%, 21.153259%)" offset="0.722656"/><stop stop-opacity="1" stop-color="rgb(73.402405%, 29.133606%, 20.947266%)" offset="0.726562"/><stop stop-opacity="1" stop-color="rgb(72.723389%, 28.805542%, 20.741272%)" offset="0.730469"/><stop stop-opacity="1" stop-color="rgb(72.044373%, 28.479004%, 20.535278%)" offset="0.734375"/><stop stop-opacity="1" stop-color="rgb(71.365356%, 28.15094%, 20.329285%)" offset="0.738281"/><stop stop-opacity="1" stop-color="rgb(70.687866%, 27.824402%, 20.123291%)" offset="0.742187"/><stop stop-opacity="1" stop-color="rgb(70.00885%, 27.496338%, 19.917297%)" offset="0.746094"/><stop stop-opacity="1" stop-color="rgb(69.329834%, 27.1698%, 19.711304%)" offset="0.75"/><stop stop-opacity="1" stop-color="rgb(68.650818%, 26.841736%, 19.50531%)" offset="0.753906"/><stop stop-opacity="1" stop-color="rgb(67.971802%, 26.515198%, 19.299316%)" offset="0.757813"/><stop stop-opacity="1" stop-color="rgb(67.292786%, 26.187134%, 19.093323%)" offset="0.761719"/><stop stop-opacity="1" stop-color="rgb(66.615295%, 25.860596%, 18.887329%)" offset="0.765625"/><stop stop-opacity="1" stop-color="rgb(65.936279%, 25.532532%, 18.681335%)" offset="0.769531"/><stop stop-opacity="1" stop-color="rgb(65.257263%, 25.205994%, 18.475342%)" offset="0.773438"/><stop stop-opacity="1" stop-color="rgb(64.578247%, 24.87793%, 18.269348%)" offset="0.777344"/><stop stop-opacity="1" stop-color="rgb(63.899231%, 24.551392%, 18.063354%)" offset="0.78125"/><stop stop-opacity="1" stop-color="rgb(63.220215%, 24.223328%, 17.857361%)" offset="0.785156"/><stop stop-opacity="1" stop-color="rgb(62.542725%, 23.89679%, 17.651367%)" offset="0.789062"/><stop stop-opacity="1" stop-color="rgb(61.863708%, 23.568726%, 17.445374%)" offset="0.792969"/><stop stop-opacity="1" stop-color="rgb(61.184692%, 23.240662%, 17.23938%)" offset="0.796875"/><stop stop-opacity="1" stop-color="rgb(60.505676%, 22.912598%, 17.033386%)" offset="0.800781"/><stop stop-opacity="1" stop-color="rgb(59.82666%, 22.58606%, 16.827393%)" offset="0.804688"/><stop stop-opacity="1" stop-color="rgb(59.147644%, 22.257996%, 16.621399%)" offset="0.808594"/><stop stop-opacity="1" stop-color="rgb(58.470154%, 21.931458%, 16.415405%)" offset="0.8125"/><stop stop-opacity="1" stop-color="rgb(57.791138%, 21.603394%, 16.209412%)" offset="0.816406"/><stop stop-opacity="1" stop-color="rgb(57.112122%, 21.276855%, 16.003418%)" offset="0.820312"/><stop stop-opacity="1" stop-color="rgb(56.594849%, 21.028137%, 15.846252%)" offset="0.824219"/><stop stop-opacity="1" stop-color="rgb(56.079102%, 20.779419%, 15.689087%)" offset="0.828125"/><stop stop-opacity="1" stop-color="rgb(56.079102%, 20.779419%, 15.689087%)" offset="0.84375"/><stop stop-opacity="1" stop-color="rgb(56.079102%, 20.779419%, 15.689087%)" offset="0.875"/><stop stop-opacity="1" stop-color="rgb(56.079102%, 20.779419%, 15.689087%)" offset="1"/></linearGradient></defs><g fill="#000000" fill-opacity="1"><g transform="translate(80.764503, 41.077296)"><g><path d="M 8.796875 0.40625 C 7.242188 0.40625 6.085938 0.0546875 5.328125 -0.640625 C 4.566406 -1.347656 4.1875 -2.5625 4.1875 -4.28125 L 4.1875 -19.90625 L 1.265625 -19.90625 L 1.265625 -21.734375 C 1.398438 -21.765625 1.78125 -21.859375 2.40625 -22.015625 C 3.03125 -22.179688 3.445312 -22.332031 3.65625 -22.46875 C 4.09375 -22.707031 4.4375 -23.195312 4.6875 -23.9375 C 4.894531 -24.445312 5.148438 -25.269531 5.453125 -26.40625 C 5.753906 -27.550781 5.929688 -28.234375 5.984375 -28.453125 L 8.390625 -28.453125 L 8.46875 -22.59375 L 15.265625 -22.59375 L 15.265625 -19.90625 L 8.46875 -19.90625 L 8.46875 -7.40625 C 8.46875 -5.863281 8.515625 -4.78125 8.609375 -4.15625 C 8.703125 -3.53125 8.90625 -3.117188 9.21875 -2.921875 C 9.53125 -2.734375 10.066406 -2.640625 10.828125 -2.640625 C 11.554688 -2.640625 12.363281 -2.734375 13.25 -2.921875 C 14.132812 -3.117188 14.816406 -3.328125 15.296875 -3.546875 L 15.921875 -1.703125 C 15.265625 -1.222656 14.207031 -0.75 12.75 -0.28125 C 11.300781 0.175781 9.984375 0.40625 8.796875 0.40625 Z M 8.796875 0.40625 "/></g></g></g><g fill="#000000" fill-opacity="1"><g transform="translate(95.62246, 41.077296)"><g><path d="M 1.828125 -6.109375 C 1.828125 -8.660156 3.101562 -10.535156 5.65625 -11.734375 C 8.207031 -12.941406 11.4375 -13.585938 15.34375 -13.671875 L 15.34375 -14.8125 C 15.34375 -16.09375 15.207031 -17.097656 14.9375 -17.828125 C 14.664062 -18.554688 14.195312 -19.085938 13.53125 -19.421875 C 12.863281 -19.765625 11.921875 -19.9375 10.703125 -19.9375 C 9.316406 -19.9375 8.070312 -19.738281 6.96875 -19.34375 C 5.875 -18.957031 4.785156 -18.476562 3.703125 -17.90625 L 2.6875 -20.03125 C 3.039062 -20.320312 3.691406 -20.710938 4.640625 -21.203125 C 5.585938 -21.691406 6.6875 -22.125 7.9375 -22.5 C 9.1875 -22.882812 10.4375 -23.078125 11.6875 -23.078125 C 13.613281 -23.078125 15.140625 -22.8125 16.265625 -22.28125 C 17.390625 -21.75 18.195312 -20.898438 18.6875 -19.734375 C 19.175781 -18.566406 19.421875 -17.007812 19.421875 -15.0625 L 19.421875 -2 L 21.8125 -2 L 21.8125 -0.203125 C 21.269531 -0.0664062 20.582031 0.0664062 19.75 0.203125 C 18.925781 0.335938 18.203125 0.40625 17.578125 0.40625 C 16.816406 0.40625 16.300781 0.289062 16.03125 0.0625 C 15.757812 -0.164062 15.625 -0.675781 15.625 -1.46875 L 15.625 -2.8125 C 14.8125 -2 13.816406 -1.25 12.640625 -0.5625 C 11.460938 0.113281 10.125 0.453125 8.625 0.453125 C 6.675781 0.453125 5.054688 -0.109375 3.765625 -1.234375 C 2.472656 -2.367188 1.828125 -3.992188 1.828125 -6.109375 Z M 10.375 -2.3125 C 11.082031 -2.3125 11.894531 -2.53125 12.8125 -2.96875 C 13.738281 -3.40625 14.582031 -3.921875 15.34375 -4.515625 L 15.34375 -11.515625 C 12.382812 -11.515625 10.148438 -11.0625 8.640625 -10.15625 C 7.140625 -9.25 6.390625 -8.0625 6.390625 -6.59375 C 6.390625 -5.125 6.75 -4.039062 7.46875 -3.34375 C 8.1875 -2.65625 9.15625 -2.3125 10.375 -2.3125 Z M 10.375 -2.3125 "/></g></g></g><g fill="#000000" fill-opacity="1"><g transform="translate(116.749343, 41.077296)"><g><path d="M 1.34375 -11.15625 C 1.34375 -13.40625 1.78125 -15.4375 2.65625 -17.25 C 3.539062 -19.070312 4.84375 -20.519531 6.5625 -21.59375 C 8.289062 -22.664062 10.363281 -23.203125 12.78125 -23.203125 C 13.945312 -23.203125 14.945312 -23.09375 15.78125 -22.875 C 16.625 -22.65625 17.632812 -22.359375 18.8125 -21.984375 L 18.640625 -15.71875 L 16 -15.71875 L 15.09375 -19.859375 C 14.9375 -20.617188 13.90625 -21 12 -21 C 10.101562 -21 8.601562 -20.234375 7.5 -18.703125 C 6.40625 -17.171875 5.859375 -14.992188 5.859375 -12.171875 C 5.859375 -8.972656 6.472656 -6.535156 7.703125 -4.859375 C 8.941406 -3.191406 10.550781 -2.359375 12.53125 -2.359375 C 13.675781 -2.359375 14.753906 -2.535156 15.765625 -2.890625 C 16.785156 -3.242188 17.660156 -3.664062 18.390625 -4.15625 L 19.171875 -2.53125 C 18.441406 -1.769531 17.363281 -1.082031 15.9375 -0.46875 C 14.507812 0.144531 13.0625 0.453125 11.59375 0.453125 C 9.375 0.453125 7.492188 -0.046875 5.953125 -1.046875 C 4.421875 -2.054688 3.269531 -3.4375 2.5 -5.1875 C 1.726562 -6.9375 1.34375 -8.925781 1.34375 -11.15625 Z M 1.34375 -11.15625 "/></g></g></g><g fill="#000000" fill-opacity="1"><g transform="translate(135.922268, 41.077296)"><g><path d="M 6.640625 -26.65625 C 5.765625 -26.65625 5.109375 -26.898438 4.671875 -27.390625 C 4.242188 -27.878906 4.03125 -28.503906 4.03125 -29.265625 C 4.03125 -30.128906 4.289062 -30.847656 4.8125 -31.421875 C 5.34375 -31.992188 6.070312 -32.28125 7 -32.28125 C 7.925781 -32.28125 8.601562 -32.035156 9.03125 -31.546875 C 9.46875 -31.054688 9.6875 -30.429688 9.6875 -29.671875 C 9.6875 -28.742188 9.421875 -28.007812 8.890625 -27.46875 C 8.359375 -26.925781 7.617188 -26.65625 6.671875 -26.65625 Z M 5 -19.453125 L 1.90625 -20.1875 L 1.90625 -22.34375 L 8.21875 -23.125 L 8.296875 -23.125 L 9.234375 -22.390625 L 9.234375 -2.3125 L 12.5 -2 L 12.5 0 L 1.703125 0 L 1.703125 -2 L 5 -2.359375 Z M 5 -19.453125 "/></g></g></g><g fill="#000000" fill-opacity="1"><g transform="translate(147.767884, 41.077296)"><g><path d="M -0.046875 -22.59375 L 9.40625 -22.59375 L 9.40625 -20.671875 L 6.515625 -20.140625 L 10.625 -8.421875 L 12.328125 -3.25 L 13.796875 -8.265625 L 17.90625 -20.140625 L 15.140625 -20.671875 L 15.140625 -22.59375 L 23.40625 -22.59375 L 23.40625 -20.671875 L 21.28125 -20.140625 L 13.4375 0.328125 L 9.96875 0.328125 L 1.796875 -20.140625 L -0.046875 -20.671875 Z M -0.046875 -22.59375 "/></g></g></g><g fill="#000000" fill-opacity="1"><g transform="translate(169.179714, 41.077296)"><g><path d="M 1.828125 -11.359375 C 1.828125 -13.796875 2.328125 -15.910156 3.328125 -17.703125 C 4.335938 -19.492188 5.660156 -20.859375 7.296875 -21.796875 C 8.941406 -22.734375 10.703125 -23.203125 12.578125 -23.203125 C 15.992188 -23.203125 18.5625 -22.113281 20.28125 -19.9375 C 22.007812 -17.769531 22.875 -14.921875 22.875 -11.390625 C 22.875 -8.921875 22.367188 -6.789062 21.359375 -5 C 20.359375 -3.207031 19.035156 -1.847656 17.390625 -0.921875 C 15.753906 -0.00390625 14 0.453125 12.125 0.453125 C 8.707031 0.453125 6.132812 -0.628906 4.40625 -2.796875 C 2.6875 -4.972656 1.828125 -7.828125 1.828125 -11.359375 Z M 12.375 -1.875 C 14.25 -1.875 15.6875 -2.644531 16.6875 -4.1875 C 17.6875 -5.738281 18.1875 -8.035156 18.1875 -11.078125 C 18.1875 -14.085938 17.722656 -16.472656 16.796875 -18.234375 C 15.878906 -19.992188 14.40625 -20.875 12.375 -20.875 C 10.5 -20.875 9.050781 -20.097656 8.03125 -18.546875 C 7.019531 -17.003906 6.515625 -14.71875 6.515625 -11.6875 C 6.515625 -8.664062 6.988281 -6.273438 7.9375 -4.515625 C 8.882812 -2.753906 10.363281 -1.875 12.375 -1.875 Z M 12.375 -1.875 "/></g></g></g><g fill="#000000" fill-opacity="1"><g transform="translate(192.219842, 41.077296)"><g/></g></g><g fill="#000000" fill-opacity="1"><g transform="translate(200.157565, 41.077296)"><g><path d="M 11.796875 -30.484375 L 16.28125 -30.484375 L 26.171875 -2.40625 L 28.703125 -2 L 28.703125 0 L 17.953125 0 L 17.953125 -2 L 21.328125 -2.40625 L 19.421875 -8.421875 L 7.53125 -8.421875 L 5.609375 -2.40625 L 9.125 -2 L 9.125 0 L -0.53125 0 L -0.53125 -2 L 2 -2.40625 Z M 14.375 -23.96875 L 13.34375 -27.5625 L 12.375 -23.890625 L 8.265625 -10.828125 L 18.640625 -10.828125 Z M 14.375 -23.96875 "/></g></g></g><g fill="#000000" fill-opacity="1"><g transform="translate(226.617096, 41.077296)"><g><path d="M 5.984375 -27.71875 L 2.203125 -28.203125 L 2.203125 -30.25 L 14.171875 -30.25 L 14.171875 -28.203125 L 10.375 -27.71875 L 10.375 -2.40625 L 14.171875 -1.953125 L 14.171875 0 L 2.234375 0 L 2.234375 -2 L 5.984375 -2.40625 Z M 5.984375 -27.71875 "/></g></g></g><g clip-path="url(#c284e31f46)"><g clip-path="url(#2eff25414a)"><path fill="url(#d277c578e5)" d="M 68.503906 42.523438 L 68.503906 12.96875 L 17.433594 12.96875 L 17.433594 42.523438 Z M 68.503906 42.523438 " fill-rule="nonzero"/></g></g></svg>