<svg xmlns="http://www.w3.org/2000/svg" xmlns:xlink="http://www.w3.org/1999/xlink" width="500" zoomAndPan="magnify" viewBox="0 0 375 374.999991" height="500" preserveAspectRatio="xMidYMid meet" version="1.0"><defs><clipPath id="773895db0d"><path d="M 52 154 L 183 154 L 183 286 L 52 286 Z M 52 154 " clip-rule="nonzero"/></clipPath><clipPath id="21e043d761"><path d="M 52.347656 220.160156 L 117.675781 154.832031 L 183 220.160156 L 117.675781 285.488281 Z M 52.347656 220.160156 " clip-rule="nonzero"/></clipPath><clipPath id="a276b3ae91"><path d="M 0.320312 0.800781 L 131 0.800781 L 131 131.601562 L 0.320312 131.601562 Z M 0.320312 0.800781 " clip-rule="nonzero"/></clipPath><clipPath id="ab282f4cef"><path d="M 0.347656 66.160156 L 65.675781 0.832031 L 131 66.160156 L 65.675781 131.488281 Z M 0.347656 66.160156 " clip-rule="nonzero"/></clipPath><clipPath id="5b69a4687c"><rect x="0" width="131" y="0" height="132"/></clipPath><clipPath id="eac409c687"><path d="M 192 154 L 323 154 L 323 286 L 192 286 Z M 192 154 " clip-rule="nonzero"/></clipPath><clipPath id="666af4c4d6"><path d="M 192 220.160156 L 257.328125 154.832031 L 322.65625 220.160156 L 257.328125 285.488281 Z M 192 220.160156 " clip-rule="nonzero"/></clipPath><clipPath id="8d7cfb5b0f"><path d="M 0 0.800781 L 130.800781 0.800781 L 130.800781 131.601562 L 0 131.601562 Z M 0 0.800781 " clip-rule="nonzero"/></clipPath><clipPath id="8438166596"><path d="M 0 66.160156 L 65.328125 0.832031 L 130.65625 66.160156 L 65.328125 131.488281 Z M 0 66.160156 " clip-rule="nonzero"/></clipPath><clipPath id="381fd33e43"><rect x="0" width="131" y="0" height="132"/></clipPath><clipPath id="19c3d18336"><path d="M 122.171875 224.664062 L 252.828125 224.664062 L 252.828125 289.988281 L 122.171875 289.988281 Z M 122.171875 224.664062 " clip-rule="nonzero"/></clipPath><clipPath id="7264a753dd"><path d="M 187.5 224.664062 L 252.828125 289.988281 L 122.171875 289.988281 Z M 187.5 224.664062 " clip-rule="nonzero"/></clipPath><clipPath id="066761bc2d"><path d="M 0.171875 0.664062 L 130.828125 0.664062 L 130.828125 65.988281 L 0.171875 65.988281 Z M 0.171875 0.664062 " clip-rule="nonzero"/></clipPath><clipPath id="81c1b94d8f"><path d="M 65.5 0.664062 L 130.828125 65.988281 L 0.171875 65.988281 Z M 65.5 0.664062 " clip-rule="nonzero"/></clipPath><clipPath id="bce18bbc4c"><rect x="0" width="131" y="0" height="66"/></clipPath><clipPath id="622b857fb3"><path d="M 122 85 L 253 85 L 253 216 L 122 216 Z M 122 85 " clip-rule="nonzero"/></clipPath><clipPath id="c70cb83f7d"><path d="M 122.175781 150.332031 L 187.5 85.007812 L 252.828125 150.332031 L 187.5 215.660156 Z M 122.175781 150.332031 " clip-rule="nonzero"/></clipPath><clipPath id="23448b09dd"><path d="M 0.160156 0 L 130.960938 0 L 130.960938 130.761719 L 0.160156 130.761719 Z M 0.160156 0 " clip-rule="nonzero"/></clipPath><clipPath id="6c72486daa"><path d="M 0.175781 65.332031 L 65.5 0.0078125 L 130.828125 65.332031 L 65.5 130.660156 Z M 0.175781 65.332031 " clip-rule="nonzero"/></clipPath><clipPath id="cc838b9e0d"><rect x="0" width="131" y="0" height="131"/></clipPath></defs><rect x="-37.5" width="450" fill="#ffffff" y="-37.499999" height="449.999989" fill-opacity="1"/><rect x="-37.5" width="450" fill="#ffffff" y="-37.499999" height="449.999989" fill-opacity="1"/><g clip-path="url(#773895db0d)"><g clip-path="url(#21e043d761)"><g transform="matrix(1, 0, 0, 1, 52, 154)"><g clip-path="url(#5b69a4687c)"><g clip-path="url(#a276b3ae91)"><g clip-path="url(#ab282f4cef)"><path fill="#8f3527" d="M 0.347656 66.160156 L 65.675781 0.832031 L 131 66.160156 L 65.675781 131.488281 Z M 0.347656 66.160156 " fill-opacity="1" fill-rule="nonzero"/></g></g></g></g></g></g><g clip-path="url(#eac409c687)"><g clip-path="url(#666af4c4d6)"><g transform="matrix(1, 0, 0, 1, 192, 154)"><g clip-path="url(#381fd33e43)"><g clip-path="url(#8d7cfb5b0f)"><g clip-path="url(#8438166596)"><path fill="#b974f4" d="M 0 66.160156 L 65.328125 0.832031 L 130.65625 66.160156 L 65.328125 131.488281 Z M 0 66.160156 " fill-opacity="1" fill-rule="nonzero"/></g></g></g></g></g></g><g clip-path="url(#19c3d18336)"><g clip-path="url(#7264a753dd)"><g transform="matrix(1, 0, 0, 1, 122, 224)"><g clip-path="url(#bce18bbc4c)"><g clip-path="url(#066761bc2d)"><g clip-path="url(#81c1b94d8f)"><path fill="#5d3d89" d="M 0.171875 0.664062 L 130.828125 0.664062 L 130.828125 65.988281 L 0.171875 65.988281 Z M 0.171875 0.664062 " fill-opacity="1" fill-rule="nonzero"/></g></g></g></g></g></g><g clip-path="url(#622b857fb3)"><g clip-path="url(#c70cb83f7d)"><g transform="matrix(1, 0, 0, 1, 122, 85)"><g clip-path="url(#cc838b9e0d)"><g clip-path="url(#23448b09dd)"><g clip-path="url(#6c72486daa)"><path fill="#d1462a" d="M 0.175781 65.332031 L 65.5 0.0078125 L 130.828125 65.332031 L 65.5 130.660156 Z M 0.175781 65.332031 " fill-opacity="1" fill-rule="nonzero"/></g></g></g></g></g></g></svg>