<svg xmlns="http://www.w3.org/2000/svg" xmlns:xlink="http://www.w3.org/1999/xlink" width="500" zoomAndPan="magnify" viewBox="0 0 375 374.999991" height="500" preserveAspectRatio="xMidYMid meet" version="1.0"><defs><clipPath id="2147e52d0c"><path d="M 52 154 L 183 154 L 183 286 L 52 286 Z M 52 154 " clip-rule="nonzero"/></clipPath><clipPath id="7f2966664d"><path d="M 52.347656 220.160156 L 117.675781 154.832031 L 183 220.160156 L 117.675781 285.488281 Z M 52.347656 220.160156 " clip-rule="nonzero"/></clipPath><clipPath id="61e232637e"><path d="M 0.320312 0.800781 L 131 0.800781 L 131 131.601562 L 0.320312 131.601562 Z M 0.320312 0.800781 " clip-rule="nonzero"/></clipPath><clipPath id="08fbe8f60c"><path d="M 0.347656 66.160156 L 65.675781 0.832031 L 131 66.160156 L 65.675781 131.488281 Z M 0.347656 66.160156 " clip-rule="nonzero"/></clipPath><clipPath id="c6e436f543"><rect x="0" width="131" y="0" height="132"/></clipPath><clipPath id="017c28d4c9"><path d="M 192 154 L 323 154 L 323 286 L 192 286 Z M 192 154 " clip-rule="nonzero"/></clipPath><clipPath id="a405b77581"><path d="M 192 220.160156 L 257.328125 154.832031 L 322.65625 220.160156 L 257.328125 285.488281 Z M 192 220.160156 " clip-rule="nonzero"/></clipPath><clipPath id="422651d67e"><path d="M 0 0.800781 L 130.800781 0.800781 L 130.800781 131.601562 L 0 131.601562 Z M 0 0.800781 " clip-rule="nonzero"/></clipPath><clipPath id="015bdc9ff3"><path d="M 0 66.160156 L 65.328125 0.832031 L 130.65625 66.160156 L 65.328125 131.488281 Z M 0 66.160156 " clip-rule="nonzero"/></clipPath><clipPath id="15d253558c"><rect x="0" width="131" y="0" height="132"/></clipPath><clipPath id="f07c071fd8"><path d="M 122.171875 224.664062 L 252.828125 224.664062 L 252.828125 289.988281 L 122.171875 289.988281 Z M 122.171875 224.664062 " clip-rule="nonzero"/></clipPath><clipPath id="f4ddd8ab01"><path d="M 187.5 224.664062 L 252.828125 289.988281 L 122.171875 289.988281 Z M 187.5 224.664062 " clip-rule="nonzero"/></clipPath><clipPath id="ce73ac5386"><path d="M 0.171875 0.664062 L 130.828125 0.664062 L 130.828125 65.988281 L 0.171875 65.988281 Z M 0.171875 0.664062 " clip-rule="nonzero"/></clipPath><clipPath id="ff079d134e"><path d="M 65.5 0.664062 L 130.828125 65.988281 L 0.171875 65.988281 Z M 65.5 0.664062 " clip-rule="nonzero"/></clipPath><clipPath id="97bb07a009"><rect x="0" width="131" y="0" height="66"/></clipPath><clipPath id="a43b49b444"><path d="M 122 85 L 253 85 L 253 216 L 122 216 Z M 122 85 " clip-rule="nonzero"/></clipPath><clipPath id="88987f4f5b"><path d="M 122.175781 150.332031 L 187.5 85.007812 L 252.828125 150.332031 L 187.5 215.660156 Z M 122.175781 150.332031 " clip-rule="nonzero"/></clipPath><clipPath id="eebbc49e15"><path d="M 0.160156 0 L 130.960938 0 L 130.960938 130.761719 L 0.160156 130.761719 Z M 0.160156 0 " clip-rule="nonzero"/></clipPath><clipPath id="594bbd0ef9"><path d="M 0.175781 65.332031 L 65.5 0.0078125 L 130.828125 65.332031 L 65.5 130.660156 Z M 0.175781 65.332031 " clip-rule="nonzero"/></clipPath><clipPath id="b5108c5bd6"><rect x="0" width="131" y="0" height="131"/></clipPath></defs><rect x="-37.5" width="450" fill="#ffffff" y="-37.499999" height="449.999989" fill-opacity="1"/><rect x="-37.5" width="450" fill="#000000" y="-37.499999" height="449.999989" fill-opacity="1"/><g clip-path="url(#2147e52d0c)"><g clip-path="url(#7f2966664d)"><g transform="matrix(1, 0, 0, 1, 52, 154)"><g clip-path="url(#c6e436f543)"><g clip-path="url(#61e232637e)"><g clip-path="url(#08fbe8f60c)"><path fill="#8f3527" d="M 0.347656 66.160156 L 65.675781 0.832031 L 131 66.160156 L 65.675781 131.488281 Z M 0.347656 66.160156 " fill-opacity="1" fill-rule="nonzero"/></g></g></g></g></g></g><g clip-path="url(#017c28d4c9)"><g clip-path="url(#a405b77581)"><g transform="matrix(1, 0, 0, 1, 192, 154)"><g clip-path="url(#15d253558c)"><g clip-path="url(#422651d67e)"><g clip-path="url(#015bdc9ff3)"><path fill="#b974f4" d="M 0 66.160156 L 65.328125 0.832031 L 130.65625 66.160156 L 65.328125 131.488281 Z M 0 66.160156 " fill-opacity="1" fill-rule="nonzero"/></g></g></g></g></g></g><g clip-path="url(#f07c071fd8)"><g clip-path="url(#f4ddd8ab01)"><g transform="matrix(1, 0, 0, 1, 122, 224)"><g clip-path="url(#97bb07a009)"><g clip-path="url(#ce73ac5386)"><g clip-path="url(#ff079d134e)"><path fill="#5d3d89" d="M 0.171875 0.664062 L 130.828125 0.664062 L 130.828125 65.988281 L 0.171875 65.988281 Z M 0.171875 0.664062 " fill-opacity="1" fill-rule="nonzero"/></g></g></g></g></g></g><g clip-path="url(#a43b49b444)"><g clip-path="url(#88987f4f5b)"><g transform="matrix(1, 0, 0, 1, 122, 85)"><g clip-path="url(#b5108c5bd6)"><g clip-path="url(#eebbc49e15)"><g clip-path="url(#594bbd0ef9)"><path fill="#d1462a" d="M 0.175781 65.332031 L 65.5 0.0078125 L 130.828125 65.332031 L 65.5 130.660156 Z M 0.175781 65.332031 " fill-opacity="1" fill-rule="nonzero"/></g></g></g></g></g></g></svg>