<svg xmlns="http://www.w3.org/2000/svg" xmlns:xlink="http://www.w3.org/1999/xlink" width="500" zoomAndPan="magnify" viewBox="0 0 375 374.999991" height="500" preserveAspectRatio="xMidYMid meet" version="1.0"><defs><g/><clipPath id="6f95d1f08c"><path d="M 0.320312 22 L 41 22 L 41 63 L 0.320312 63 Z M 0.320312 22 " clip-rule="nonzero"/></clipPath><clipPath id="5690fdc87d"><path d="M 0.363281 42.707031 L 20.597656 22.476562 L 40.828125 42.707031 L 20.597656 62.9375 Z M 0.363281 42.707031 " clip-rule="nonzero"/></clipPath><clipPath id="8d22dc6f7a"><path d="M 0.320312 0.441406 L 40.878906 0.441406 L 40.878906 41 L 0.320312 41 Z M 0.320312 0.441406 " clip-rule="nonzero"/></clipPath><clipPath id="b6109d3b1d"><path d="M 0.363281 20.707031 L 20.597656 0.476562 L 40.828125 20.707031 L 20.597656 40.9375 Z M 0.363281 20.707031 " clip-rule="nonzero"/></clipPath><clipPath id="8367c7af9e"><rect x="0" width="41" y="0" height="41"/></clipPath><clipPath id="bf423ffa8e"><path d="M 43 22 L 84.078125 22 L 84.078125 63 L 43 63 Z M 43 22 " clip-rule="nonzero"/></clipPath><clipPath id="8c1f01e1be"><path d="M 43.613281 42.707031 L 63.847656 22.476562 L 84.078125 42.707031 L 63.847656 62.9375 Z M 43.613281 42.707031 " clip-rule="nonzero"/></clipPath><clipPath id="e3053c8905"><path d="M 0.519531 0.441406 L 41.078125 0.441406 L 41.078125 41 L 0.519531 41 Z M 0.519531 0.441406 " clip-rule="nonzero"/></clipPath><clipPath id="589a737772"><path d="M 0.613281 20.707031 L 20.847656 0.476562 L 41.078125 20.707031 L 20.847656 40.9375 Z M 0.613281 20.707031 " clip-rule="nonzero"/></clipPath><clipPath id="b09af2f491"><rect x="0" width="42" y="0" height="41"/></clipPath><clipPath id="0e7aae587d"><path d="M 21.988281 44.101562 L 62.453125 44.101562 L 62.453125 64.332031 L 21.988281 64.332031 Z M 21.988281 44.101562 " clip-rule="nonzero"/></clipPath><clipPath id="68b2a72d3e"><path d="M 42.222656 44.101562 L 62.453125 64.332031 L 21.988281 64.332031 Z M 42.222656 44.101562 " clip-rule="nonzero"/></clipPath><clipPath id="865cc925bf"><path d="M 0.988281 0.101562 L 41.453125 0.101562 L 41.453125 20.332031 L 0.988281 20.332031 Z M 0.988281 0.101562 " clip-rule="nonzero"/></clipPath><clipPath id="85d24c28ea"><path d="M 21.222656 0.101562 L 41.453125 20.332031 L 0.988281 20.332031 Z M 21.222656 0.101562 " clip-rule="nonzero"/></clipPath><clipPath id="dd7826d27a"><rect x="0" width="42" y="0" height="21"/></clipPath><clipPath id="d9ebd2178e"><path d="M 21 0.839844 L 63 0.839844 L 63 42 L 21 42 Z M 21 0.839844 " clip-rule="nonzero"/></clipPath><clipPath id="b0c0ea219d"><path d="M 21.988281 21.082031 L 42.222656 0.851562 L 62.453125 21.082031 L 42.222656 41.3125 Z M 21.988281 21.082031 " clip-rule="nonzero"/></clipPath><clipPath id="9605c648b4"><path d="M 0.921875 0.839844 L 41.480469 0.839844 L 41.480469 41.398438 L 0.921875 41.398438 Z M 0.921875 0.839844 " clip-rule="nonzero"/></clipPath><clipPath id="7400278344"><path d="M 0.988281 21.082031 L 21.222656 0.851562 L 41.453125 21.082031 L 21.222656 41.3125 Z M 0.988281 21.082031 " clip-rule="nonzero"/></clipPath><clipPath id="dac0fd2b02"><rect x="0" width="42" y="0" height="42"/></clipPath><clipPath id="3fa7b37fc7"><rect x="0" width="85" y="0" height="65"/></clipPath></defs><rect x="-37.5" width="450" fill="#ffffff" y="-37.499999" height="449.999989" fill-opacity="1"/><rect x="-37.5" width="450" fill="#ffffff" y="-37.499999" height="449.999989" fill-opacity="1"/><g fill="#000000" fill-opacity="1"><g transform="translate(128.838204, 201.566353)"><g><path d="M 21.25 0 L 15.515625 0 C 14.671875 0 13.800781 -0.078125 12.90625 -0.234375 C 12.019531 -0.390625 11.175781 -0.675781 10.375 -1.09375 C 9.570312 -1.519531 8.851562 -2.128906 8.21875 -2.921875 C 7.59375 -3.722656 7.09375 -4.757812 6.71875 -6.03125 C 6.34375 -7.300781 6.15625 -8.867188 6.15625 -10.734375 L 6.15625 -22.515625 L 0.296875 -22.515625 L 0.296875 -28.21875 L 6.15625 -28.21875 L 6.15625 -36.484375 L 12.796875 -36.53125 L 12.796875 -28.21875 L 21.25 -28.21875 L 21.25 -22.515625 L 12.796875 -22.515625 L 12.796875 -10.4375 C 12.796875 -9.113281 12.984375 -8.09375 13.359375 -7.375 C 13.742188 -6.664062 14.253906 -6.175781 14.890625 -5.90625 C 15.523438 -5.644531 16.1875 -5.515625 16.875 -5.515625 L 21.25 -5.515625 Z M 21.25 0 "/></g></g></g><g fill="#000000" fill-opacity="1"><g transform="translate(149.204143, 201.566353)"><g><path d="M 15.1875 0.84375 C 13.28125 0.84375 11.515625 0.460938 9.890625 -0.296875 C 8.273438 -1.066406 6.867188 -2.140625 5.671875 -3.515625 C 4.472656 -4.890625 3.539062 -6.476562 2.875 -8.28125 C 2.21875 -10.09375 1.890625 -12.035156 1.890625 -14.109375 C 1.890625 -16.179688 2.222656 -18.117188 2.890625 -19.921875 C 3.554688 -21.722656 4.488281 -23.304688 5.6875 -24.671875 C 6.894531 -26.046875 8.300781 -27.117188 9.90625 -27.890625 C 11.519531 -28.671875 13.269531 -29.0625 15.15625 -29.0625 C 17.457031 -29.0625 19.503906 -28.5625 21.296875 -27.5625 C 23.085938 -26.570312 24.4375 -25.195312 25.34375 -23.4375 L 25.34375 -28.21875 L 31.65625 -28.21875 L 31.65625 0 L 25.34375 0 L 25.34375 -4.75 C 24.425781 -2.988281 23.070312 -1.613281 21.28125 -0.625 C 19.5 0.351562 17.46875 0.84375 15.1875 0.84375 Z M 16.765625 -5.296875 C 17.921875 -5.296875 19 -5.519531 20 -5.96875 C 21.007812 -6.414062 21.894531 -7.035156 22.65625 -7.828125 C 23.414062 -8.628906 24.003906 -9.566406 24.421875 -10.640625 C 24.847656 -11.710938 25.0625 -12.867188 25.0625 -14.109375 C 25.0625 -15.335938 24.84375 -16.484375 24.40625 -17.546875 C 23.976562 -18.617188 23.390625 -19.554688 22.640625 -20.359375 C 21.890625 -21.171875 21.007812 -21.800781 20 -22.25 C 19 -22.695312 17.921875 -22.921875 16.765625 -22.921875 C 15.253906 -22.921875 13.867188 -22.550781 12.609375 -21.8125 C 11.359375 -21.082031 10.359375 -20.054688 9.609375 -18.734375 C 8.859375 -17.421875 8.484375 -15.878906 8.484375 -14.109375 C 8.484375 -12.273438 8.863281 -10.695312 9.625 -9.375 C 10.382812 -8.0625 11.394531 -7.050781 12.65625 -6.34375 C 13.914062 -5.644531 15.285156 -5.296875 16.765625 -5.296875 Z M 16.765625 -5.296875 "/></g></g></g><g fill="#000000" fill-opacity="1"><g transform="translate(182.388608, 201.566353)"><g><path d="M 16.46875 0.84375 C 14.363281 0.84375 12.421875 0.457031 10.640625 -0.3125 C 8.867188 -1.09375 7.328125 -2.164062 6.015625 -3.53125 C 4.710938 -4.90625 3.695312 -6.5 2.96875 -8.3125 C 2.25 -10.125 1.890625 -12.054688 1.890625 -14.109375 C 1.890625 -16.160156 2.25 -18.085938 2.96875 -19.890625 C 3.695312 -21.691406 4.710938 -23.28125 6.015625 -24.65625 C 7.328125 -26.039062 8.867188 -27.117188 10.640625 -27.890625 C 12.421875 -28.671875 14.363281 -29.0625 16.46875 -29.0625 C 18.90625 -29.0625 21.078125 -28.59375 22.984375 -27.65625 C 24.898438 -26.71875 26.503906 -25.429688 27.796875 -23.796875 C 29.085938 -22.171875 30 -20.320312 30.53125 -18.25 L 23.75 -18.25 C 23.125 -19.820312 22.160156 -20.988281 20.859375 -21.75 C 19.554688 -22.507812 18.101562 -22.890625 16.5 -22.890625 C 15.46875 -22.890625 14.476562 -22.691406 13.53125 -22.296875 C 12.582031 -21.910156 11.726562 -21.34375 10.96875 -20.59375 C 10.207031 -19.84375 9.601562 -18.921875 9.15625 -17.828125 C 8.707031 -16.742188 8.484375 -15.503906 8.484375 -14.109375 C 8.484375 -12.710938 8.707031 -11.46875 9.15625 -10.375 C 9.601562 -9.289062 10.207031 -8.367188 10.96875 -7.609375 C 11.726562 -6.859375 12.585938 -6.285156 13.546875 -5.890625 C 14.503906 -5.492188 15.488281 -5.296875 16.5 -5.296875 C 18.101562 -5.296875 19.554688 -5.691406 20.859375 -6.484375 C 22.160156 -7.285156 23.125 -8.566406 23.75 -10.328125 L 30.5 -10.328125 C 30.019531 -8.148438 29.128906 -6.21875 27.828125 -4.53125 C 26.535156 -2.84375 24.921875 -1.523438 22.984375 -0.578125 C 21.054688 0.367188 18.882812 0.84375 16.46875 0.84375 Z M 16.46875 0.84375 "/></g></g></g><g fill="#000000" fill-opacity="1"><g transform="translate(212.004749, 201.566353)"><g><path d="M 7.171875 -32.609375 C 5.890625 -32.609375 4.882812 -32.976562 4.15625 -33.71875 C 3.4375 -34.457031 3.078125 -35.359375 3.078125 -36.421875 C 3.078125 -37.453125 3.4375 -38.34375 4.15625 -39.09375 C 4.882812 -39.84375 5.894531 -40.21875 7.1875 -40.21875 C 8.53125 -40.21875 9.5625 -39.84375 10.28125 -39.09375 C 11 -38.34375 11.359375 -37.453125 11.359375 -36.421875 C 11.359375 -35.359375 11 -34.457031 10.28125 -33.71875 C 9.5625 -32.976562 8.523438 -32.609375 7.171875 -32.609375 Z M 10.546875 0 L 3.890625 0 L 3.890625 -28.21875 L 10.546875 -28.21875 Z M 10.546875 0 "/></g></g></g><g fill="#000000" fill-opacity="1"><g transform="translate(224.053751, 201.566353)"><g><path d="M 17.703125 0 L 11.53125 0 L 0.28125 -28.21875 L 7.328125 -28.21875 L 13.890625 -11.171875 L 14.625 -8.203125 L 15.34375 -11.140625 L 21.90625 -28.21875 L 29.015625 -28.21875 Z M 17.703125 0 "/></g></g></g><g fill="#000000" fill-opacity="1"><g transform="translate(250.95247, 201.566353)"><g><path d="M 16.71875 0.84375 C 14.570312 0.84375 12.59375 0.460938 10.78125 -0.296875 C 8.976562 -1.066406 7.410156 -2.140625 6.078125 -3.515625 C 4.753906 -4.890625 3.722656 -6.476562 2.984375 -8.28125 C 2.253906 -10.09375 1.890625 -12.035156 1.890625 -14.109375 C 1.890625 -16.179688 2.253906 -18.117188 2.984375 -19.921875 C 3.722656 -21.722656 4.753906 -23.304688 6.078125 -24.671875 C 7.410156 -26.046875 8.976562 -27.117188 10.78125 -27.890625 C 12.59375 -28.671875 14.582031 -29.0625 16.75 -29.0625 C 18.925781 -29.0625 20.921875 -28.671875 22.734375 -27.890625 C 24.546875 -27.117188 26.117188 -26.046875 27.453125 -24.671875 C 28.785156 -23.304688 29.816406 -21.722656 30.546875 -19.921875 C 31.285156 -18.117188 31.65625 -16.179688 31.65625 -14.109375 C 31.65625 -12.023438 31.285156 -10.082031 30.546875 -8.28125 C 29.816406 -6.476562 28.785156 -4.890625 27.453125 -3.515625 C 26.117188 -2.140625 24.539062 -1.066406 22.71875 -0.296875 C 20.894531 0.460938 18.894531 0.84375 16.71875 0.84375 Z M 16.765625 -5.328125 C 18.359375 -5.328125 19.773438 -5.707031 21.015625 -6.46875 C 22.265625 -7.226562 23.25 -8.265625 23.96875 -9.578125 C 24.695312 -10.898438 25.0625 -12.410156 25.0625 -14.109375 C 25.0625 -15.804688 24.695312 -17.316406 23.96875 -18.640625 C 23.25 -19.972656 22.265625 -21.019531 21.015625 -21.78125 C 19.773438 -22.539062 18.359375 -22.921875 16.765625 -22.921875 C 15.191406 -22.921875 13.78125 -22.539062 12.53125 -21.78125 C 11.28125 -21.019531 10.289062 -19.972656 9.5625 -18.640625 C 8.84375 -17.316406 8.484375 -15.804688 8.484375 -14.109375 C 8.484375 -12.410156 8.84375 -10.898438 9.5625 -9.578125 C 10.289062 -8.265625 11.28125 -7.226562 12.53125 -6.46875 C 13.78125 -5.707031 15.191406 -5.328125 16.765625 -5.328125 Z M 16.765625 -5.328125 "/></g></g></g><g fill="#000000" fill-opacity="1"><g transform="translate(282.142882, 201.566353)"><g/></g></g><g fill="#000000" fill-opacity="1"><g transform="translate(293.674131, 201.566353)"><g><path d="M 35.65625 0 L 32.203125 0 L 28.171875 -9.4375 L 7.9375 -9.4375 L 3.890625 0 L 0.46875 0 L 16.4375 -37.328125 L 19.65625 -37.328125 Z M 17.921875 -32.828125 L 9.140625 -12.265625 L 26.953125 -12.265625 L 18.171875 -32.828125 L 18.0625 -33.25 L 18.03125 -33.25 Z M 17.921875 -32.828125 "/></g></g></g><g fill="#000000" fill-opacity="1"><g transform="translate(327.407569, 201.566353)"><g><path d="M 8.84375 0 L 5.59375 0 L 5.59375 -37.328125 L 8.84375 -37.328125 Z M 8.84375 0 "/></g></g></g><g transform="matrix(1, 0, 0, 1, 28, 153)"><g clip-path="url(#3fa7b37fc7)"><g clip-path="url(#6f95d1f08c)"><g clip-path="url(#5690fdc87d)"><g transform="matrix(1, 0, 0, 1, 0, 22)"><g clip-path="url(#8367c7af9e)"><g clip-path="url(#8d22dc6f7a)"><g clip-path="url(#b6109d3b1d)"><path fill="#8f3527" d="M 0.363281 20.707031 L 20.597656 0.476562 L 40.828125 20.707031 L 20.597656 40.9375 Z M 0.363281 20.707031 " fill-opacity="1" fill-rule="nonzero"/></g></g></g></g></g></g><g clip-path="url(#bf423ffa8e)"><g clip-path="url(#8c1f01e1be)"><g transform="matrix(1, 0, 0, 1, 43, 22)"><g clip-path="url(#b09af2f491)"><g clip-path="url(#e3053c8905)"><g clip-path="url(#589a737772)"><path fill="#b974f4" d="M 0.613281 20.707031 L 20.847656 0.476562 L 41.078125 20.707031 L 20.847656 40.9375 Z M 0.613281 20.707031 " fill-opacity="1" fill-rule="nonzero"/></g></g></g></g></g></g><g clip-path="url(#0e7aae587d)"><g clip-path="url(#68b2a72d3e)"><g transform="matrix(1, 0, 0, 1, 21, 44)"><g clip-path="url(#dd7826d27a)"><g clip-path="url(#865cc925bf)"><g clip-path="url(#85d24c28ea)"><path fill="#5d3d89" d="M 0.988281 0.101562 L 41.453125 0.101562 L 41.453125 20.332031 L 0.988281 20.332031 Z M 0.988281 0.101562 " fill-opacity="1" fill-rule="nonzero"/></g></g></g></g></g></g><g clip-path="url(#d9ebd2178e)"><g clip-path="url(#b0c0ea219d)"><g transform="matrix(1, 0, 0, 1, 21, 0)"><g clip-path="url(#dac0fd2b02)"><g clip-path="url(#9605c648b4)"><g clip-path="url(#7400278344)"><path fill="#d1462a" d="M 0.988281 21.082031 L 21.222656 0.851562 L 41.453125 21.082031 L 21.222656 41.3125 Z M 0.988281 21.082031 " fill-opacity="1" fill-rule="nonzero"/></g></g></g></g></g></g></g></g></svg>