<svg xmlns="http://www.w3.org/2000/svg" xmlns:xlink="http://www.w3.org/1999/xlink" width="500" zoomAndPan="magnify" viewBox="0 0 375 374.999991" height="500" preserveAspectRatio="xMidYMid meet" version="1.0"><defs><g/><clipPath id="633408495d"><path d="M 0.839844 22 L 42 22 L 42 63 L 0.839844 63 Z M 0.839844 22 " clip-rule="nonzero"/></clipPath><clipPath id="495afb58d5"><path d="M 0.84375 42.707031 L 21.078125 22.476562 L 41.308594 42.707031 L 21.078125 62.9375 Z M 0.84375 42.707031 " clip-rule="nonzero"/></clipPath><clipPath id="b305f164b9"><path d="M 0.839844 0.441406 L 41.398438 0.441406 L 41.398438 41 L 0.839844 41 Z M 0.839844 0.441406 " clip-rule="nonzero"/></clipPath><clipPath id="f1675c512a"><path d="M 0.84375 20.707031 L 21.078125 0.476562 L 41.308594 20.707031 L 21.078125 40.9375 Z M 0.84375 20.707031 " clip-rule="nonzero"/></clipPath><clipPath id="34fe398032"><rect x="0" width="42" y="0" height="41"/></clipPath><clipPath id="0462e3c067"><path d="M 44 22 L 84.601562 22 L 84.601562 63 L 44 63 Z M 44 22 " clip-rule="nonzero"/></clipPath><clipPath id="1384279181"><path d="M 44.09375 42.707031 L 64.328125 22.476562 L 84.558594 42.707031 L 64.328125 62.9375 Z M 44.09375 42.707031 " clip-rule="nonzero"/></clipPath><clipPath id="2050bb583a"><path d="M 0.0390625 0.441406 L 40.601562 0.441406 L 40.601562 41 L 0.0390625 41 Z M 0.0390625 0.441406 " clip-rule="nonzero"/></clipPath><clipPath id="d3ce9686ad"><path d="M 0.09375 20.707031 L 20.328125 0.476562 L 40.558594 20.707031 L 20.328125 40.9375 Z M 0.09375 20.707031 " clip-rule="nonzero"/></clipPath><clipPath id="b26efc6cfc"><rect x="0" width="41" y="0" height="41"/></clipPath><clipPath id="e47c9bd5ff"><path d="M 22.46875 44.101562 L 62.933594 44.101562 L 62.933594 64.332031 L 22.46875 64.332031 Z M 22.46875 44.101562 " clip-rule="nonzero"/></clipPath><clipPath id="a26bde282f"><path d="M 42.703125 44.101562 L 62.933594 64.332031 L 22.46875 64.332031 Z M 42.703125 44.101562 " clip-rule="nonzero"/></clipPath><clipPath id="d0dfe5c91a"><path d="M 0.46875 0.101562 L 40.933594 0.101562 L 40.933594 20.332031 L 0.46875 20.332031 Z M 0.46875 0.101562 " clip-rule="nonzero"/></clipPath><clipPath id="9e1189f59c"><path d="M 20.703125 0.101562 L 40.933594 20.332031 L 0.46875 20.332031 Z M 20.703125 0.101562 " clip-rule="nonzero"/></clipPath><clipPath id="e636562230"><rect x="0" width="41" y="0" height="21"/></clipPath><clipPath id="0f544c6db5"><path d="M 22 0.839844 L 63 0.839844 L 63 42 L 22 42 Z M 22 0.839844 " clip-rule="nonzero"/></clipPath><clipPath id="c49f996d1b"><path d="M 22.46875 21.082031 L 42.703125 0.851562 L 62.933594 21.082031 L 42.703125 41.3125 Z M 22.46875 21.082031 " clip-rule="nonzero"/></clipPath><clipPath id="0cefd85fde"><path d="M 0.441406 0.839844 L 41 0.839844 L 41 41.398438 L 0.441406 41.398438 Z M 0.441406 0.839844 " clip-rule="nonzero"/></clipPath><clipPath id="e54f4a2cc9"><path d="M 0.46875 21.082031 L 20.703125 0.851562 L 40.933594 21.082031 L 20.703125 41.3125 Z M 0.46875 21.082031 " clip-rule="nonzero"/></clipPath><clipPath id="a3443432ef"><rect x="0" width="41" y="0" height="42"/></clipPath><clipPath id="4c65de6675"><rect x="0" width="85" y="0" height="65"/></clipPath></defs><rect x="-37.5" width="450" fill="#ffffff" y="-37.499999" height="449.999989" fill-opacity="1"/><rect x="-37.5" width="450" fill="#ffffff" y="-37.499999" height="449.999989" fill-opacity="1"/><g fill="#000000" fill-opacity="1"><g transform="translate(118.205446, 201.566339)"><g><path d="M 21.25 0 L 15.515625 0 C 14.671875 0 13.800781 -0.078125 12.90625 -0.234375 C 12.019531 -0.390625 11.175781 -0.675781 10.375 -1.09375 C 9.570312 -1.519531 8.851562 -2.128906 8.21875 -2.921875 C 7.59375 -3.722656 7.09375 -4.757812 6.71875 -6.03125 C 6.34375 -7.300781 6.15625 -8.867188 6.15625 -10.734375 L 6.15625 -22.515625 L 0.296875 -22.515625 L 0.296875 -28.21875 L 6.15625 -28.21875 L 6.15625 -36.484375 L 12.796875 -36.53125 L 12.796875 -28.21875 L 21.25 -28.21875 L 21.25 -22.515625 L 12.796875 -22.515625 L 12.796875 -10.4375 C 12.796875 -9.113281 12.984375 -8.09375 13.359375 -7.375 C 13.742188 -6.664062 14.253906 -6.175781 14.890625 -5.90625 C 15.523438 -5.644531 16.1875 -5.515625 16.875 -5.515625 L 21.25 -5.515625 Z M 21.25 0 "/></g></g></g><g fill="#000000" fill-opacity="1"><g transform="translate(138.571385, 201.566339)"><g><path d="M 15.1875 0.84375 C 13.28125 0.84375 11.515625 0.460938 9.890625 -0.296875 C 8.273438 -1.066406 6.867188 -2.140625 5.671875 -3.515625 C 4.472656 -4.890625 3.539062 -6.476562 2.875 -8.28125 C 2.21875 -10.09375 1.890625 -12.035156 1.890625 -14.109375 C 1.890625 -16.179688 2.222656 -18.117188 2.890625 -19.921875 C 3.554688 -21.722656 4.488281 -23.304688 5.6875 -24.671875 C 6.894531 -26.046875 8.300781 -27.117188 9.90625 -27.890625 C 11.519531 -28.671875 13.269531 -29.0625 15.15625 -29.0625 C 17.457031 -29.0625 19.503906 -28.5625 21.296875 -27.5625 C 23.085938 -26.570312 24.4375 -25.195312 25.34375 -23.4375 L 25.34375 -28.21875 L 31.65625 -28.21875 L 31.65625 0 L 25.34375 0 L 25.34375 -4.75 C 24.425781 -2.988281 23.070312 -1.613281 21.28125 -0.625 C 19.5 0.351562 17.46875 0.84375 15.1875 0.84375 Z M 16.765625 -5.296875 C 17.921875 -5.296875 19 -5.519531 20 -5.96875 C 21.007812 -6.414062 21.894531 -7.035156 22.65625 -7.828125 C 23.414062 -8.628906 24.003906 -9.566406 24.421875 -10.640625 C 24.847656 -11.710938 25.0625 -12.867188 25.0625 -14.109375 C 25.0625 -15.335938 24.84375 -16.484375 24.40625 -17.546875 C 23.976562 -18.617188 23.390625 -19.554688 22.640625 -20.359375 C 21.890625 -21.171875 21.007812 -21.800781 20 -22.25 C 19 -22.695312 17.921875 -22.921875 16.765625 -22.921875 C 15.253906 -22.921875 13.867188 -22.550781 12.609375 -21.8125 C 11.359375 -21.082031 10.359375 -20.054688 9.609375 -18.734375 C 8.859375 -17.421875 8.484375 -15.878906 8.484375 -14.109375 C 8.484375 -12.273438 8.863281 -10.695312 9.625 -9.375 C 10.382812 -8.0625 11.394531 -7.050781 12.65625 -6.34375 C 13.914062 -5.644531 15.285156 -5.296875 16.765625 -5.296875 Z M 16.765625 -5.296875 "/></g></g></g><g fill="#000000" fill-opacity="1"><g transform="translate(171.75585, 201.566339)"><g><path d="M 16.46875 0.84375 C 14.363281 0.84375 12.421875 0.457031 10.640625 -0.3125 C 8.867188 -1.09375 7.328125 -2.164062 6.015625 -3.53125 C 4.710938 -4.90625 3.695312 -6.5 2.96875 -8.3125 C 2.25 -10.125 1.890625 -12.054688 1.890625 -14.109375 C 1.890625 -16.160156 2.25 -18.085938 2.96875 -19.890625 C 3.695312 -21.691406 4.710938 -23.28125 6.015625 -24.65625 C 7.328125 -26.039062 8.867188 -27.117188 10.640625 -27.890625 C 12.421875 -28.671875 14.363281 -29.0625 16.46875 -29.0625 C 18.90625 -29.0625 21.078125 -28.59375 22.984375 -27.65625 C 24.898438 -26.71875 26.503906 -25.429688 27.796875 -23.796875 C 29.085938 -22.171875 30 -20.320312 30.53125 -18.25 L 23.75 -18.25 C 23.125 -19.820312 22.160156 -20.988281 20.859375 -21.75 C 19.554688 -22.507812 18.101562 -22.890625 16.5 -22.890625 C 15.46875 -22.890625 14.476562 -22.691406 13.53125 -22.296875 C 12.582031 -21.910156 11.726562 -21.34375 10.96875 -20.59375 C 10.207031 -19.84375 9.601562 -18.921875 9.15625 -17.828125 C 8.707031 -16.742188 8.484375 -15.503906 8.484375 -14.109375 C 8.484375 -12.710938 8.707031 -11.46875 9.15625 -10.375 C 9.601562 -9.289062 10.207031 -8.367188 10.96875 -7.609375 C 11.726562 -6.859375 12.585938 -6.285156 13.546875 -5.890625 C 14.503906 -5.492188 15.488281 -5.296875 16.5 -5.296875 C 18.101562 -5.296875 19.554688 -5.691406 20.859375 -6.484375 C 22.160156 -7.285156 23.125 -8.566406 23.75 -10.328125 L 30.5 -10.328125 C 30.019531 -8.148438 29.128906 -6.21875 27.828125 -4.53125 C 26.535156 -2.84375 24.921875 -1.523438 22.984375 -0.578125 C 21.054688 0.367188 18.882812 0.84375 16.46875 0.84375 Z M 16.46875 0.84375 "/></g></g></g><g fill="#000000" fill-opacity="1"><g transform="translate(201.37199, 201.566339)"><g><path d="M 7.171875 -32.609375 C 5.890625 -32.609375 4.882812 -32.976562 4.15625 -33.71875 C 3.4375 -34.457031 3.078125 -35.359375 3.078125 -36.421875 C 3.078125 -37.453125 3.4375 -38.34375 4.15625 -39.09375 C 4.882812 -39.84375 5.894531 -40.21875 7.1875 -40.21875 C 8.53125 -40.21875 9.5625 -39.84375 10.28125 -39.09375 C 11 -38.34375 11.359375 -37.453125 11.359375 -36.421875 C 11.359375 -35.359375 11 -34.457031 10.28125 -33.71875 C 9.5625 -32.976562 8.523438 -32.609375 7.171875 -32.609375 Z M 10.546875 0 L 3.890625 0 L 3.890625 -28.21875 L 10.546875 -28.21875 Z M 10.546875 0 "/></g></g></g><g fill="#000000" fill-opacity="1"><g transform="translate(213.420993, 201.566339)"><g><path d="M 17.703125 0 L 11.53125 0 L 0.28125 -28.21875 L 7.328125 -28.21875 L 13.890625 -11.171875 L 14.625 -8.203125 L 15.34375 -11.140625 L 21.90625 -28.21875 L 29.015625 -28.21875 Z M 17.703125 0 "/></g></g></g><g fill="#000000" fill-opacity="1"><g transform="translate(240.319711, 201.566339)"><g><path d="M 16.71875 0.84375 C 14.570312 0.84375 12.59375 0.460938 10.78125 -0.296875 C 8.976562 -1.066406 7.410156 -2.140625 6.078125 -3.515625 C 4.753906 -4.890625 3.722656 -6.476562 2.984375 -8.28125 C 2.253906 -10.09375 1.890625 -12.035156 1.890625 -14.109375 C 1.890625 -16.179688 2.253906 -18.117188 2.984375 -19.921875 C 3.722656 -21.722656 4.753906 -23.304688 6.078125 -24.671875 C 7.410156 -26.046875 8.976562 -27.117188 10.78125 -27.890625 C 12.59375 -28.671875 14.582031 -29.0625 16.75 -29.0625 C 18.925781 -29.0625 20.921875 -28.671875 22.734375 -27.890625 C 24.546875 -27.117188 26.117188 -26.046875 27.453125 -24.671875 C 28.785156 -23.304688 29.816406 -21.722656 30.546875 -19.921875 C 31.285156 -18.117188 31.65625 -16.179688 31.65625 -14.109375 C 31.65625 -12.023438 31.285156 -10.082031 30.546875 -8.28125 C 29.816406 -6.476562 28.785156 -4.890625 27.453125 -3.515625 C 26.117188 -2.140625 24.539062 -1.066406 22.71875 -0.296875 C 20.894531 0.460938 18.894531 0.84375 16.71875 0.84375 Z M 16.765625 -5.328125 C 18.359375 -5.328125 19.773438 -5.707031 21.015625 -6.46875 C 22.265625 -7.226562 23.25 -8.265625 23.96875 -9.578125 C 24.695312 -10.898438 25.0625 -12.410156 25.0625 -14.109375 C 25.0625 -15.804688 24.695312 -17.316406 23.96875 -18.640625 C 23.25 -19.972656 22.265625 -21.019531 21.015625 -21.78125 C 19.773438 -22.539062 18.359375 -22.921875 16.765625 -22.921875 C 15.191406 -22.921875 13.78125 -22.539062 12.53125 -21.78125 C 11.28125 -21.019531 10.289062 -19.972656 9.5625 -18.640625 C 8.84375 -17.316406 8.484375 -15.804688 8.484375 -14.109375 C 8.484375 -12.410156 8.84375 -10.898438 9.5625 -9.578125 C 10.289062 -8.265625 11.28125 -7.226562 12.53125 -6.46875 C 13.78125 -5.707031 15.191406 -5.328125 16.765625 -5.328125 Z M 16.765625 -5.328125 "/></g></g></g><g fill="#000000" fill-opacity="1"><g transform="translate(271.510127, 201.566339)"><g/></g></g><g fill="#000000" fill-opacity="1"><g transform="translate(283.041377, 201.566339)"><g><path d="M 32.671875 -37.328125 L 18.9375 -20.921875 L 34.9375 0 L 30.984375 0 L 16.796875 -18.5 L 8.84375 -8.8125 L 8.84375 0 L 5.59375 0 L 5.59375 -37.328125 L 8.84375 -37.328125 L 8.84375 -13.171875 L 28.796875 -37.328125 Z M 32.671875 -37.328125 "/></g></g></g><g fill="#000000" fill-opacity="1"><g transform="translate(316.390534, 201.566339)"><g><path d="M 22.84375 0 L 5.59375 0 L 5.59375 -37.328125 L 21.28125 -37.328125 C 22.707031 -37.328125 24.03125 -37.085938 25.25 -36.609375 C 26.476562 -36.140625 27.546875 -35.472656 28.453125 -34.609375 C 29.359375 -33.753906 30.0625 -32.738281 30.5625 -31.5625 C 31.070312 -30.394531 31.328125 -29.113281 31.328125 -27.71875 C 31.328125 -26.550781 31.101562 -25.4375 30.65625 -24.375 C 30.21875 -23.3125 29.609375 -22.378906 28.828125 -21.578125 C 28.054688 -20.773438 27.175781 -20.148438 26.1875 -19.703125 C 27.582031 -19.335938 28.832031 -18.695312 29.9375 -17.78125 C 31.039062 -16.875 31.914062 -15.773438 32.5625 -14.484375 C 33.21875 -13.191406 33.546875 -11.796875 33.546875 -10.296875 C 33.546875 -8.734375 33.253906 -7.320312 32.671875 -6.0625 C 32.097656 -4.800781 31.3125 -3.71875 30.3125 -2.8125 C 29.320312 -1.90625 28.1875 -1.207031 26.90625 -0.71875 C 25.625 -0.238281 24.269531 0 22.84375 0 Z M 8.859375 -34.453125 L 8.859375 -20.640625 L 21.140625 -20.640625 C 22.421875 -20.640625 23.578125 -20.945312 24.609375 -21.5625 C 25.640625 -22.175781 26.46875 -23.007812 27.09375 -24.0625 C 27.71875 -25.113281 28.03125 -26.28125 28.03125 -27.5625 C 28.03125 -28.84375 27.722656 -30 27.109375 -31.03125 C 26.492188 -32.0625 25.664062 -32.890625 24.625 -33.515625 C 23.582031 -34.140625 22.429688 -34.453125 21.171875 -34.453125 Z M 8.859375 -17.984375 L 8.859375 -2.96875 L 22.625 -2.96875 C 24.03125 -2.96875 25.304688 -3.300781 26.453125 -3.96875 C 27.597656 -4.632812 28.507812 -5.539062 29.1875 -6.6875 C 29.863281 -7.832031 30.203125 -9.109375 30.203125 -10.515625 C 30.203125 -11.535156 30.007812 -12.5 29.625 -13.40625 C 29.238281 -14.3125 28.703125 -15.109375 28.015625 -15.796875 C 27.328125 -16.484375 26.53125 -17.019531 25.625 -17.40625 C 24.71875 -17.789062 23.742188 -17.984375 22.703125 -17.984375 Z M 8.859375 -17.984375 "/></g></g></g><g transform="matrix(1, 0, 0, 1, 21, 153)"><g clip-path="url(#4c65de6675)"><g clip-path="url(#633408495d)"><g clip-path="url(#495afb58d5)"><g transform="matrix(1, 0, 0, 1, 0, 22)"><g clip-path="url(#34fe398032)"><g clip-path="url(#b305f164b9)"><g clip-path="url(#f1675c512a)"><path fill="#8f3527" d="M 0.84375 20.707031 L 21.078125 0.476562 L 41.308594 20.707031 L 21.078125 40.9375 Z M 0.84375 20.707031 " fill-opacity="1" fill-rule="nonzero"/></g></g></g></g></g></g><g clip-path="url(#0462e3c067)"><g clip-path="url(#1384279181)"><g transform="matrix(1, 0, 0, 1, 44, 22)"><g clip-path="url(#b26efc6cfc)"><g clip-path="url(#2050bb583a)"><g clip-path="url(#d3ce9686ad)"><path fill="#b974f4" d="M 0.09375 20.707031 L 20.328125 0.476562 L 40.558594 20.707031 L 20.328125 40.9375 Z M 0.09375 20.707031 " fill-opacity="1" fill-rule="nonzero"/></g></g></g></g></g></g><g clip-path="url(#e47c9bd5ff)"><g clip-path="url(#a26bde282f)"><g transform="matrix(1, 0, 0, 1, 22, 44)"><g clip-path="url(#e636562230)"><g clip-path="url(#d0dfe5c91a)"><g clip-path="url(#9e1189f59c)"><path fill="#5d3d89" d="M 0.46875 0.101562 L 40.933594 0.101562 L 40.933594 20.332031 L 0.46875 20.332031 Z M 0.46875 0.101562 " fill-opacity="1" fill-rule="nonzero"/></g></g></g></g></g></g><g clip-path="url(#0f544c6db5)"><g clip-path="url(#c49f996d1b)"><g transform="matrix(1, 0, 0, 1, 22, 0)"><g clip-path="url(#a3443432ef)"><g clip-path="url(#0cefd85fde)"><g clip-path="url(#e54f4a2cc9)"><path fill="#d1462a" d="M 0.46875 21.082031 L 20.703125 0.851562 L 40.933594 21.082031 L 20.703125 41.3125 Z M 0.46875 21.082031 " fill-opacity="1" fill-rule="nonzero"/></g></g></g></g></g></g></g></g></svg>