<svg xmlns="http://www.w3.org/2000/svg" xmlns:xlink="http://www.w3.org/1999/xlink" width="500" zoomAndPan="magnify" viewBox="0 0 375 374.999991" height="500" preserveAspectRatio="xMidYMid meet" version="1.0"><defs><clipPath id="3a6ad14f88"><path d="M 52 154 L 183 154 L 183 286 L 52 286 Z M 52 154 " clip-rule="nonzero"/></clipPath><clipPath id="022206710e"><path d="M 52.347656 220.160156 L 117.675781 154.832031 L 183 220.160156 L 117.675781 285.488281 Z M 52.347656 220.160156 " clip-rule="nonzero"/></clipPath><clipPath id="80e5edcb02"><path d="M 0.320312 0.800781 L 131 0.800781 L 131 131.601562 L 0.320312 131.601562 Z M 0.320312 0.800781 " clip-rule="nonzero"/></clipPath><clipPath id="a8b8255570"><path d="M 0.347656 66.160156 L 65.675781 0.832031 L 131 66.160156 L 65.675781 131.488281 Z M 0.347656 66.160156 " clip-rule="nonzero"/></clipPath><clipPath id="0f9fa92a94"><rect x="0" width="131" y="0" height="132"/></clipPath><clipPath id="e3fa99e3f9"><path d="M 192 154 L 323 154 L 323 286 L 192 286 Z M 192 154 " clip-rule="nonzero"/></clipPath><clipPath id="b6c079884e"><path d="M 192 220.160156 L 257.328125 154.832031 L 322.65625 220.160156 L 257.328125 285.488281 Z M 192 220.160156 " clip-rule="nonzero"/></clipPath><clipPath id="d6435dc8a1"><path d="M 0 0.800781 L 130.800781 0.800781 L 130.800781 131.601562 L 0 131.601562 Z M 0 0.800781 " clip-rule="nonzero"/></clipPath><clipPath id="eb1b4be23b"><path d="M 0 66.160156 L 65.328125 0.832031 L 130.65625 66.160156 L 65.328125 131.488281 Z M 0 66.160156 " clip-rule="nonzero"/></clipPath><clipPath id="666b4f0a97"><rect x="0" width="131" y="0" height="132"/></clipPath><clipPath id="4371b315c3"><path d="M 122.171875 224.664062 L 252.828125 224.664062 L 252.828125 289.988281 L 122.171875 289.988281 Z M 122.171875 224.664062 " clip-rule="nonzero"/></clipPath><clipPath id="7b78e86df7"><path d="M 187.5 224.664062 L 252.828125 289.988281 L 122.171875 289.988281 Z M 187.5 224.664062 " clip-rule="nonzero"/></clipPath><clipPath id="576faf7187"><path d="M 0.171875 0.664062 L 130.828125 0.664062 L 130.828125 65.988281 L 0.171875 65.988281 Z M 0.171875 0.664062 " clip-rule="nonzero"/></clipPath><clipPath id="d9394cdb77"><path d="M 65.5 0.664062 L 130.828125 65.988281 L 0.171875 65.988281 Z M 65.5 0.664062 " clip-rule="nonzero"/></clipPath><clipPath id="f8c59764f9"><rect x="0" width="131" y="0" height="66"/></clipPath><clipPath id="a69e88ce72"><path d="M 122 85 L 253 85 L 253 216 L 122 216 Z M 122 85 " clip-rule="nonzero"/></clipPath><clipPath id="841395750f"><path d="M 122.175781 150.332031 L 187.5 85.007812 L 252.828125 150.332031 L 187.5 215.660156 Z M 122.175781 150.332031 " clip-rule="nonzero"/></clipPath><clipPath id="97e31cbfc9"><path d="M 0.160156 0 L 130.960938 0 L 130.960938 130.761719 L 0.160156 130.761719 Z M 0.160156 0 " clip-rule="nonzero"/></clipPath><clipPath id="daa5f5f493"><path d="M 0.175781 65.332031 L 65.5 0.0078125 L 130.828125 65.332031 L 65.5 130.660156 Z M 0.175781 65.332031 " clip-rule="nonzero"/></clipPath><clipPath id="567bea9dca"><rect x="0" width="131" y="0" height="131"/></clipPath></defs><rect x="-37.5" width="450" fill="#ffffff" y="-37.499999" height="449.999989" fill-opacity="1"/><rect x="-37.5" width="450" fill="#ffffff" y="-37.499999" height="449.999989" fill-opacity="1"/><g clip-path="url(#3a6ad14f88)"><g clip-path="url(#022206710e)"><g transform="matrix(1, 0, 0, 1, 52, 154)"><g clip-path="url(#0f9fa92a94)"><g clip-path="url(#80e5edcb02)"><g clip-path="url(#a8b8255570)"><path fill="#000000" d="M 0.347656 66.160156 L 65.675781 0.832031 L 131 66.160156 L 65.675781 131.488281 Z M 0.347656 66.160156 " fill-opacity="1" fill-rule="nonzero"/></g></g></g></g></g></g><g clip-path="url(#e3fa99e3f9)"><g clip-path="url(#b6c079884e)"><g transform="matrix(1, 0, 0, 1, 192, 154)"><g clip-path="url(#666b4f0a97)"><g clip-path="url(#d6435dc8a1)"><g clip-path="url(#eb1b4be23b)"><path fill="#000000" d="M 0 66.160156 L 65.328125 0.832031 L 130.65625 66.160156 L 65.328125 131.488281 Z M 0 66.160156 " fill-opacity="1" fill-rule="nonzero"/></g></g></g></g></g></g><g clip-path="url(#4371b315c3)"><g clip-path="url(#7b78e86df7)"><g transform="matrix(1, 0, 0, 1, 122, 224)"><g clip-path="url(#f8c59764f9)"><g clip-path="url(#576faf7187)"><g clip-path="url(#d9394cdb77)"><path fill="#000000" d="M 0.171875 0.664062 L 130.828125 0.664062 L 130.828125 65.988281 L 0.171875 65.988281 Z M 0.171875 0.664062 " fill-opacity="1" fill-rule="nonzero"/></g></g></g></g></g></g><g clip-path="url(#a69e88ce72)"><g clip-path="url(#841395750f)"><g transform="matrix(1, 0, 0, 1, 122, 85)"><g clip-path="url(#567bea9dca)"><g clip-path="url(#97e31cbfc9)"><g clip-path="url(#daa5f5f493)"><path fill="#000000" d="M 0.175781 65.332031 L 65.5 0.0078125 L 130.828125 65.332031 L 65.5 130.660156 Z M 0.175781 65.332031 " fill-opacity="1" fill-rule="nonzero"/></g></g></g></g></g></g></svg>