<svg xmlns="http://www.w3.org/2000/svg" xmlns:xlink="http://www.w3.org/1999/xlink" width="500" zoomAndPan="magnify" viewBox="0 0 375 374.999991" height="500" preserveAspectRatio="xMidYMid meet" version="1.0"><defs><clipPath id="5862b51e71"><path d="M 52 154 L 183 154 L 183 286 L 52 286 Z M 52 154 " clip-rule="nonzero"/></clipPath><clipPath id="a169032643"><path d="M 52.347656 220.160156 L 117.675781 154.832031 L 183 220.160156 L 117.675781 285.488281 Z M 52.347656 220.160156 " clip-rule="nonzero"/></clipPath><clipPath id="d90c370c35"><path d="M 0.320312 0.800781 L 131 0.800781 L 131 131.601562 L 0.320312 131.601562 Z M 0.320312 0.800781 " clip-rule="nonzero"/></clipPath><clipPath id="9f383bd3e5"><path d="M 0.347656 66.160156 L 65.675781 0.832031 L 131 66.160156 L 65.675781 131.488281 Z M 0.347656 66.160156 " clip-rule="nonzero"/></clipPath><clipPath id="298c9b588f"><rect x="0" width="131" y="0" height="132"/></clipPath><clipPath id="7007c6a573"><path d="M 192 154 L 323 154 L 323 286 L 192 286 Z M 192 154 " clip-rule="nonzero"/></clipPath><clipPath id="5ea6810ea6"><path d="M 192 220.160156 L 257.328125 154.832031 L 322.65625 220.160156 L 257.328125 285.488281 Z M 192 220.160156 " clip-rule="nonzero"/></clipPath><clipPath id="528db9d246"><path d="M 0 0.800781 L 130.800781 0.800781 L 130.800781 131.601562 L 0 131.601562 Z M 0 0.800781 " clip-rule="nonzero"/></clipPath><clipPath id="9993e002f8"><path d="M 0 66.160156 L 65.328125 0.832031 L 130.65625 66.160156 L 65.328125 131.488281 Z M 0 66.160156 " clip-rule="nonzero"/></clipPath><clipPath id="441a83f52a"><rect x="0" width="131" y="0" height="132"/></clipPath><clipPath id="b8b07a6baa"><path d="M 122.171875 224.664062 L 252.828125 224.664062 L 252.828125 289.988281 L 122.171875 289.988281 Z M 122.171875 224.664062 " clip-rule="nonzero"/></clipPath><clipPath id="930e814f5d"><path d="M 187.5 224.664062 L 252.828125 289.988281 L 122.171875 289.988281 Z M 187.5 224.664062 " clip-rule="nonzero"/></clipPath><clipPath id="d85b4a1bd3"><path d="M 0.171875 0.664062 L 130.828125 0.664062 L 130.828125 65.988281 L 0.171875 65.988281 Z M 0.171875 0.664062 " clip-rule="nonzero"/></clipPath><clipPath id="f28f0a32de"><path d="M 65.5 0.664062 L 130.828125 65.988281 L 0.171875 65.988281 Z M 65.5 0.664062 " clip-rule="nonzero"/></clipPath><clipPath id="a033f0114f"><rect x="0" width="131" y="0" height="66"/></clipPath><clipPath id="bd55d20802"><path d="M 122 85 L 253 85 L 253 216 L 122 216 Z M 122 85 " clip-rule="nonzero"/></clipPath><clipPath id="09c71c61e1"><path d="M 122.175781 150.332031 L 187.5 85.007812 L 252.828125 150.332031 L 187.5 215.660156 Z M 122.175781 150.332031 " clip-rule="nonzero"/></clipPath><clipPath id="1364e3bc2c"><path d="M 0.160156 0 L 130.960938 0 L 130.960938 130.761719 L 0.160156 130.761719 Z M 0.160156 0 " clip-rule="nonzero"/></clipPath><clipPath id="07130e26b9"><path d="M 0.175781 65.332031 L 65.5 0.0078125 L 130.828125 65.332031 L 65.5 130.660156 Z M 0.175781 65.332031 " clip-rule="nonzero"/></clipPath><clipPath id="5b1ab0f3fc"><rect x="0" width="131" y="0" height="131"/></clipPath></defs><rect x="-37.5" width="450" fill="#ffffff" y="-37.499999" height="449.999989" fill-opacity="1"/><rect x="-37.5" width="450" fill="#000000" y="-37.499999" height="449.999989" fill-opacity="1"/><g clip-path="url(#5862b51e71)"><g clip-path="url(#a169032643)"><g transform="matrix(1, 0, 0, 1, 52, 154)"><g clip-path="url(#298c9b588f)"><g clip-path="url(#d90c370c35)"><g clip-path="url(#9f383bd3e5)"><path fill="#ffffff" d="M 0.347656 66.160156 L 65.675781 0.832031 L 131 66.160156 L 65.675781 131.488281 Z M 0.347656 66.160156 " fill-opacity="1" fill-rule="nonzero"/></g></g></g></g></g></g><g clip-path="url(#7007c6a573)"><g clip-path="url(#5ea6810ea6)"><g transform="matrix(1, 0, 0, 1, 192, 154)"><g clip-path="url(#441a83f52a)"><g clip-path="url(#528db9d246)"><g clip-path="url(#9993e002f8)"><path fill="#ffffff" d="M 0 66.160156 L 65.328125 0.832031 L 130.65625 66.160156 L 65.328125 131.488281 Z M 0 66.160156 " fill-opacity="1" fill-rule="nonzero"/></g></g></g></g></g></g><g clip-path="url(#b8b07a6baa)"><g clip-path="url(#930e814f5d)"><g transform="matrix(1, 0, 0, 1, 122, 224)"><g clip-path="url(#a033f0114f)"><g clip-path="url(#d85b4a1bd3)"><g clip-path="url(#f28f0a32de)"><path fill="#ffffff" d="M 0.171875 0.664062 L 130.828125 0.664062 L 130.828125 65.988281 L 0.171875 65.988281 Z M 0.171875 0.664062 " fill-opacity="1" fill-rule="nonzero"/></g></g></g></g></g></g><g clip-path="url(#bd55d20802)"><g clip-path="url(#09c71c61e1)"><g transform="matrix(1, 0, 0, 1, 122, 85)"><g clip-path="url(#5b1ab0f3fc)"><g clip-path="url(#1364e3bc2c)"><g clip-path="url(#07130e26b9)"><path fill="#ffffff" d="M 0.175781 65.332031 L 65.5 0.0078125 L 130.828125 65.332031 L 65.5 130.660156 Z M 0.175781 65.332031 " fill-opacity="1" fill-rule="nonzero"/></g></g></g></g></g></g></svg>