<svg xmlns="http://www.w3.org/2000/svg" xmlns:xlink="http://www.w3.org/1999/xlink" width="350" zoomAndPan="magnify" viewBox="0 0 262.5 56.249996" height="75" preserveAspectRatio="xMidYMid meet" version="1.0"><defs><g/><clipPath id="b2e06b59b6"><path d="M 1 14 L 29 14 L 29 43 L 1 43 Z M 1 14 " clip-rule="nonzero"/></clipPath><clipPath id="a714223f0a"><path d="M 1.070312 28.597656 L 14.761719 14.910156 L 28.449219 28.597656 L 14.761719 42.289062 Z M 1.070312 28.597656 " clip-rule="nonzero"/></clipPath><clipPath id="af7cc77ea6"><path d="M 0 0.84375 L 27.558594 0.84375 L 27.558594 28.316406 L 0 28.316406 Z M 0 0.84375 " clip-rule="nonzero"/></clipPath><clipPath id="6ee37be215"><path d="M 0.0703125 14.597656 L 13.761719 0.910156 L 27.449219 14.597656 L 13.761719 28.289062 Z M 0.0703125 14.597656 " clip-rule="nonzero"/></clipPath><clipPath id="df74b51261"><rect x="0" width="28" y="0" height="29"/></clipPath><clipPath id="55de94696e"><path d="M 30 14 L 57.925781 14 L 57.925781 43 L 30 43 Z M 30 14 " clip-rule="nonzero"/></clipPath><clipPath id="3157d6465c"><path d="M 30.335938 28.597656 L 44.023438 14.910156 L 57.714844 28.597656 L 44.023438 42.289062 Z M 30.335938 28.597656 " clip-rule="nonzero"/></clipPath><clipPath id="f76313d099"><path d="M 0.21875 0.84375 L 27.925781 0.84375 L 27.925781 28.316406 L 0.21875 28.316406 Z M 0.21875 0.84375 " clip-rule="nonzero"/></clipPath><clipPath id="dc49fc1c02"><path d="M 0.335938 14.597656 L 14.023438 0.910156 L 27.714844 14.597656 L 14.023438 28.289062 Z M 0.335938 14.597656 " clip-rule="nonzero"/></clipPath><clipPath id="60d40c5585"><rect x="0" width="28" y="0" height="29"/></clipPath><clipPath id="1235afd48e"><path d="M 15.703125 29.542969 L 43.082031 29.542969 L 43.082031 43.230469 L 15.703125 43.230469 Z M 15.703125 29.542969 " clip-rule="nonzero"/></clipPath><clipPath id="75d25d4e9a"><path d="M 29.390625 29.542969 L 43.082031 43.230469 L 15.703125 43.230469 Z M 29.390625 29.542969 " clip-rule="nonzero"/></clipPath><clipPath id="c96b658698"><path d="M 0.703125 0.542969 L 28.082031 0.542969 L 28.082031 14.230469 L 0.703125 14.230469 Z M 0.703125 0.542969 " clip-rule="nonzero"/></clipPath><clipPath id="ce5c84dd76"><path d="M 14.390625 0.542969 L 28.082031 14.230469 L 0.703125 14.230469 Z M 14.390625 0.542969 " clip-rule="nonzero"/></clipPath><clipPath id="e6660d1ad1"><rect x="0" width="29" y="0" height="15"/></clipPath><clipPath id="b071a8c801"><path d="M 15 0.15625 L 44 0.15625 L 44 28 L 15 28 Z M 15 0.15625 " clip-rule="nonzero"/></clipPath><clipPath id="a8f67d9564"><path d="M 15.703125 13.964844 L 29.390625 0.277344 L 43.082031 13.964844 L 29.390625 27.65625 Z M 15.703125 13.964844 " clip-rule="nonzero"/></clipPath><clipPath id="c2ea81737b"><path d="M 0.53125 0.15625 L 28.242188 0.15625 L 28.242188 27.867188 L 0.53125 27.867188 Z M 0.53125 0.15625 " clip-rule="nonzero"/></clipPath><clipPath id="801d1eb204"><path d="M 0.703125 13.964844 L 14.390625 0.277344 L 28.082031 13.964844 L 14.390625 27.65625 Z M 0.703125 13.964844 " clip-rule="nonzero"/></clipPath><clipPath id="fa0b1f741c"><rect x="0" width="29" y="0" height="28"/></clipPath><clipPath id="04aaeb57c0"><rect x="0" width="58" y="0" height="44"/></clipPath></defs><g fill="#000000" fill-opacity="1"><g transform="translate(65.302635, 39.597033)"><g><path d="M 17.625 0 L 12.859375 0 C 12.160156 0 11.441406 -0.0625 10.703125 -0.1875 C 9.972656 -0.320312 9.273438 -0.5625 8.609375 -0.90625 C 7.941406 -1.257812 7.34375 -1.765625 6.8125 -2.421875 C 6.289062 -3.085938 5.875 -3.945312 5.5625 -5 C 5.25 -6.050781 5.09375 -7.351562 5.09375 -8.90625 L 5.09375 -18.671875 L 0.25 -18.671875 L 0.25 -23.40625 L 5.09375 -23.40625 L 5.09375 -30.25 L 10.609375 -30.296875 L 10.609375 -23.40625 L 17.625 -23.40625 L 17.625 -18.671875 L 10.609375 -18.671875 L 10.609375 -8.65625 C 10.609375 -7.5625 10.765625 -6.71875 11.078125 -6.125 C 11.398438 -5.53125 11.820312 -5.125 12.34375 -4.90625 C 12.875 -4.6875 13.425781 -4.578125 14 -4.578125 L 17.625 -4.578125 Z M 17.625 0 "/></g></g></g><g fill="#000000" fill-opacity="1"><g transform="translate(82.195728, 39.597033)"><g><path d="M 12.59375 0.703125 C 11.007812 0.703125 9.546875 0.382812 8.203125 -0.25 C 6.859375 -0.882812 5.6875 -1.769531 4.6875 -2.90625 C 3.695312 -4.050781 2.929688 -5.375 2.390625 -6.875 C 1.847656 -8.375 1.578125 -9.984375 1.578125 -11.703125 C 1.578125 -13.421875 1.851562 -15.023438 2.40625 -16.515625 C 2.957031 -18.015625 3.726562 -19.332031 4.71875 -20.46875 C 5.71875 -21.601562 6.882812 -22.492188 8.21875 -23.140625 C 9.550781 -23.785156 11 -24.109375 12.5625 -24.109375 C 14.476562 -24.109375 16.175781 -23.691406 17.65625 -22.859375 C 19.144531 -22.035156 20.265625 -20.894531 21.015625 -19.4375 L 21.015625 -23.40625 L 26.25 -23.40625 L 26.25 0 L 21.015625 0 L 21.015625 -3.9375 C 20.253906 -2.476562 19.132812 -1.335938 17.65625 -0.515625 C 16.175781 0.296875 14.488281 0.703125 12.59375 0.703125 Z M 13.90625 -4.390625 C 14.863281 -4.390625 15.757812 -4.578125 16.59375 -4.953125 C 17.425781 -5.328125 18.15625 -5.84375 18.78125 -6.5 C 19.414062 -7.15625 19.90625 -7.925781 20.25 -8.8125 C 20.601562 -9.707031 20.78125 -10.671875 20.78125 -11.703125 C 20.78125 -12.722656 20.601562 -13.675781 20.25 -14.5625 C 19.894531 -15.445312 19.40625 -16.222656 18.78125 -16.890625 C 18.15625 -17.554688 17.425781 -18.078125 16.59375 -18.453125 C 15.757812 -18.828125 14.863281 -19.015625 13.90625 -19.015625 C 12.644531 -19.015625 11.492188 -18.707031 10.453125 -18.09375 C 9.421875 -17.488281 8.59375 -16.640625 7.96875 -15.546875 C 7.34375 -14.453125 7.03125 -13.171875 7.03125 -11.703125 C 7.03125 -10.179688 7.34375 -8.875 7.96875 -7.78125 C 8.601562 -6.6875 9.441406 -5.847656 10.484375 -5.265625 C 11.535156 -4.679688 12.675781 -4.390625 13.90625 -4.390625 Z M 13.90625 -4.390625 "/></g></g></g><g fill="#000000" fill-opacity="1"><g transform="translate(109.721344, 39.597033)"><g><path d="M 13.65625 0.703125 C 11.914062 0.703125 10.304688 0.378906 8.828125 -0.265625 C 7.359375 -0.910156 6.082031 -1.800781 5 -2.9375 C 3.914062 -4.070312 3.070312 -5.390625 2.46875 -6.890625 C 1.875 -8.398438 1.578125 -10.003906 1.578125 -11.703125 C 1.578125 -13.398438 1.875 -14.992188 2.46875 -16.484375 C 3.070312 -17.984375 3.914062 -19.304688 5 -20.453125 C 6.082031 -21.597656 7.359375 -22.492188 8.828125 -23.140625 C 10.304688 -23.785156 11.914062 -24.109375 13.65625 -24.109375 C 15.675781 -24.109375 17.476562 -23.71875 19.0625 -22.9375 C 20.65625 -22.15625 21.984375 -21.085938 23.046875 -19.734375 C 24.117188 -18.390625 24.875 -16.859375 25.3125 -15.140625 L 19.6875 -15.140625 C 19.175781 -16.441406 18.378906 -17.40625 17.296875 -18.03125 C 16.222656 -18.664062 15.019531 -18.984375 13.6875 -18.984375 C 12.832031 -18.984375 12.007812 -18.820312 11.21875 -18.5 C 10.4375 -18.175781 9.726562 -17.703125 9.09375 -17.078125 C 8.46875 -16.453125 7.96875 -15.6875 7.59375 -14.78125 C 7.21875 -13.882812 7.03125 -12.859375 7.03125 -11.703125 C 7.03125 -10.546875 7.21875 -9.515625 7.59375 -8.609375 C 7.96875 -7.710938 8.46875 -6.945312 9.09375 -6.3125 C 9.726562 -5.6875 10.441406 -5.207031 11.234375 -4.875 C 12.035156 -4.550781 12.851562 -4.390625 13.6875 -4.390625 C 15.019531 -4.390625 16.222656 -4.71875 17.296875 -5.375 C 18.378906 -6.039062 19.175781 -7.101562 19.6875 -8.5625 L 25.296875 -8.5625 C 24.898438 -6.75 24.160156 -5.144531 23.078125 -3.75 C 22.003906 -2.351562 20.664062 -1.257812 19.0625 -0.46875 C 17.46875 0.3125 15.664062 0.703125 13.65625 0.703125 Z M 13.65625 0.703125 "/></g></g></g><g fill="#000000" fill-opacity="1"><g transform="translate(134.287158, 39.597033)"><g><path d="M 5.9375 -27.046875 C 4.875 -27.046875 4.039062 -27.351562 3.4375 -27.96875 C 2.84375 -28.582031 2.546875 -29.328125 2.546875 -30.203125 C 2.546875 -31.054688 2.84375 -31.796875 3.4375 -32.421875 C 4.039062 -33.046875 4.882812 -33.359375 5.96875 -33.359375 C 7.070312 -33.359375 7.921875 -33.046875 8.515625 -32.421875 C 9.117188 -31.796875 9.421875 -31.054688 9.421875 -30.203125 C 9.421875 -29.328125 9.117188 -28.582031 8.515625 -27.96875 C 7.921875 -27.351562 7.0625 -27.046875 5.9375 -27.046875 Z M 8.75 0 L 3.234375 0 L 3.234375 -23.40625 L 8.75 -23.40625 Z M 8.75 0 "/></g></g></g><g fill="#000000" fill-opacity="1"><g transform="translate(144.281632, 39.597033)"><g><path d="M 14.6875 0 L 9.5625 0 L 0.234375 -23.40625 L 6.078125 -23.40625 L 11.515625 -9.265625 L 12.140625 -6.8125 L 12.71875 -9.25 L 18.171875 -23.40625 L 24.0625 -23.40625 Z M 14.6875 0 "/></g></g></g><g fill="#000000" fill-opacity="1"><g transform="translate(166.593442, 39.597033)"><g><path d="M 13.859375 0.703125 C 12.085938 0.703125 10.445312 0.382812 8.9375 -0.25 C 7.4375 -0.882812 6.132812 -1.769531 5.03125 -2.90625 C 3.9375 -4.050781 3.085938 -5.375 2.484375 -6.875 C 1.878906 -8.375 1.578125 -9.984375 1.578125 -11.703125 C 1.578125 -13.421875 1.878906 -15.023438 2.484375 -16.515625 C 3.085938 -18.015625 3.9375 -19.332031 5.03125 -20.46875 C 6.132812 -21.601562 7.4375 -22.492188 8.9375 -23.140625 C 10.445312 -23.785156 12.097656 -24.109375 13.890625 -24.109375 C 15.691406 -24.109375 17.34375 -23.785156 18.84375 -23.140625 C 20.351562 -22.492188 21.660156 -21.601562 22.765625 -20.46875 C 23.867188 -19.332031 24.722656 -18.015625 25.328125 -16.515625 C 25.941406 -15.023438 26.25 -13.421875 26.25 -11.703125 C 26.25 -9.972656 25.941406 -8.359375 25.328125 -6.859375 C 24.722656 -5.367188 23.867188 -4.050781 22.765625 -2.90625 C 21.660156 -1.769531 20.351562 -0.882812 18.84375 -0.25 C 17.332031 0.382812 15.671875 0.703125 13.859375 0.703125 Z M 13.90625 -4.421875 C 15.226562 -4.421875 16.40625 -4.734375 17.4375 -5.359375 C 18.46875 -5.992188 19.28125 -6.851562 19.875 -7.9375 C 20.476562 -9.03125 20.78125 -10.285156 20.78125 -11.703125 C 20.78125 -13.109375 20.476562 -14.363281 19.875 -15.46875 C 19.28125 -16.570312 18.46875 -17.4375 17.4375 -18.0625 C 16.40625 -18.695312 15.226562 -19.015625 13.90625 -19.015625 C 12.601562 -19.015625 11.429688 -18.695312 10.390625 -18.0625 C 9.347656 -17.4375 8.523438 -16.570312 7.921875 -15.46875 C 7.328125 -14.363281 7.03125 -13.109375 7.03125 -11.703125 C 7.03125 -10.285156 7.328125 -9.03125 7.921875 -7.9375 C 8.523438 -6.851562 9.347656 -5.992188 10.390625 -5.359375 C 11.429688 -4.734375 12.601562 -4.421875 13.90625 -4.421875 Z M 13.90625 -4.421875 "/></g></g></g><g fill="#000000" fill-opacity="1"><g transform="translate(192.457015, 39.597033)"><g/></g></g><g fill="#000000" fill-opacity="1"><g transform="translate(201.868465, 39.597033)"><g><path d="M 27.90625 -30.96875 L 16.671875 -17.296875 L 29.640625 0 L 24.8125 0 L 14.03125 -14.34375 L 8.234375 -7.234375 L 8.234375 0 L 4.21875 0 L 4.21875 -30.96875 L 8.234375 -30.96875 L 8.234375 -12.609375 L 23.15625 -30.96875 Z M 27.90625 -30.96875 "/></g></g></g><g fill="#000000" fill-opacity="1"><g transform="translate(230.054345, 39.597033)"><g><path d="M 18.734375 0 L 4.21875 0 L 4.21875 -30.96875 L 17.4375 -30.96875 C 19.15625 -30.96875 20.675781 -30.625 22 -29.9375 C 23.332031 -29.25 24.375 -28.296875 25.125 -27.078125 C 25.882812 -25.859375 26.265625 -24.4375 26.265625 -22.8125 C 26.265625 -21.875 26.082031 -20.972656 25.71875 -20.109375 C 25.351562 -19.253906 24.863281 -18.5 24.25 -17.84375 C 23.632812 -17.195312 22.941406 -16.707031 22.171875 -16.375 C 23.265625 -16.050781 24.257812 -15.515625 25.15625 -14.765625 C 26.050781 -14.023438 26.757812 -13.140625 27.28125 -12.109375 C 27.8125 -11.078125 28.078125 -9.957031 28.078125 -8.75 C 28.078125 -7.34375 27.816406 -6.097656 27.296875 -5.015625 C 26.773438 -3.929688 26.078125 -3.015625 25.203125 -2.265625 C 24.335938 -1.523438 23.347656 -0.960938 22.234375 -0.578125 C 21.117188 -0.191406 19.953125 0 18.734375 0 Z M 8.28125 -27.453125 L 8.28125 -17.53125 L 17.25 -17.53125 C 18.175781 -17.53125 19.007812 -17.75 19.75 -18.1875 C 20.5 -18.625 21.09375 -19.222656 21.53125 -19.984375 C 21.976562 -20.742188 22.203125 -21.585938 22.203125 -22.515625 C 22.203125 -23.441406 21.976562 -24.273438 21.53125 -25.015625 C 21.09375 -25.765625 20.5 -26.359375 19.75 -26.796875 C 19.007812 -27.234375 18.1875 -27.453125 17.28125 -27.453125 Z M 8.28125 -14.40625 L 8.28125 -3.546875 L 18.421875 -3.546875 C 19.453125 -3.546875 20.382812 -3.785156 21.21875 -4.265625 C 22.050781 -4.742188 22.707031 -5.394531 23.1875 -6.21875 C 23.675781 -7.050781 23.921875 -7.988281 23.921875 -9.03125 C 23.921875 -10.019531 23.675781 -10.921875 23.1875 -11.734375 C 22.707031 -12.546875 22.054688 -13.191406 21.234375 -13.671875 C 20.421875 -14.160156 19.5 -14.40625 18.46875 -14.40625 Z M 8.28125 -14.40625 "/></g></g></g><g transform="matrix(1, 0, 0, 1, 3, 6)"><g clip-path="url(#04aaeb57c0)"><g clip-path="url(#b2e06b59b6)"><g clip-path="url(#a714223f0a)"><g transform="matrix(1, 0, 0, 1, 1, 14)"><g clip-path="url(#df74b51261)"><g clip-path="url(#af7cc77ea6)"><g clip-path="url(#6ee37be215)"><path fill="#8f3527" d="M 0.0703125 14.597656 L 13.761719 0.910156 L 27.449219 14.597656 L 13.761719 28.289062 Z M 0.0703125 14.597656 " fill-opacity="1" fill-rule="nonzero"/></g></g></g></g></g></g><g clip-path="url(#55de94696e)"><g clip-path="url(#3157d6465c)"><g transform="matrix(1, 0, 0, 1, 30, 14)"><g clip-path="url(#60d40c5585)"><g clip-path="url(#f76313d099)"><g clip-path="url(#dc49fc1c02)"><path fill="#b974f4" d="M 0.335938 14.597656 L 14.023438 0.910156 L 27.714844 14.597656 L 14.023438 28.289062 Z M 0.335938 14.597656 " fill-opacity="1" fill-rule="nonzero"/></g></g></g></g></g></g><g clip-path="url(#1235afd48e)"><g clip-path="url(#75d25d4e9a)"><g transform="matrix(1, 0, 0, 1, 15, 29)"><g clip-path="url(#e6660d1ad1)"><g clip-path="url(#c96b658698)"><g clip-path="url(#ce5c84dd76)"><path fill="#5d3d89" d="M 0.703125 0.542969 L 28.082031 0.542969 L 28.082031 14.230469 L 0.703125 14.230469 Z M 0.703125 0.542969 " fill-opacity="1" fill-rule="nonzero"/></g></g></g></g></g></g><g clip-path="url(#b071a8c801)"><g clip-path="url(#a8f67d9564)"><g transform="matrix(1, 0, 0, 1, 15, 0.000000000000004441)"><g clip-path="url(#fa0b1f741c)"><g clip-path="url(#c2ea81737b)"><g clip-path="url(#801d1eb204)"><path fill="#d1462a" d="M 0.703125 13.964844 L 14.390625 0.277344 L 28.082031 13.964844 L 14.390625 27.65625 Z M 0.703125 13.964844 " fill-opacity="1" fill-rule="nonzero"/></g></g></g></g></g></g></g></g></svg>